<svg version="1.1" xmlns="http://www.w3.org/2000/svg" viewBox="0 0 1113.9748399160521 968.3770882503409" width="3341.9245197481564" height="2905.1312647510226">
  <!-- svg-source:excalidraw -->
  
  <defs>
    <style>
      @font-face {
        font-family: "Virgil";
        src: url("https://excalidraw.com/Virgil.woff2");
      }
      @font-face {
        font-family: "Cascadia";
        src: url("https://excalidraw.com/Cascadia.woff2");
      }
    </style>
  </defs>
  <rect x="0" y="0" width="1113.9748399160521" height="968.3770882503409" fill="#ffffff"></rect><g stroke-linecap="round" transform="translate(117.7382891729194 182) rotate(0 75 51.5)"><path d="M0 0 C0 0, 0 0, 0 0 M0 0 C0 0, 0 0, 0 0 M-0.54 6.54 C0.78 5.12, 2.85 3.48, 5.75 1.13 M-0.56 6.48 C1.23 4.5, 2.92 2.34, 4.92 0.39 M-0.98 10.97 C2.92 7.59, 5.99 7.46, 10.52 -0.29 M-0.39 11.96 C3.27 8.4, 5.88 6.25, 10.46 0 M1.67 17.94 C3.6 14.94, 7.38 11.28, 15.76 1.58 M0.6 18.44 C4.18 13.72, 9.15 7.99, 16.36 -0.42 M-0.4 23.24 C5.98 17.48, 12.51 9.86, 21.5 -1.33 M0.48 23.92 C5.52 16.86, 11.17 10.23, 21.25 0.6 M0.96 31.5 C8.59 19.29, 19.01 8.51, 24.26 0.47 M0.26 29.94 C4.86 24.38, 12.13 16.4, 27.1 0.83 M-0.52 38.28 C11.67 24.21, 22.73 12.3, 31.73 -0.67 M-0.46 36.64 C9.87 25.9, 17.79 15.31, 31.53 0.41 M0.4 41.98 C13.97 25.8, 25.74 14.42, 37.55 -1.67 M-0.56 43 C11.97 29.67, 22.71 17.83, 37.44 -0.09 M-1.41 47.94 C10.79 37.48, 19.86 25.24, 42.74 -0.91 M-0.51 49.2 C14.28 30.63, 30.58 13.8, 43.19 0.38 M-0.71 53.07 C16.47 36.93, 29.96 21.28, 46.57 1.71 M1.2 55.42 C10.61 43.44, 20.81 33.08, 48.34 -0.55 M0.98 61.76 C13.49 46.41, 28.07 29.84, 51.91 0.59 M-0.24 61.88 C15.36 44.94, 29.85 27.53, 53.76 -0.65 M0.1 66.44 C21.15 42.03, 44.59 12.76, 60.12 0.36 M-0.47 67.68 C13.83 49.99, 29.31 32.99, 57.39 1 M1.18 71.74 C15.58 55.56, 29.93 40.53, 64.42 -0.32 M1.06 73.09 C20.09 49.83, 41.08 27.42, 64.36 0.06 M-0.94 78.65 C18.52 61.96, 31.22 41.47, 68.77 -0.8 M0 79.9 C20.34 53.11, 41.98 29.11, 68.74 1.01 M-0.46 85.07 C25.1 57.29, 49.36 31.5, 73.25 1.37 M0.68 84.16 C16.22 65.13, 33.08 46.58, 73.7 -0.82 M-1.72 89.74 C27.26 63.47, 50.73 34.81, 80.93 -1.64 M-0.23 92.34 C23.29 65.26, 47.03 38.37, 79.17 0.84 M1.53 96.85 C22.3 71.19, 47 44.14, 83.22 -0.12 M-0.15 98.07 C21.79 72.77, 45.62 46.85, 84.09 -0.75 M0.29 104.16 C34.89 66.52, 68.45 24.74, 90.8 1.13 M0.3 104.45 C19.57 78.43, 41.39 54.45, 90.03 0.74 M6.34 104.34 C42.21 64.17, 75.77 19.75, 94.94 -1.4 M6.26 103.65 C40.22 64.07, 73.24 25.25, 95.43 -1.26 M9.97 103.49 C29.23 79.97, 52.88 54.33, 102.41 2.01 M11.1 103.5 C29.34 82.41, 50.06 60.08, 101.26 -0.11 M17.78 102.56 C45.61 68.42, 77.22 33.63, 104.84 -1.88 M17.03 103.22 C52.02 62.84, 87.42 21.17, 107.22 0.03 M23 102.63 C49.88 68.75, 81.79 35.08, 109.6 -1.33 M22.29 102.8 C46.65 74.29, 73.5 45.04, 111.41 0.36 M26.85 104.7 C54.71 68.52, 86.46 33.87, 116.52 0.96 M27.23 103.01 C46.58 80.1, 66.85 55.46, 115.89 0.15 M33.38 101.61 C49.63 83.11, 68.34 58.82, 120.02 -0.02 M32.09 103.5 C60.28 73.95, 86.05 41.97, 121.62 -0.87 M38.93 101.89 C68 65.54, 98.63 32.62, 127.33 0.58 M37.12 102.86 C65.15 71.6, 92.33 38.91, 127.44 -0.23 M42.91 101.64 C61.74 80.98, 85.36 54.23, 131.13 -2 M42.31 102.67 C67.93 75.61, 91.1 47.23, 131.6 0.09 M49.24 104.43 C75.51 72.32, 102.13 36.75, 136.49 1.87 M47.55 103.56 C76.84 68.55, 107.51 34.5, 137.48 -0.26 M53.2 105.12 C77.56 74.76, 101.19 46.35, 142.2 -0.03 M52.34 103.28 C74.71 78.39, 95.63 53.97, 143.7 0.03 M58.81 101.8 C87.77 69.76, 118.32 34.51, 147.68 2.17 M57.97 102.76 C84.98 72.24, 111.4 42.13, 147.89 0.05 M65.69 103.63 C97.89 62.07, 134.17 21.56, 152.35 2.57 M63.2 104.18 C82.32 80.74, 100.92 59.16, 150.85 2.92 M69.81 103.46 C93.3 76.48, 113.46 52.46, 153.83 7.56 M69.78 103.79 C92.69 77.13, 116.18 48.53, 151.57 8.15 M73.63 101.95 C104.28 67.06, 133.01 31.91, 153.92 14.97 M75.45 104.17 C90.81 83.65, 105.91 65.29, 152.02 14.91 M80.22 103.74 C103.91 77.08, 128.19 51.07, 152.87 18.72 M78.91 102.62 C99.44 80.53, 119.94 56.91, 152.21 18.84 M86.06 102.02 C101.04 83.3, 119.27 64.07, 152.16 28.17 M85.3 103.92 C98.39 88.41, 112.83 71.65, 151.82 25.7 M91.83 102.46 C107.67 84.5, 126.17 61.73, 151.21 32.77 M89.94 104.4 C109.8 79.5, 129.7 57.33, 151.73 32.06 M95.85 103.01 C112.25 85.98, 127.76 67, 153.58 38.16 M96.5 104.02 C108.17 89.38, 119.39 76.43, 152.96 37.7 M100.92 101.86 C115.99 87.97, 131.49 70.85, 153.08 46.3 M100.7 104.43 C111.09 91, 122.7 79.18, 151.69 43.91 M107.69 101.25 C118.55 90.12, 127.33 81.61, 150.52 52.11 M106.45 102.98 C124.3 83.4, 140.61 62.59, 152.74 50.25 M109.57 103.37 C126.35 83.35, 144.37 66.72, 152.57 55.33 M111.6 102.89 C126.55 85.75, 140.91 69.2, 151.28 56.68 M118.07 102.25 C127.44 94.21, 134.78 83.09, 152.48 61.14 M116.09 103.19 C126.27 91.7, 136.62 80.12, 152.38 62.33 M121.69 103.61 C131.72 93.71, 141.53 82.33, 152.24 68.31 M121.65 102.89 C132.55 92.11, 142.3 81.77, 151.94 67.81 M127.3 104.73 C131.91 95.99, 138.04 90.62, 152.74 73.31 M127.99 102.97 C135.56 94.67, 142.96 85.01, 151.68 75.56 M130.99 102.37 C139.1 93.84, 149.23 86.44, 150.46 78.9 M132.46 102.46 C139.9 95.21, 145.26 89.1, 152.67 80.63 M139.49 104.59 C141.62 97.52, 144.94 95.21, 152.4 86.1 M138.29 102.52 C143.77 97.04, 148.66 91.41, 153.04 86.75 M144.41 102.92 C146.56 100.49, 146.66 99.84, 152.43 94.3 M143.91 102.81 C146.43 100.71, 148.06 97.6, 151.6 93.3 M149.37 102.98 C150.26 101.6, 151.63 100.28, 151.95 99.28 M148.92 103.24 C149.72 102.27, 150.58 101.32, 152.22 99.13" stroke="#15aabf" stroke-width="0.5" fill="none"></path><path d="M0.69 -0.68 C52.64 -1.79, 102.91 0.04, 149.77 -0.43 M0.8 -0.39 C47.16 -1.63, 95.48 -0.59, 150.42 0.79 M151.35 1.09 C148.3 29.48, 150.94 63.86, 150.78 103.59 M150.58 -0.5 C150.22 33.83, 151.05 67.64, 149.04 102.61 M151.66 103.39 C93.86 103.94, 41 104.62, 1.66 101.59 M150.66 103.13 C114.26 103.25, 79.61 103.44, -0.05 103.28 M1.77 101.27 C-1.17 68.58, -1.69 34.5, -0.04 -1.95 M-0.04 103.07 C-0.06 76.63, -1.5 50.67, 0.33 0.17" stroke="#000000" stroke-width="1" fill="none"></path></g><g transform="translate(175.7382891729194 221.5) rotate(0 19.5 13)"><text x="19.5" y="18" font-family="Virgil, Segoe UI Emoji" font-size="20px" fill="#000000" text-anchor="middle" style="white-space: pre;" direction="ltr">12 V</text></g><g stroke-linecap="round"><g transform="translate(267.3933995373267 233.9188065195176) rotate(0 82.99267124719921 0.28435556912313587)"><path d="M-0.34 0.63 C27.57 0.55, 138.85 -0.3, 166.33 -0.26 M1.67 -0.08 C29.62 -0.05, 138.35 0.42, 165.9 0.83" stroke="#000000" stroke-width="1" fill="none"></path></g></g><g stroke-linecap="round"><g transform="translate(436.7382891729194 37) rotate(0 0.6452654695277715 269.5349260844291)"><path d="M-0.93 -0.54 C-0.76 89.58, 1.69 449.61, 2.22 539.61 M0.78 1.79 C0.72 91.63, 1.3 447.81, 1.44 537.66" stroke="#000000" stroke-width="1" fill="none"></path></g></g><g stroke-linecap="round"><g transform="translate(1000.7382891729194 43) rotate(0 -0.43632591001585297 266.32954676243025)"><path d="M0.57 0.61 C0.67 89.24, -0.22 442.98, -0.23 531.44 M-0.59 -0.11 C-0.63 88.72, -1.51 444.02, -1.45 532.77" stroke="#000000" stroke-width="1" fill="none"></path></g></g><g stroke-linecap="round"><g transform="translate(436.7382891729194 37) rotate(0 109.99025552460455 0.8469743388611732)"><path d="M-1.16 -0.02 C35.18 0.22, 182.25 1.24, 218.97 1.84 M0.43 -1.07 C37.06 -0.77, 184.28 2.33, 221.14 2.77" stroke="#000000" stroke-width="1" fill="none"></path></g></g><g stroke-linecap="round" transform="translate(657.7382891729194 10) rotate(0 61.5 33.5)"><path d="M0 0 C0 0, 0 0, 0 0 M0 0 C0 0, 0 0, 0 0 M-0.45 7.12 C1.14 4.95, 3.4 2.68, 4.81 0.93 M0.09 6.2 C0.9 4.71, 2.58 3.05, 4.62 0.39 M0.28 12.41 C1.42 9.57, 6.05 6.63, 9.11 -0.8 M0.19 12.31 C4.22 8.26, 8.06 2.57, 10.94 0.38 M0.18 20.39 C2.37 13.79, 7.85 9.74, 15.62 1.64 M0.15 19.07 C6.37 12.18, 11.52 3.34, 15.25 -0.22 M1.21 25.21 C8.64 16.31, 14.72 7.66, 20.78 -1.96 M-0.14 24.1 C4.08 18.74, 10.48 12.16, 22.14 0.91 M0.64 30.59 C4.72 25.98, 13.02 19.45, 27.45 -0.03 M0.69 30.23 C8.11 20.49, 17.47 10.51, 25.52 -0.48 M0.97 37.22 C13.57 22.79, 26.46 6.07, 33.73 0.65 M0.54 36.49 C9.65 24.29, 21.41 12.28, 31.05 -0.78 M1.9 41.3 C10.16 30.7, 22.45 19.82, 37.12 0.94 M0.04 43.36 C11.36 28.35, 24.6 14.06, 37 0.55 M0.24 48.9 C8.86 38.31, 17.77 25.4, 41.75 -0.59 M0.55 48.04 C8.22 39.35, 17.11 27.74, 41.57 -0.14 M0.37 54.82 C15.93 39.67, 28.08 21.02, 46.9 -1.48 M0.89 54.01 C16.34 34.78, 32.56 17.28, 47.72 0.34 M-1.11 60.72 C16.93 42.78, 32.1 22.52, 54.21 -1.31 M0.13 60.11 C11.47 47.58, 25.22 31.97, 52.44 -1.14 M-0.97 66.02 C17.16 49.54, 30.41 30.83, 56.25 0.48 M0.21 68.1 C17.53 47.06, 35.17 24.29, 57.61 0.97 M3.87 68.18 C22.8 44.42, 43.71 22.84, 63.67 -1.34 M5.34 67.87 C21.15 48.59, 36.58 30.23, 63.29 -0.18 M8.47 67.26 C24.18 51.68, 36.82 36.43, 69.81 0.39 M10.31 66.77 C29.46 45.39, 49.38 22.42, 68.52 1.1 M14.09 66.61 C32.84 47.3, 49.7 28.46, 73.86 -0.69 M16.9 67.11 C38.66 39.6, 62.57 12.71, 74.67 -0.03 M19.54 69.11 C33.54 51.15, 45.33 37.25, 77.43 1.68 M21.46 67.2 C37.91 48.45, 52.51 31.23, 80.19 0.01 M28.37 67.2 C43.84 49.12, 59.77 27.66, 83.71 0.46 M26.18 66.25 C49.05 39.98, 71.12 13.54, 86.02 0.12 M33.43 69.11 C44.42 51.49, 54.74 37.65, 90.11 1.54 M31.98 67.32 C50.88 45.85, 70.24 24.54, 90.28 -0.47 M36 64.91 C53.3 48.26, 70.32 28.62, 95.35 -2.27 M37.72 66.27 C51.51 49.35, 67.19 32.18, 95.7 0.66 M42.48 68.65 C53.54 54.81, 66.87 39.2, 100.08 -1.01 M43.1 66.67 C58.65 48.73, 75.81 28.25, 100.34 0.13 M47.44 68.5 C66.13 43.24, 84.44 23.6, 106.07 -1.47 M47.93 66.75 C65.34 48.08, 81.98 28.36, 106.97 -0.4 M54.27 68.89 C65.93 52.46, 77.27 39.33, 112.74 -1.11 M52.96 66.35 C69.79 48.64, 86.68 29.57, 111.84 0.83 M58.32 68.58 C69.84 52.19, 83.64 39.4, 115.7 -1.13 M59.16 65.85 C72.41 51.68, 84.58 38.48, 115.35 1.28 M63.52 66.84 C86.47 42.12, 106.5 14.98, 122.65 -0.13 M62.6 67.09 C85.74 39.31, 109.89 13.58, 122.15 -0.71 M69.49 65.54 C90.21 41.79, 109.83 19.17, 123.94 1.81 M69.67 66.33 C84.5 51.38, 97.88 34.64, 125.91 0.87 M72.17 67.3 C87.23 50.66, 102.56 33.68, 126.39 6.71 M73.97 67.19 C89.48 49.63, 105.09 31.63, 125.33 8.03 M78.97 65.59 C95.89 49.62, 110.39 34.67, 124.45 12.78 M79.6 67.55 C89.8 54.48, 100.39 43.13, 125.45 13.73 M85.34 66.89 C98.07 53.18, 110.41 36.68, 124.85 21.13 M83.94 66.56 C99.85 48.67, 116.85 31.24, 124.5 19.35 M89.96 64.76 C103.31 52.02, 112.48 41.58, 125.8 26.38 M91.01 67.47 C99.96 55.09, 109.32 45.07, 125.34 26.14 M95.33 66.03 C107.26 53.89, 118.05 41.47, 127.45 31.47 M96.25 66.68 C103.67 58.46, 109.44 51.41, 126.04 32.89 M102.87 64.87 C110.02 59.07, 114.45 50.2, 124.55 37.87 M101.86 66.61 C110.13 56.4, 119.45 46.21, 124.74 38.84 M105.62 68.97 C110.33 63.19, 115.4 57.62, 124.88 44.38 M105.59 66.66 C112.44 58.08, 120.11 50.56, 124.28 45.41 M110.63 66.35 C114 62.22, 118.06 60.44, 125.15 49.54 M111.38 66.87 C115.82 60.55, 120.41 54.82, 126.33 51.37 M115.52 67.49 C119.31 65.21, 120.24 63.03, 126.35 57.74 M117.22 67.1 C119.59 63.58, 122.11 60.66, 125.36 57.72 M121.56 67.88 C122.11 66.74, 123.21 65.32, 126.09 63.02 M121.96 67.08 C122.83 65.94, 124.07 64.52, 125.64 62.83" stroke="#40c057" stroke-width="0.5" fill="none"></path><path d="M-0.5 1.85 C34.51 1.64, 68.1 0.51, 124.22 -0.96 M0.17 -0.46 C47.79 0.31, 96.66 -1.02, 123.99 0.09 M122.57 0.65 C122.17 15.73, 123.77 32.34, 121.5 68.63 M123.52 -0.63 C124.04 14.82, 123.91 31.09, 123.32 66.94 M124.83 67.19 C83.55 68.62, 47.62 69.38, 1.16 67.54 M122.59 66.63 C94.88 68.63, 64.11 67.73, 0 66.53 M0.23 68 C-1.94 43.93, -2.37 24.95, -0.05 1.72 M-0.37 67.01 C0.59 45.24, 0.87 24.56, -0.58 0.81" stroke="#000000" stroke-width="1" fill="none"></path></g><g transform="translate(690.7382891729194 30.5) rotate(0 28.5 13)"><text x="28.5" y="18" font-family="Virgil, Segoe UI Emoji" font-size="20px" fill="#000000" text-anchor="middle" style="white-space: pre;" direction="ltr">Pompe</text></g><g stroke-linecap="round"><g transform="translate(782.7382891729194 39) rotate(0 108.07370745593221 1.9626053014258105)"><path d="M0.01 0.65 C36.33 1.38, 181.18 3.71, 217.58 3.99 M-1.44 -0.06 C34.71 0.4, 179.86 1.83, 216.42 2.38" stroke="#000000" stroke-width="1" fill="none"></path></g></g><g stroke-linecap="round" transform="translate(657.7382891729194 85.5) rotate(0 61.5 33.5)"><path d="M0 0 C0 0, 0 0, 0 0 M0 0 C0 0, 0 0, 0 0 M-0.84 6.05 C2.12 4.4, 3.67 2.14, 5.65 0.04 M-0.11 6.27 C0.94 5.12, 2.08 3.18, 5.09 0.18 M1.52 12.31 C3.1 7.24, 5.23 4.17, 10.58 -0.57 M0.25 11.57 C2.94 8.02, 5.87 5.71, 11.37 -0.01 M1.55 17.1 C3.56 11.11, 12.21 6.62, 16.75 -0.09 M-0.15 18.12 C3.78 14.47, 6.24 10.16, 15.49 -0.1 M-0.89 23.56 C4.45 15.98, 12.49 8.64, 21.52 0.91 M0.67 23.3 C5.42 19.68, 8.99 14.59, 21.15 -0.01 M1.54 29.53 C8.78 21.32, 17.47 12.94, 27.28 0.85 M0.34 29.99 C6.36 24.11, 10.5 19.25, 26.95 0.86 M-0.51 37.51 C11.84 23.11, 25.06 6.57, 33.63 -0.64 M-1.13 36.69 C6.14 27.43, 14.77 19.73, 30.96 0.26 M-0.79 41.1 C13.82 29.36, 25.3 12.93, 38.02 -0.67 M0.75 42.51 C13.78 25.39, 28.81 10.65, 37.63 0.04 M-1.6 47.41 C9.25 38.42, 22.59 22.17, 42.81 0.99 M-0.92 48.48 C15.24 29.68, 33.36 10.82, 43.2 -0.92 M0.72 55.9 C17.98 36.7, 30.65 17.56, 47.97 0.08 M0.19 55.1 C11.29 41.54, 22.13 28.5, 48.44 0.26 M0.4 60.51 C20.05 40.3, 38.81 17.38, 54.14 -2.06 M0.46 61.39 C15.65 41.79, 32.07 22.95, 54 -0.66 M0.74 68.57 C21.03 40.9, 44.96 16.44, 59.3 -0.33 M-1.02 66.51 C15.84 48.88, 30.89 30.39, 57.2 -0.04 M7.19 65.07 C24.99 48.27, 40.56 24.74, 61.89 0.19 M4.93 66.94 C26.14 42.79, 47.28 17.1, 63.38 0.52 M11.6 69.24 C29.31 47.7, 48.27 24.29, 69.39 -1.54 M9.85 67.78 C26.74 47.83, 42.77 27.94, 68.66 -0.83 M14.37 67.21 C39.46 40.23, 60.76 19.28, 73.52 -0.5 M16.11 66.29 C32.78 46.97, 51.07 27.45, 75.28 0.7 M19.86 68.27 C33.97 54.11, 43.84 41.05, 78.78 0.63 M20.44 66.92 C39.84 45.16, 58.29 24.26, 78.44 -0.49 M27.51 66.9 C47.04 43.65, 65.82 19.38, 85.67 1.47 M27.26 66.21 C39.05 54.44, 49.27 40.39, 85.54 0.54 M32.43 68.99 C47.72 48.09, 64.02 29.8, 91.23 -1.83 M31.48 67.74 C48.08 49.18, 61.25 31.41, 89.09 0.19 M36.58 65.89 C53.32 49.3, 67.53 30, 96.19 1.49 M37.81 67.05 C56.05 44.33, 76.03 23.51, 95.91 -0.7 M41.37 68.56 C55.64 51.21, 65.83 39.45, 101.65 -1.1 M41.58 66.61 C59.91 48.55, 75.06 29.43, 100.05 0.03 M46.78 65.72 C69.18 43.28, 88.05 20.65, 108.1 0.77 M48.07 66.73 C66.1 47.74, 82.32 26.38, 106.04 -1.16 M51.97 65.94 C77.23 41.81, 99.02 15.29, 112.16 -1.57 M53.28 66.52 C76.51 40.07, 98.68 14.94, 111.69 -0.58 M58.46 67.77 C80.76 40.25, 102.67 15.15, 116.95 -0.91 M59.27 66.8 C74.63 48.29, 89.68 30.78, 116.82 0.36 M62.69 65.9 C79.72 49.04, 93.96 32.49, 120.06 0.18 M63 67.05 C80.81 48.43, 95.91 30.28, 121.27 0.36 M67.18 65.22 C86.46 46.96, 108.43 22.23, 124.13 1.29 M69.56 66.36 C81.32 53.69, 93.18 39.31, 125.74 0.91 M73.17 67.02 C93.39 44.86, 115 20.98, 126.64 7.71 M75.08 66.35 C88.58 51.77, 102.87 34.36, 125.74 8.73 M79.69 67.06 C97.77 46.21, 116.48 24.56, 127.05 16.58 M79.98 66.13 C98.22 47.22, 115.74 26.26, 124.96 14.68 M84.24 65.71 C95.52 57.21, 101.87 46.93, 123.5 19.54 M85.78 67.2 C99.71 48.09, 116.03 30.48, 126.11 21.21 M89.9 66.09 C101.21 52.45, 113 38.57, 123.98 25.36 M90.47 66.42 C99.12 57.33, 108.36 46.15, 124.28 25.83 M93.94 68.18 C106.66 56.99, 113.7 47.2, 124.8 30.77 M95.25 66.94 C102.87 57.43, 111.74 46.73, 125.63 32.78 M102.95 66.94 C107.56 55.89, 117.54 49.07, 127.22 38.65 M101.89 67.12 C107.74 59.31, 112.34 53.57, 126.21 37.95 M105.47 66.46 C110.44 62.27, 117.18 55.61, 123.93 44.83 M105.54 67.52 C109.96 61.7, 114.84 55.79, 124.55 44.58 M110.46 66.79 C115.95 63.28, 118.83 57.98, 126.92 52.53 M111.36 66.51 C114.4 63.32, 119.51 57.41, 125.84 50.44 M115.73 66.58 C118.27 64.42, 120.96 61.78, 124.06 58.17 M116.64 67.31 C118.95 64.18, 121.32 61.21, 125.7 57.09 M121.54 67.65 C122.69 65.06, 125.04 64.23, 125.84 62.24 M121.42 67.58 C123.01 65.82, 124.55 63.92, 125.78 62.96" stroke="#fab005" stroke-width="0.5" fill="none"></path><path d="M0.54 1.44 C30.27 2.89, 65.85 -0.54, 123.82 -0.72 M0.96 0.91 C41.78 1.11, 81.48 0.96, 122.82 -0.53 M123.56 -1.39 C124.26 23.21, 121.3 51.18, 123.65 66.61 M123.18 0.8 C122.19 25.13, 123.49 48.7, 122.08 66.35 M121.67 67.47 C75.19 64.11, 28.21 65.58, 1.15 65.29 M123.05 67.64 C76 66.9, 27.89 67.12, 0.35 67.54 M0.37 66.99 C-0.47 47.83, 0.02 26.83, 1.97 -1.68 M0.23 66.26 C-0.51 45.3, -0.22 23.42, 0.71 0.82" stroke="#000000" stroke-width="1" fill="none"></path></g><g transform="translate(681.2382891729194 106) rotate(0 38 13)"><text x="38" y="18" font-family="Virgil, Segoe UI Emoji" font-size="20px" fill="#000000" text-anchor="middle" style="white-space: pre;" direction="ltr">Valve #1</text></g><g stroke-linecap="round"><g transform="translate(782.7382891729194 114.5) rotate(0 109.45590015336404 1.5837277360260487)"><path d="M0.86 -1.01 C37.56 -0.37, 183.03 3.43, 219.05 4.18 M-0.14 1.08 C36.58 1.39, 182.07 2.62, 218.66 2.67" stroke="#000000" stroke-width="1" fill="none"></path></g></g><g stroke-linecap="round" transform="translate(524.7382891729194 89) rotate(0 26 24.5)"><path d="M-0.09 25.1 C-0.09 25.1, -0.09 25.1, -0.09 25.1 M-0.09 25.1 C-0.09 25.1, -0.09 25.1, -0.09 25.1 M3.12 27.15 C8.02 18.68, 15.74 10.83, 28.45 -2.09 M3.76 26.8 C13.49 17.61, 21.57 5.87, 27.2 -0.35 M4.27 31.08 C13.7 23.4, 23.42 14.26, 27.71 3.06 M6.37 30.58 C11.48 23.9, 17.93 16.53, 29.73 2.57 M8.91 31.32 C16.46 23.55, 21.96 14.86, 33.58 4.95 M8.81 33.29 C16.53 22.94, 26.48 13.93, 31.6 5.9 M13.46 36.66 C15.33 29.88, 22.93 25.76, 35.24 8.58 M11.84 35.6 C19.79 26.35, 28.73 15.75, 35.19 7.86 M16.96 37.6 C21.96 26.56, 30.72 18.13, 38.22 12.72 M15.15 38.6 C19.41 32.44, 25.81 27.22, 38.9 10.95 M17.17 40.23 C26.45 33.67, 33.8 22.27, 39.28 13.38 M18.26 39.89 C22.77 34.67, 29.76 27.32, 40.75 13.46 M22.73 44.06 C29.36 33.43, 36.88 24.17, 45.16 18.62 M21.51 43.61 C26.83 37.32, 34.45 29.93, 43.96 16.55 M25.26 47.95 C30.73 36.24, 38.61 27.08, 48.69 18.95 M24.92 46.54 C33.67 36.03, 42.47 24.91, 47.93 18.79 M27.5 47.93 C34.68 40.44, 44.9 27.99, 50.99 22.97 M27.21 48.12 C34.29 39.92, 41.61 31.65, 49.17 24.04" stroke="#fa5252" stroke-width="0.5" fill="none"></path><path d="M25.43 0.09 C36.8 9.23, 45.24 15.63, 52.67 25.14 M27.99 0.25 C35.25 8.33, 44.78 17.25, 51.36 24.02 M50.67 24.68 C42.37 31.74, 38.56 39.87, 27.87 47.82 M52.72 25.03 C46.84 29.94, 40.17 35.88, 27.11 49.71 M26.13 48.43 C18.33 42.18, 13.56 34.78, 1.65 23.9 M26.28 48.68 C18.31 41.78, 10.16 33.53, -0.24 25.84 M1.04 24.77 C6.22 18.49, 12.63 11.52, 27.03 -0.16 M0.97 25.67 C6.76 17.78, 12.9 12.43, 27.68 0.85" stroke="#000000" stroke-width="1" fill="none"></path></g><g stroke-linecap="round"><g transform="translate(524.7382891729194 113) rotate(0 -44.38643754144198 0.4740770289115517)"><path d="M0.98 -1.06 C-13.9 -1.01, -73.92 0.32, -89 1.01 M0.04 0.99 C-15 1.11, -74.69 1.96, -89.76 2.01" stroke="#000000" stroke-width="1" fill="none"></path></g></g><g stroke-linecap="round"><g transform="translate(576.7382891729194 113) rotate(0 39.51734998896251 0.10240475609907662)"><path d="M0.38 -1.17 C13.7 -0.91, 66.47 1.22, 79.91 1.38 M-0.88 0.82 C12.27 0.73, 65.3 -0.49, 78.92 -0.54" stroke="#000000" stroke-width="1" fill="none"></path></g></g><g stroke-linecap="round" transform="translate(659.4273891928374 157.5) rotate(0 61.5 33.5)"><path d="M0 0 C0 0, 0 0, 0 0 M0 0 C0 0, 0 0, 0 0 M-0.36 6.54 C0.48 4.89, 1.94 3.84, 5.74 -0.26 M-0.25 6.54 C1.25 4.46, 2.85 2.63, 4.6 0.35 M-0.91 12.57 C4.02 8.59, 4.01 6.87, 12.12 0.24 M-0.59 11.85 C3.94 9.01, 7.19 3.88, 11.23 -0.3 M-1.22 17.3 C5.39 10.45, 9.83 6.75, 17.03 -0.02 M-0.23 17.87 C3.02 13.7, 6.68 9.36, 15.49 -0.66 M2.1 23.96 C6.05 19.11, 9.14 9.67, 19.87 1.39 M0.17 23.88 C6.72 18.07, 12.41 11.31, 21.74 0.82 M0.77 31.56 C10.93 19.61, 18.95 7.96, 26.77 0.46 M0.87 30.82 C9.24 19.42, 18.33 9.06, 25.65 0.07 M0.73 35.05 C7.49 25.77, 18.83 15.57, 31.21 1.3 M-0.52 36.53 C8.19 27.51, 14.66 19.8, 31.02 -0.26 M0.02 41.55 C9.44 28.88, 21.71 16.65, 37.29 0.09 M-0.22 42.02 C13.8 26.76, 26.56 11.1, 37.63 -0.74 M-1.04 50.54 C14.32 31.06, 32.59 12.53, 41.09 0.96 M0.69 49.84 C12.35 34.59, 24.28 19.65, 43.4 0.83 M0.85 54.44 C15.93 35.73, 31.45 18.56, 45.57 -0.12 M-0.21 54.8 C12.67 40.56, 23.09 27.59, 48.13 -0.44 M-1.13 62.48 C17.66 38.72, 35.81 18.23, 53.91 0.49 M1 60.1 C16.67 40.5, 35.21 20.29, 53.63 -0.54 M0.76 69.35 C11 53.46, 23.42 37.55, 56.42 2.05 M0.14 68.13 C11.37 52.81, 25.47 39.28, 57.46 -0.45 M4.27 65.27 C18.53 52.55, 27.55 39.05, 63.89 -0.79 M5.09 66.71 C18.18 52.87, 31.05 38.56, 63.07 -0.12 M11.52 66.26 C25.45 52.38, 37.44 36.53, 70.47 1.99 M11.1 67.58 C24.1 51.97, 35.68 37.61, 69.52 -0.33 M17.52 68.58 C32.92 46.42, 50.84 25.72, 75.05 -0.41 M15.99 67.01 C28.43 52.13, 39.73 38.51, 73.66 -0.73 M19.76 66.72 C36.88 50.32, 52.82 31.75, 80.13 0.29 M20.61 68.01 C38.08 47.78, 57.63 27.17, 79.81 0.31 M27.57 65.26 C48.53 44.22, 68.81 16.87, 85.22 -0.68 M27.06 66.29 C47.42 41.87, 68.73 17.83, 85.95 -0.3 M33.05 66.68 C48.69 48.3, 66.27 26.31, 89.66 -1.27 M32.32 66.38 C54.44 40.47, 77.12 14.46, 89.42 -0.26 M36.39 67.34 C54.17 47.92, 69 31.92, 94.05 -0.74 M36.51 67.68 C55.63 44.76, 75.33 23.71, 95.08 0.15 M40.79 65.25 C63.15 42.45, 80.95 19.09, 99.1 0.25 M42.51 66.54 C59.79 47.92, 76.03 29.98, 101.03 0.15 M49.8 68.03 C71.97 41.21, 93.09 15.17, 107.01 -0.53 M48.17 66.27 C66.9 45.8, 85.69 23.07, 106.78 0.51 M54.21 68.73 C72.03 43.28, 93.19 20.14, 112.34 1.02 M52.02 67.26 C70.59 46.34, 87.71 26.62, 110.92 -0.38 M57.42 65.73 C81.78 38.95, 102.97 14.11, 114.72 -0.05 M59.43 67 C81.45 41.09, 102.85 15.25, 116.7 0.32 M62.32 66.62 C84.24 44.6, 103.74 22.05, 121.04 -1.64 M64.31 66.19 C77.42 53.95, 88.92 38.48, 120.96 0.16 M68.67 68.03 C90.48 41.39, 112.66 16.45, 126.26 3.11 M69.29 66.75 C89.16 44.73, 106.65 24.23, 125.78 1.29 M75.96 67.58 C87.38 51.26, 98.2 36.74, 125.48 7.1 M73.41 67.93 C91.64 48.84, 108.42 28.33, 125.39 7.96 M80.8 67.69 C93.97 49.69, 108.39 33.25, 123.34 13.15 M80.33 66.31 C95.93 47.33, 113.04 27.57, 124.34 14.58 M83.79 67.49 C92.94 56.66, 103.71 43.39, 124.91 18.42 M83.96 67.94 C94.73 56.96, 102.38 46.94, 125.22 20.31 M90.87 66.68 C102.55 51, 119.44 34.14, 125.18 26.79 M90.73 66.34 C100.35 54.45, 109.49 43.06, 124.97 27.64 M96.25 65.41 C106.85 56.21, 115.58 44.02, 125.73 33.45 M95.2 66.62 C104.96 53.78, 116.13 41.64, 126.37 33.15 M99.74 68.14 C110.28 58.99, 118.07 48.04, 125.64 36.78 M100.29 67.46 C106.57 59.6, 113.83 51.58, 125.73 39.63 M105.63 67.56 C108.86 63.62, 115.9 58.63, 126.21 47.01 M106.95 67.25 C110.83 60.08, 115.89 54.23, 124.43 44.86 M111.44 69.17 C112.02 64.36, 115.5 59.69, 125.07 50.3 M111.7 66.89 C115.49 62.72, 119.3 57.33, 125.9 49.89 M117.55 67.25 C118.01 65.68, 120.57 63.16, 125.98 56.99 M117.29 66.37 C119 64.54, 120.74 62.08, 124.78 57.35 M121.1 66.87 C122.52 66.52, 123.41 64.71, 125.6 62.48 M121.54 67.4 C123.29 65.81, 124.37 64.54, 125.53 62.76" stroke="#fab005" stroke-width="0.5" fill="none"></path><path d="M1.2 -1.55 C46.34 -0.39, 96.24 -0.17, 123.65 0.51 M0.15 0.81 C26.52 -1.77, 52.77 -0.79, 123.34 -0.53 M123.62 -1.45 C124.02 19.04, 123.82 37.09, 122.96 67.57 M122.83 0.55 C123.09 20.98, 123.35 42.72, 123.88 66.6 M122.77 68.07 C76.75 69.97, 30.43 66.22, -1.06 65.84 M122.48 67.12 C74.71 66.86, 25.14 67.84, 0.36 66.14 M-1.36 67.8 C1.34 39.97, 0.02 12.87, 0.59 1.91 M-0.82 66.6 C-0.05 51.83, -0.04 34.42, -0.66 -0.18" stroke="#000000" stroke-width="1" fill="none"></path></g><g transform="translate(676.9273891928374 178) rotate(0 44 13)"><text x="44" y="18" font-family="Virgil, Segoe UI Emoji" font-size="20px" fill="#000000" text-anchor="middle" style="white-space: pre;" direction="ltr">Valve #2</text></g><g stroke-linecap="round"><g transform="translate(784.4273891928374 186.5) rotate(0 108.61389455273752 1.7857337437430942)"><path d="M-0.93 -1.04 C35.33 -0.65, 181.62 2.31, 218.15 3.05 M0.79 1.03 C36.84 1.56, 181.14 4.57, 217.29 4.61" stroke="#000000" stroke-width="1" fill="none"></path></g></g><g stroke-linecap="round" transform="translate(526.4273891928374 161) rotate(0 26 24.5)"><path d="M-0.09 25.1 C-0.09 25.1, -0.09 25.1, -0.09 25.1 M-0.09 25.1 C-0.09 25.1, -0.09 25.1, -0.09 25.1 M3.01 26.51 C11.27 21.74, 15.32 12.01, 27.03 -0.83 M2.73 27.36 C10.11 18.34, 17.56 10.12, 27.11 -0.27 M5.08 29.18 C11.83 25.62, 17.29 17.6, 30.52 1.78 M6.77 31.09 C10.05 25.24, 15.56 19.46, 28.84 3.49 M7.63 31.31 C16.5 27.76, 20.36 18.14, 31.66 6.38 M8.3 32.7 C14.98 25.08, 21.82 16.96, 33.19 6.33 M13.44 33.63 C19.59 23.52, 31.97 13.69, 35.37 9.85 M12.68 36.31 C19.39 28.01, 26.66 20.34, 34.99 8.41 M15.34 37.5 C22.74 29.43, 31.02 20.77, 38.13 10.06 M14.47 37.95 C23.8 27.15, 32.94 17.25, 39.51 11.44 M18.12 40.99 C27.28 31.12, 35.71 21.3, 40.64 15.49 M17.58 40.49 C24.99 32.58, 30.51 26.24, 41.26 15.21 M20.41 43.04 C27.78 36.3, 34.51 29.56, 44.24 18.35 M21.25 42.59 C27.52 37.23, 32.31 30.2, 44.63 17.45 M24.5 47.6 C29.71 38.07, 36.62 32.72, 48.88 19.21 M24.19 45.64 C32.33 36.83, 42.32 26.22, 46.03 19.33 M26.29 47.71 C34.67 38.42, 41.43 30.72, 48.95 24.91 M26.58 48.69 C32.26 42.66, 37.61 36.13, 49.96 22.12" stroke="#fa5252" stroke-width="0.5" fill="none"></path><path d="M27.26 0.08 C36.28 9.87, 45.32 16.49, 52.78 26.93 M26.42 0.16 C35.49 8.18, 42.45 15.41, 51.62 24.5 M53.02 26.07 C44.61 33.06, 35.84 41.34, 27.33 50.23 M51.9 25.24 C45.63 32.66, 37.6 39.27, 27.4 49.85 M28.93 47.69 C17.26 40.93, 10.13 36.98, -0.3 25.34 M26.65 48.5 C20.91 43.53, 12.75 38.18, 0.68 24.54 M-0.5 25.48 C5.1 19.55, 14.33 11.91, 28.82 0.58 M0.72 25.57 C5.19 18.73, 11.71 13.27, 26.85 -0.73" stroke="#000000" stroke-width="1" fill="none"></path></g><g stroke-linecap="round"><g transform="translate(526.4273891928374 185) rotate(0 -44.86672938277013 0.7250746460074424)"><path d="M0.15 0.05 C-14.54 0.63, -74.22 2.26, -89.09 2.42 M-1.22 -0.97 C-15.97 -0.67, -75.15 0.05, -89.89 0.5" stroke="#000000" stroke-width="1" fill="none"></path></g></g><g stroke-linecap="round"><g transform="translate(578.4273891928374 185) rotate(0 39.50472873195537 0.30032702764083297)"><path d="M0.05 0.29 C13.62 0.48, 67.24 1.11, 80.39 1.31 M-1.38 -0.61 C12.16 -0.81, 65.87 -0.65, 79.65 -0.65" stroke="#000000" stroke-width="1" fill="none"></path></g></g><g stroke-linecap="round" transform="translate(657.5828391828783 231.5) rotate(0 61.49999999999994 33.5)"><path d="M0 0 C0 0, 0 0, 0 0 M0 0 C0 0, 0 0, 0 0 M0.16 6.9 C2.03 3.7, 3.22 2.35, 4.29 1.14 M-0.5 6.28 C1.59 4.17, 3.42 1.99, 5.16 0.36 M-0.85 10.69 C1.84 8.4, 4.7 7.76, 11.24 -0.75 M0.27 11.58 C3.02 9.22, 4.38 7.28, 10.51 0.74 M-0.05 17.19 C3.32 12.46, 10.16 8.78, 16.73 1.24 M0.35 17.72 C6.1 11.89, 10.24 6.27, 15.71 1.28 M-0.74 22.73 C6.41 16.96, 10.28 13.61, 20.75 -1.95 M0.38 23.59 C4.65 18.66, 9.35 12.85, 22.09 -0.67 M-1.07 31.48 C6.99 21.68, 13.09 15.01, 24.81 1.56 M0.38 30.63 C7.02 23.28, 12.64 15.46, 25.95 0.37 M0.49 38.52 C10.85 22.54, 25.02 6.74, 31.52 -1.5 M-1.19 35.97 C5.73 29.29, 12.51 23.23, 31.16 -0.88 M-0.89 41.63 C10.02 30.08, 19.71 16.51, 35.57 2.21 M-0.49 42.71 C12.36 29.71, 22.63 16.19, 36.81 -0.19 M1.72 49.42 C8.56 36.78, 21.2 26.24, 41.16 0.46 M0.72 48.16 C15.8 31.57, 29.69 15.59, 43.42 0.19 M-0.28 53.94 C16.78 37.1, 29.54 21.18, 48.86 -0.64 M0.59 54.71 C11.65 42.73, 21.59 29.81, 46.58 -0.32 M-0.11 62.58 C13.08 47.96, 25.69 32.45, 52.96 -0.81 M0.86 61.87 C15.41 43.41, 30.86 24.81, 53.19 -0.66 M1.11 66.66 C15.45 51.43, 27.14 33.75, 56.37 -1.67 M0.41 67.07 C22.39 40.37, 45.62 13.23, 59.12 0 M5.71 67.54 C19.51 48.96, 35.51 32.3, 63.99 1.1 M5.47 67.94 C20.55 49.64, 34.84 34.22, 63.39 0.27 M9.93 66.88 C31.64 46.43, 48.8 22.81, 69.59 1.64 M10.83 66.77 C28.07 46.74, 46.32 27.35, 67.9 0.65 M16.4 65.08 C33.03 47.57, 48.94 28.34, 73.16 -0.19 M15.14 67.15 C30.14 52.09, 43.41 36.83, 73.54 -0.43 M19.69 67.29 C42.01 42.4, 62.19 18.24, 79.82 1.02 M21.32 68.13 C39.65 46.11, 57.35 26.33, 79.97 -0.54 M27.77 67.2 C48.78 43.86, 68.69 20.16, 85.18 0.13 M26.8 66.22 C41.14 51.02, 55.48 35.03, 85.74 -1.23 M32.84 66.96 C53.38 45.02, 72.85 18.72, 90.2 1.35 M31.13 67.52 C48.84 46.25, 67.77 25.99, 89.99 0.12 M36.7 65.04 C53.57 48.44, 73.74 26.79, 94.58 -1.95 M38.23 67.73 C51.97 50.59, 66.35 34.46, 94.68 0.28 M41.65 68.12 C55.36 54.39, 68.75 38.07, 99.63 0.71 M42.06 66.25 C55.82 53.16, 67.42 37.29, 100.21 0.28 M47.86 66.94 C65.24 46.43, 83.26 30.3, 105.68 0.74 M48.8 66.19 C62.7 49.97, 75.44 35.36, 105.66 -0.57 M52.22 68.2 C67.74 52.48, 79.02 37.83, 110.88 -1.61 M52.54 66.51 C71.64 44.59, 90.97 22.43, 110.46 -0.55 M57.75 66.42 C78.43 44.07, 94.76 25.6, 115.99 -0.66 M59.48 66 C81.12 40.18, 103.76 16.37, 115.91 1.2 M64.44 67.82 C77.83 47.68, 96.59 29.59, 122.49 -1.16 M63.58 67.41 C84.08 43.15, 105.1 19.67, 122.17 -0.93 M70.67 66.19 C83.79 50.36, 95.98 37.36, 125.46 3.38 M68.82 67.47 C82.19 50.12, 97.44 35.3, 125.91 2.74 M76.03 66.79 C91.54 47.86, 109.74 26.64, 125.62 8.01 M74.79 66.97 C92.68 47.99, 109.79 28.07, 125.17 8.78 M78.74 66.16 C97.03 48.33, 112.24 28.28, 126.69 16.19 M78.97 66.81 C95.77 48.67, 113.92 29.46, 125.55 14.64 M86.5 68.08 C95.96 56.49, 105.87 45.08, 126.38 20.21 M84.36 66.09 C100.56 48.31, 115.76 30.37, 125.99 19.29 M89.89 67.39 C101.47 57.06, 109.87 44.71, 125.76 25.6 M89.69 66.14 C100.77 54.96, 110.34 43.11, 124.99 25.78 M97.2 65.89 C104.78 56.29, 112.01 47.25, 126.04 31.69 M95.09 66.61 C105.42 56.26, 115.09 45.6, 126.14 32 M99.87 68.17 C104.74 60.39, 112.02 52.61, 123.41 39.5 M100.3 67.49 C110.67 56.47, 117.89 46.13, 125.84 38.78 M107.28 65.57 C111.23 58.87, 116.99 53.66, 125.76 44.4 M106.36 67.25 C110.48 63.2, 114.74 56.79, 124.78 44.7 M111.56 68.71 C114.08 61.83, 119.9 56.9, 126.86 52.19 M111.1 67.56 C115.48 63.42, 119.39 59.37, 124.95 50.4 M117.34 67.44 C118.28 63.65, 121.53 63.76, 124.73 55.92 M116.34 67.42 C119.44 64.47, 122.08 61.46, 124.82 56.97 M121.67 67.58 C122.97 66.65, 123.07 65.4, 125.46 62.31 M121.74 67.14 C122.85 65.89, 124.56 64.07, 125.65 62.66" stroke="#fab005" stroke-width="0.5" fill="none"></path><path d="M-1.57 -1.1 C29.54 -1.06, 61.43 0.45, 124.65 -1.89 M0.27 0.17 C41.1 0.68, 81.16 1.48, 122.29 0.77 M124.86 -0.07 C122.15 23.15, 121.15 46.88, 122.26 65.26 M122.71 -0.36 C123.37 25.8, 123.88 50.9, 123.17 66.39 M121.77 65.67 C91.9 68.82, 63.23 67.88, -1.22 68.18 M123.07 66.05 C96.65 65.12, 68.27 65.51, 0.33 66.28 M-1.77 67.56 C1.88 41.06, -0.73 17.29, 1.8 -1.41 M-0.49 67.52 C-0.18 40.99, 1.11 16.67, -0.38 0.94" stroke="#000000" stroke-width="1" fill="none"></path></g><g transform="translate(675.5828391828783 252) rotate(0 43.49999999999994 13)"><text x="43.5" y="18" font-family="Virgil, Segoe UI Emoji" font-size="20px" fill="#000000" text-anchor="middle" style="white-space: pre;" direction="ltr">Valve #3</text></g><g stroke-linecap="round"><g transform="translate(782.5828391828782 260.5) rotate(0 109.48086152174972 1.0483742683986748)"><path d="M-0.66 -0.36 C35.58 0.41, 180.81 2.97, 217.28 3.69 M1.19 -1.6 C37.83 -1.09, 183.57 1.31, 219.62 1.93" stroke="#000000" stroke-width="1" fill="none"></path></g></g><g stroke-linecap="round" transform="translate(524.5828391828783 235) rotate(0 26 24.5)"><path d="M-0.09 25.1 C-0.09 25.1, -0.09 25.1, -0.09 25.1 M-0.09 25.1 C-0.09 25.1, -0.09 25.1, -0.09 25.1 M2.17 25.93 C13.12 16.11, 21.81 8.9, 28.71 1 M2.65 28 C8.34 21.37, 14.72 13.21, 26.89 -0.54 M4.39 30.73 C12.5 24.69, 16.56 15.75, 30.15 2.87 M5.66 30.04 C14.13 21.4, 22.05 12.76, 30.02 2.57 M8.02 34.44 C16.8 25.93, 24.42 17.1, 31.41 7.15 M8.45 32.94 C17.17 23.39, 26.55 13.23, 31.82 4.86 M10.44 35.39 C18.94 28.19, 22.09 20.64, 34.55 9.85 M12.43 34.62 C19.81 28.14, 26.21 18.41, 35.91 7.56 M13.65 38.05 C20.34 30.05, 27.77 23.69, 39.71 9.43 M14.98 38.19 C22.47 28.56, 31 20.6, 39.11 10.71 M18.08 41.1 C24.31 31.71, 31.91 21.18, 41.72 12.49 M17.54 40.85 C23.89 34.73, 26.98 29.88, 40.24 13.66 M20.47 41.6 C24.88 35.7, 34.54 30.66, 42.54 18.83 M21.69 42.81 C26.71 37.02, 31.45 30.24, 44.73 16.97 M23.79 47.09 C34.09 34.53, 42.6 26.38, 45.28 18.16 M23.17 46.3 C33.01 36.62, 42.26 25.75, 46.82 19.87 M27.05 47.73 C34.63 42.93, 38.45 33.2, 49.98 23.9 M27.97 48.43 C34.93 39.12, 41.31 30.86, 49.54 22.95" stroke="#fa5252" stroke-width="0.5" fill="none"></path><path d="M25.81 1.15 C32.71 7.26, 36.04 11.78, 52.4 23.04 M26.47 -0.44 C35.48 7.38, 44.14 16.81, 51.18 25.07 M51.3 23.7 C41.34 33.66, 30.6 45.53, 27.64 49.6 M52.03 25.66 C44.5 31.7, 37.78 37.4, 26.02 49.55 M28.14 47.78 C20.93 41.81, 15.47 35.73, -1.33 23.36 M26.12 48.57 C18.45 42.17, 9.93 35.2, -0.37 24.88 M-1.01 24.02 C5.79 21.29, 9.95 15.7, 25.06 0.24 M-0.88 25.46 C6.57 18.57, 14.38 13.22, 26.44 0.58" stroke="#000000" stroke-width="1" fill="none"></path></g><g stroke-linecap="round"><g transform="translate(524.5828391828783 259) rotate(0 -44.465242037880216 1.5137888033502804)"><path d="M-0.72 0.69 C-15.47 1.26, -74.22 2.73, -89.19 3.02 M1.11 0.01 C-13.73 0.29, -75.15 1.37, -90.04 1.41" stroke="#000000" stroke-width="1" fill="none"></path></g></g><g stroke-linecap="round"><g transform="translate(576.5828391828783 259) rotate(0 40.29344288929832 0.022136220196330214)"><path d="M0.69 0.19 C14.25 0.28, 67.71 -0.31, 80.99 -0.14 M-0.4 -0.76 C13.12 -0.5, 67.19 0.23, 80.56 0.8" stroke="#000000" stroke-width="1" fill="none"></path></g></g><g stroke-linecap="round" transform="translate(659.2719392027963 303.5) rotate(0 61.49999999999994 33.5)"><path d="M0 0 C0 0, 0 0, 0 0 M0 0 C0 0, 0 0, 0 0 M-0.95 7.18 C1.53 5.37, 3.02 2.72, 4.76 0.53 M-0.09 6.4 C0.75 4.66, 2.44 2.9, 4.65 0.25 M0.74 11.32 C1.09 9.78, 4.52 6.91, 9.71 1.28 M0.02 12.82 C2.87 9.08, 5.36 5.48, 10.13 -0.4 M0.98 19.36 C4.26 12.65, 9.04 10.21, 14.17 2.27 M-0.03 19.4 C3.18 13.21, 6.75 8.98, 14.94 0.8 M-0.25 22.2 C3.7 17.56, 11.07 13.45, 20.28 -1.49 M1.1 23.48 C7.27 16, 14.08 6.85, 21.76 0.13 M-1.43 31.75 C5.02 24.6, 10.61 17.25, 26.54 1.82 M-0.29 30.56 C8.73 22.12, 15.26 13.04, 27.07 -0.37 M-0.63 35.48 C7.44 26.62, 17.21 12.83, 30.08 -0.76 M-0.99 36.1 C7.71 26.53, 15.16 17.46, 31.45 -0.6 M-1.17 44.48 C10.72 29.95, 22.24 18.7, 37.25 1.25 M0.07 42.07 C13.24 27.73, 27.13 12.51, 37.13 -0.4 M-1.48 49.52 C12.68 32.9, 22.52 22.3, 41 1.68 M0.77 49.25 C8.95 38.42, 17.94 28, 42.21 0.52 M1.62 53.7 C13.25 38.6, 29.59 22.43, 47.81 1.55 M-0.66 54.02 C18.11 33.37, 37.03 12.04, 48.32 0.63 M-0.18 60.32 C18.38 40.2, 39.07 19.01, 54.98 0.93 M0.05 60.47 C16.4 41.7, 33.51 21.96, 52.8 0.63 M-2.02 65.5 C19.74 47.22, 36.16 28.35, 57.57 -1.12 M0.73 67.17 C17.13 47.58, 34.04 27.96, 58.43 -0.46 M5.6 68.26 C19.69 49.3, 35.29 32.19, 65.74 1.26 M5.01 67.43 C17.01 52.5, 28.33 39.46, 63.56 0.74 M11.2 68.81 C29.68 45.59, 47.34 24.03, 67.67 0.63 M9.51 67.82 C21.7 53.49, 33 39.91, 67.84 0.05 M14.77 66.98 C32.36 45.44, 49.71 25.34, 74.86 0.12 M15.15 66.74 C35.48 45.66, 53.92 22.75, 74.41 -0.22 M21.44 68.19 C38.74 48.02, 53.96 28.45, 81.08 1.33 M21.58 66.62 C34.68 50.93, 48.11 37.04, 79.55 0.81 M26.79 67.3 C44.05 42.99, 64.02 23.22, 83.69 0.17 M27.35 65.94 C42.09 50.02, 56.86 32.04, 84.89 0.62 M31.81 68.51 C52.01 43.05, 74.04 19.24, 90.56 -1.26 M31.6 67.29 C46.29 49.59, 61.39 32.38, 89.12 -0.63 M36.19 65.22 C57.65 42.58, 80.59 18.29, 97.42 1.23 M36.29 67.45 C53.6 45.53, 71.82 25.28, 96.12 -0.03 M41.24 67.88 C59.93 46.03, 81.1 21.71, 98.72 1.79 M41.82 67.45 C65.49 40.36, 87.68 14.37, 100.72 0.16 M47.29 67.91 C59.21 49.85, 72.88 38.19, 105.04 0.34 M47.27 66.6 C59.52 53.84, 71.46 39.3, 106.81 0.51 M52.49 65.56 C73.27 43.49, 94.14 20.92, 109.94 -1.42 M52.07 66.62 C71.47 45.54, 89.21 25.34, 111.1 0.55 M58.25 65.75 C72.53 52.17, 82.63 40.89, 114.7 0.46 M58.18 67.62 C69.74 53.41, 82.36 39.95, 116.61 -0.46 M64.1 66.01 C81.15 49.15, 96.24 28.58, 122.45 0.42 M63.78 66.24 C78.8 48.94, 95.03 30.49, 121.64 0.8 M69.04 68.29 C80.94 52.94, 95.5 35.87, 127.02 0.98 M69.49 67.64 C83.34 50.57, 97.25 34.69, 125.43 1.54 M74.44 66.88 C95.45 41.45, 115.59 21, 125.03 10.11 M73.99 67.64 C92.83 45.04, 111.15 23.72, 125.05 8.38 M81.42 68.26 C97.31 48.14, 110.37 28.61, 125.24 13.06 M80.28 66.71 C96.13 46.84, 114.03 27.47, 125.57 15.42 M85.7 67 C99.59 51.41, 111.88 34.92, 123.48 20.8 M85.32 66.08 C93.48 57.45, 101.88 46.96, 125.82 20.83 M90.99 65.6 C103.72 49.51, 118.41 34.34, 124.11 26.39 M90.22 65.78 C101.3 53.65, 113.1 42.29, 124.62 27.41 M95.86 66.4 C101.96 59.86, 106.94 51.75, 124.72 33.57 M95.96 66.71 C102.89 57.08, 112.56 46.91, 126.36 31.37 M99.14 67.43 C109.61 56.91, 117.25 47.91, 127.02 40.68 M101.56 66.71 C107.64 59.12, 114.57 52.51, 124.61 38.44 M106.74 66.29 C108.83 60.78, 113.4 57.81, 125.56 45.24 M105.75 66.59 C113.38 59.2, 121.97 50.17, 125.75 44.63 M112.42 68.79 C114.04 62.64, 119.62 58.67, 125.85 52.09 M110.52 67 C115 61.7, 120.54 56.41, 125.82 50.59 M116.2 65.73 C118.44 64.72, 119.75 62.2, 126.09 57.41 M116.29 66.78 C119.32 63.12, 123.21 59.54, 125.47 57.64 M121.52 66.84 C123.3 65.95, 124.81 64.31, 125.2 62.55 M121.72 67.18 C122.69 65.86, 124.45 64.33, 125.76 62.53" stroke="#fab005" stroke-width="0.5" fill="none"></path><path d="M1.65 -1.89 C30.2 0.21, 57.18 0.34, 123.34 0.61 M-0.71 0.77 C30.94 -1.15, 60.82 0.59, 122.97 -0.15 M122.26 -1.74 C124.26 18.4, 123.17 34.93, 122.28 67.31 M123.17 -0.61 C122.82 19.31, 124 39.96, 122.34 66.08 M121.78 68.18 C77.49 65.79, 33.52 67.27, -1.91 68.59 M123.33 66.28 C97.6 66.03, 70.65 65.52, 0.28 67.81 M1.8 65.59 C1.83 48.34, 0.56 32.58, 1.04 -1.65 M-0.38 67.94 C0.24 52.26, 0.27 37.68, 0.3 1" stroke="#000000" stroke-width="1" fill="none"></path></g><g transform="translate(678.7719392027963 324) rotate(0 41.99999999999994 13)"><text x="42" y="18" font-family="Virgil, Segoe UI Emoji" font-size="20px" fill="#000000" text-anchor="middle" style="white-space: pre;" direction="ltr">Valve #4</text></g><g stroke-linecap="round"><g transform="translate(784.2719392027961 332.5) rotate(0 108.55115081742406 1.1376001649815635)"><path d="M-1.14 0.38 C35.21 0.52, 181.66 1.35, 218.24 1.82 M0.47 -0.47 C36.66 -0.31, 181.21 1.89, 217.42 2.74" stroke="#000000" stroke-width="1" fill="none"></path></g></g><g stroke-linecap="round" transform="translate(526.2719392027963 307) rotate(0 26 24.5)"><path d="M-0.09 25.1 C-0.09 25.1, -0.09 25.1, -0.09 25.1 M-0.09 25.1 C-0.09 25.1, -0.09 25.1, -0.09 25.1 M4.43 28.92 C6.66 21.09, 13.44 15.13, 27.76 -1.26 M2.61 27.38 C10.65 17.53, 19.32 8.02, 27.4 0.14 M6.53 30.04 C14.4 20.2, 23.69 11.58, 28.95 4.25 M6.41 29.74 C12.47 22.02, 18.7 14.41, 30.3 3.42 M7.79 34.32 C18.2 21.8, 27.58 12.56, 32.51 5.37 M8.2 32.03 C15.52 24.03, 23.8 15.52, 32.49 6.24 M10.93 37.02 C18.94 27.31, 23.78 21.72, 33.66 9.12 M12.29 34.73 C20.66 25.8, 30.45 14.21, 35.52 8.26 M16.1 36.6 C20.98 32.45, 27.15 25.89, 38.57 10.1 M15.49 37.88 C21.74 31.49, 27.09 23.35, 38.75 10.43 M18.75 38.9 C22.8 31.83, 30.47 25.25, 40.99 16.19 M17.27 40.07 C22.93 34.44, 28.15 28.6, 40.05 13.43 M19.58 45.25 C24.92 37.62, 32.55 32.35, 42.69 17.58 M21.77 43.38 C28.82 36.1, 33.99 27.96, 44.5 17.6 M22.32 44.57 C31.01 38.35, 36.46 31.95, 47.44 19.51 M23.86 46.28 C32.65 35.45, 42.53 25.45, 46.53 20.37 M27.67 49.56 C36.03 39.74, 44.91 31.78, 48.82 24.03 M27.24 48.61 C31.78 44.36, 36.87 38.81, 49.93 22.98" stroke="#fa5252" stroke-width="0.5" fill="none"></path><path d="M27.4 -1.96 C36.85 9.82, 46.49 17.98, 51.12 25.55 M26.18 0.07 C33.85 5.55, 38.49 10.96, 51.35 24.59 M52.64 25.6 C44.62 30.81, 38.94 37.9, 28.32 47.7 M51.02 25.55 C43.31 31.79, 35.08 40.64, 26.39 49.1 M25.67 47.36 C20.55 41.15, 15.55 35.57, -0.87 24.03 M26.63 48.88 C17.3 41.48, 10.01 32.71, -0.49 25.07 M-1.94 25.24 C9.72 16.09, 19.58 3.54, 27.92 -0.17 M-0.56 25.58 C5.89 18.59, 14.92 11.09, 26.29 0.29" stroke="#000000" stroke-width="1" fill="none"></path></g><g stroke-linecap="round"><g transform="translate(526.2719392027963 331) rotate(0 -44.801326949791985 0.5256653121068666)"><path d="M0.24 -1.18 C-14.42 -0.87, -74.18 1.8, -89.06 2.23 M-1.1 0.82 C-15.78 0.7, -75.09 -0.05, -89.84 0.21" stroke="#000000" stroke-width="1" fill="none"></path></g></g><g stroke-linecap="round"><g transform="translate(578.2719392027963 331) rotate(0 39.51208679005504 0.2957936165493038)"><path d="M-1.18 0.32 C12.13 0.51, 66.78 1.34, 80.2 1.36 M0.4 -0.56 C13.53 -0.77, 66.38 -0.91, 79.36 -0.57" stroke="#000000" stroke-width="1" fill="none"></path></g></g><g stroke-linecap="round" transform="translate(520.7382891729194 379.5) rotate(0 81.49999999999994 32)"><path d="M0 0 C0 0, 0 0, 0 0 M0 0 C0 0, 0 0, 0 0 M-1.04 5.87 C1.15 3.67, 3.79 1.69, 5.08 0.41 M-0.38 6.53 C1.27 4.76, 2.86 2.71, 4.93 0.26 M1.41 11.62 C1.97 10.23, 4.81 5.6, 10.15 1.04 M-0.59 11.79 C2.66 9.37, 5.42 6.24, 10.33 -0.31 M1.63 17.81 C4.78 12.97, 5.63 10.93, 14.9 -0.17 M-0.31 17.62 C3.46 14.32, 6.32 10, 15.72 1.03 M0.34 25.55 C8.91 16.13, 15.23 8.57, 20.69 1.78 M-0.72 23.64 C5 19.19, 9.88 12.63, 22.19 0.46 M1.37 30.7 C6.77 20.92, 12.96 13.44, 25.86 0.4 M0.44 30.6 C10.97 19.51, 20.12 6.16, 27.2 0.04 M-0.55 38.47 C7.43 29.08, 14.95 17.6, 33.57 -1.48 M0.29 36.47 C7.98 26.96, 15.57 18.73, 32.15 0.78 M0.34 41.65 C7.5 34.16, 17.31 23.29, 36.28 -1.26 M0.68 41.68 C14.23 27.23, 27.24 10.29, 37.11 -0.44 M0.81 47.07 C14.49 29.71, 31.6 13.11, 42.92 1.49 M0.29 48.26 C13.16 32.56, 27.93 18.21, 42.16 0.04 M-0.93 54.37 C16.7 39.61, 27.85 19.36, 47.5 -0.78 M-0.7 55.48 C14.22 36.69, 29.4 20.31, 48.17 -0.38 M-0.62 62.22 C15.85 41.44, 35.74 20.09, 52.22 -1.53 M0.21 60.9 C18.91 38.74, 39.47 17.7, 52.16 0.34 M0.56 64.88 C14.88 49.74, 25.84 35.94, 60.1 2.02 M2.43 65.68 C18.37 47.21, 32.9 28.22, 58.03 -0.16 M8.53 66.32 C28.21 41.91, 46.52 17.16, 62.11 -0.97 M7.13 65.61 C21.41 45.81, 38.33 28.68, 63.98 0.32 M11.61 63.45 C32.19 41.89, 51.95 21.58, 69.8 -0.87 M12.65 65.02 C33.1 41.37, 54.97 16.92, 69.23 -0.56 M15.62 64.12 C35.07 45.6, 51.5 28.63, 74.42 -1.42 M17.85 65.73 C35.12 43.44, 53.99 23.32, 75.38 -0.74 M23.1 65.8 C45.27 41.88, 66.2 17.46, 79.54 -1.64 M23.41 64.45 C42.32 43.15, 60.53 20.7, 79.21 -0.78 M29.89 65.71 C46.99 43.17, 65.54 23.36, 84.19 -1.67 M28.75 65.74 C45.78 44.42, 64.18 23.54, 86.01 -0.99 M32.3 66.9 C49.04 45.22, 66.47 28.85, 91.44 -0.67 M33.23 64.95 C56.46 39.81, 79.05 13.7, 90.34 -0.42 M39.71 64.45 C51.94 51.52, 66.3 34.86, 95.61 1.31 M39.06 65.15 C51.41 50.73, 63.54 36.64, 95.42 0.02 M45.69 63.52 C62.21 43.3, 84.79 20.03, 98.8 1.46 M44.55 64.09 C58.4 49.88, 70.89 33.4, 99.87 0.53 M48.63 65.52 C63.71 48.34, 73.52 33.74, 106.09 0.34 M48.93 65.09 C71.09 39.86, 93.37 14.82, 107.08 -0.67 M54.24 66.99 C71.12 44.33, 90.32 22.94, 110.11 0.01 M55.04 64.79 C76.79 39.78, 97.98 14.11, 111.98 -0.36 M59.4 65.93 C75.34 45.45, 92.07 28.7, 117.55 -1.15 M59.4 66.28 C76.4 47.26, 92.22 26.65, 115.71 1.33 M64.11 64.22 C77.96 49.81, 93.76 34.71, 121.04 -1.99 M64.28 66.32 C80.59 47.38, 96.32 29.61, 121.74 0.11 M69.94 66.47 C88.75 43.4, 109.68 19.22, 127.08 -0.23 M70.4 65.01 C92.87 39.9, 114.88 13.67, 127.9 0.74 M76.67 66.16 C90.92 50.25, 103.74 32.71, 134.47 -1.64 M75.74 64.77 C93.37 45.54, 110.35 23.69, 133.12 0.71 M81.37 63.76 C91.59 51.86, 105.51 38.01, 138.98 2.14 M80.82 65.19 C98.27 44.58, 117.09 23.8, 138.18 1.15 M87.11 64.84 C106.51 39.33, 132.73 14.89, 144.45 -0.28 M85.51 66.09 C100.45 50.12, 114.81 32.94, 143.02 -0.2 M90 66.23 C104.49 51.32, 115.22 36.09, 147.41 2.05 M92.39 64.33 C103.58 52.03, 116.63 37.27, 147.62 -0.04 M95.85 66.1 C117.74 39.43, 138.03 14.26, 152.22 0.58 M97.53 64.83 C111.08 49.51, 123.64 33.33, 153.24 -0.63 M103.3 66.13 C116.5 46.66, 133.76 29.41, 159.69 1.39 M101.79 65.5 C114.75 50.74, 126.91 35.71, 159.24 1.19 M108.46 65.59 C118.82 51.07, 132.59 37, 165.55 0.02 M107.68 66.13 C127.83 42.28, 146.81 19.5, 163.8 -0.3 M111.98 63.51 C129.38 43.71, 148.19 23.94, 162.45 6.67 M112.61 65.39 C124.7 52.63, 136.39 38.44, 164.04 6.24 M119.72 64.77 C127.65 56.35, 137.97 43.78, 162.88 10.7 M117.74 65.71 C129.74 51.56, 140.55 40.07, 163.15 12.54 M121.88 66.24 C138.67 49.41, 151.36 34.37, 162.7 17.9 M123.31 64.27 C134.8 51.18, 148.54 36.25, 164.12 18.8 M129.58 66.91 C138.47 50.82, 153.25 37.98, 164.84 23.25 M129.39 65.9 C139.67 53.84, 148.76 43.01, 163.62 25.29 M134.06 66 C145.71 51.5, 158.84 37.7, 163.93 29.14 M133.28 66.03 C142.02 57, 147.18 49.62, 162.8 31.37 M139.21 65.1 C146.08 57.25, 152.83 49.22, 164.78 36.16 M140.23 65.62 C145.79 57.49, 152.65 48.82, 163.98 37.06 M144.76 66.28 C153.45 54.99, 159.79 49.65, 162.24 41.54 M144.82 64.11 C152.31 56.15, 159.74 47.17, 164.7 42.34 M150.92 66.24 C155.65 61.24, 156.45 55.77, 165.18 49.48 M149.75 64.37 C155.11 60.35, 159.42 54.54, 163.86 50.27 M156.76 65.89 C159.36 60.97, 161.98 57.4, 163.3 54.44 M155.27 65.37 C158.73 61.46, 161.2 59.01, 164.25 54.86 M160.44 65.76 C161.02 64.06, 162.03 63, 164.28 61.5 M160.72 65.56 C161.72 63.95, 162.71 62.62, 163.81 61.47" stroke="#7950f2" stroke-width="0.5" fill="none"></path><path d="M0.7 0.44 C44.59 1.06, 88.46 -0.31, 162.67 0.98 M-0.31 -0.72 C54.97 1.81, 111.33 1.91, 163.19 -0.03 M161.92 -0.75 C162.46 20.49, 161.45 42.88, 164.13 65.82 M163.45 -0.14 C163.3 20.23, 162.21 37.91, 163.39 64.29 M161.37 63.74 C124.89 66.75, 85.36 63.32, -1.17 62.34 M162.87 64.11 C99.15 63.52, 35.13 62.23, 0.52 63.37 M0.09 62.07 C-0.46 48, 0.2 33.04, -0.56 1.2 M0.96 64.17 C-0.31 51.11, -0.66 37.36, -0.71 0.02" stroke="#000000" stroke-width="1" fill="none"></path></g><g transform="translate(522.7382891729194 400) rotate(0 78.5 13)"><text x="78.5" y="18" font-family="Virgil, Segoe UI Emoji" font-size="20px" fill="#000000" text-anchor="middle" style="white-space: pre;" direction="ltr">Servo de 25KG</text></g><g stroke-linecap="round"><g transform="translate(438.95063413453283 408.807450167546) rotate(0 40.16111115813254 -0.11095528266855581)"><path d="M-0.79 -0.1 C12.7 -0.26, 67.25 -0.35, 81.11 -0.21 M1 -1.19 C14.3 -1.27, 66.57 0.41, 80.11 0.97" stroke="#000000" stroke-width="1" fill="none"></path></g></g><g stroke-linecap="round" transform="translate(766.7382891729194 383) rotate(0 81.5 32)"><path d="M0 0 C0 0, 0 0, 0 0 M0 0 C0 0, 0 0, 0 0 M-0.65 6.79 C1.47 4.69, 3.61 3.34, 5.43 1.03 M-0.57 6.05 C1.41 4.71, 2.86 3.04, 4.78 0.46 M-0.77 10.65 C1.06 10.65, 5.61 7.38, 9.17 -1.27 M0.24 11.57 C4.11 8.88, 6.73 4.01, 10.28 -0.08 M0.61 18.54 C7.21 11.25, 11.74 3.77, 17.12 -0.51 M0.39 18.78 C6.08 11.81, 9.67 5.9, 15.86 1.11 M-1.02 24.12 C7.76 15.1, 12.67 8.55, 22.22 0.33 M-0.52 23.89 C6.34 17.64, 10.89 12.3, 21.71 0.6 M0.9 30.45 C10.58 19.99, 16.23 10.23, 27.78 0.23 M-0.72 30.3 C5.23 23.85, 12.42 17.27, 26.01 0.45 M1.24 36.85 C10.57 25.47, 17.62 17.5, 31.34 -1.45 M0.68 37.44 C10.79 25.07, 20.93 14.34, 31.25 0.47 M1.08 42.71 C9.25 30.33, 20.22 21.85, 35.18 -1.36 M0.64 42.97 C6.86 33.14, 15.57 24.63, 37.84 0.3 M-2.07 47.65 C13.8 35.59, 26.29 17.75, 43.68 -0.37 M-0.77 49.15 C16.19 28.74, 33.26 10.04, 42.29 -0.57 M-1.61 56.08 C16.44 37.02, 30.62 22.19, 46.22 0.36 M1.07 55.56 C14.62 38.9, 29.6 22.15, 46.87 -0.71 M1.06 61.15 C11.64 48.22, 23.89 33.63, 54.54 -0.74 M-0.9 61.26 C12.61 46.67, 24.66 32.7, 53.86 -0.7 M3.2 67.03 C17.56 47.21, 35.23 24.54, 57.61 -1.81 M2.05 65.25 C18.13 46.78, 33.74 27.48, 57.19 0.93 M7.64 64.85 C17.32 49.56, 30.07 35.45, 63.02 -1.66 M6.1 64.62 C27.03 42.46, 45.89 19.25, 64.64 -0.23 M12.24 65.62 C30.4 43.81, 48.24 22.74, 67.87 0.12 M13.23 65.58 C33.12 41.3, 51.79 18.37, 69.52 -0.38 M19.32 64.02 C28.88 51.59, 39.14 38.77, 76.08 -1.03 M17.41 65.53 C31.67 47.95, 46.8 31.58, 74.86 0.49 M21.02 66.78 C38.84 45.7, 54.11 26.67, 81.34 1.32 M22.81 65.6 C40.08 47.15, 55.09 28.35, 79.13 0.71 M26.25 64.61 C46.01 46.45, 61.26 27.78, 84.44 0.41 M27.52 64.72 C41.48 49.94, 54.57 34.2, 84.36 -1.03 M34.03 64.02 C46.99 49.77, 60.07 33.62, 88.17 0.17 M33.74 65.71 C47.4 50.34, 59.19 35.11, 89.91 0.41 M40.34 67.24 C56.21 47.46, 73.74 26.78, 94.67 -0.89 M39.44 65.31 C50.08 51.16, 63.47 37.99, 96.58 0.64 M43.56 64.05 C66.95 40.01, 89.97 13.17, 100.32 -1.79 M44.58 64.24 C64.46 41.26, 85.08 16.32, 100.35 -0.14 M47.3 63.71 C66.59 48.06, 80.59 27.69, 105.13 0.74 M48.78 65.3 C60.74 52.36, 71.57 38.88, 106.54 -1.14 M53.1 67.53 C68.28 49.05, 85.49 29.36, 111.57 0.19 M54.84 66.14 C67.95 48.56, 81.85 32.29, 111.52 -0.88 M58.64 65.01 C82.32 39.78, 102.73 16.36, 117.35 0.88 M59.73 65.6 C79.54 43.7, 97.73 21.51, 116.21 -0.39 M63.86 66.02 C81.07 46.4, 98.8 26.01, 121.51 -1.96 M65.56 66.03 C76.87 51.69, 87.98 38.4, 121.09 -0.88 M71.71 65.33 C89.43 41.89, 111.58 20.4, 126.63 2.03 M71.08 66.05 C84.07 48.48, 98.98 33.27, 127.12 0.55 M74.96 66.56 C91.36 50.87, 106.03 32.72, 131.52 -1.13 M75.43 64.69 C97.28 41.3, 116.9 17.02, 133.31 -0.27 M81.65 66.02 C97.53 47.8, 111.87 28.86, 138.12 2.18 M80.23 65.38 C103.76 39.13, 125.01 14.33, 138.41 -0.51 M85.93 64.6 C101.53 48.35, 116.19 35.42, 144.83 0.99 M85.38 66.06 C101.12 47.36, 115.84 31.18, 143.05 -0.3 M93.43 63.64 C113.28 39.49, 136.57 14.81, 149.44 -0.29 M91.16 65.22 C102.61 52.25, 114.66 37.86, 147.49 -0.62 M96.15 64.8 C109.86 51.1, 124.16 33.66, 154.46 -2.11 M95.95 65.98 C118.97 40.07, 142.3 14.03, 153.75 0.71 M101.83 65.93 C120.5 43.11, 137.64 23.04, 158.02 2.2 M102.42 66.12 C121.41 43.4, 139.38 21.23, 159.35 1.12 M108.8 64.99 C121.69 51.07, 133.12 32.97, 162.59 -1 M107.24 66.19 C122.59 47.36, 138.1 29.96, 162.79 0.08 M111.42 63.83 C126.27 53.02, 134.59 41.79, 163.2 5.23 M113.21 65.52 C132.05 43.86, 149.87 21.12, 162.68 6.25 M118.87 64.18 C134.69 48.32, 148.97 32.53, 164.68 10.75 M118.98 66.34 C134.92 45.1, 154.2 25.43, 163.64 11.87 M124.61 63.44 C130.53 56.47, 140.98 43.05, 163.35 17.25 M123.26 65.79 C138.7 47.69, 154.38 29.14, 162.97 19.97 M129.17 66.6 C138.13 56.63, 144.43 47.64, 165.04 24.88 M128.47 66 C135.86 55.61, 145.24 47.53, 163.36 25.13 M133.61 66.08 C142.14 57.9, 148.7 48.51, 163.93 32.11 M134.95 64.18 C143.51 54.63, 153.4 42.77, 164.6 31.57 M138.32 65.64 C147.9 57.98, 153.97 46.88, 163.29 36.38 M138.62 64.63 C145.7 57.33, 151.59 49.84, 163.11 37.92 M144.44 64.23 C151.53 58.35, 155.57 55.17, 165.62 42.16 M145.21 64.86 C148.06 59.54, 153.95 55.23, 162.93 43.55 M148.74 63.88 C155.75 62.12, 159.45 55.06, 162.82 49.17 M149.92 65.6 C154.7 60.54, 160.29 53.27, 164.63 48.92 M156.45 65.36 C157.99 62.49, 160.26 57.3, 164.61 56.3 M155.57 64.93 C156.79 62.49, 159.38 60.87, 164.62 54.61 M160.05 65.27 C161.65 64.66, 162.01 63.48, 163.56 61.32 M160.5 65.55 C161.9 64.15, 162.69 62.64, 163.91 61.67" stroke="#7950f2" stroke-width="0.5" fill="none"></path><path d="M-0.16 -1.12 C61.05 0.57, 117.03 0.35, 161.41 -0.82 M-0.71 0.14 C56.17 -0.53, 113.13 -2.1, 163.29 0.48 M163.32 0.63 C162.35 12.04, 162.52 27.16, 163.02 62.65 M162.08 -0.4 C163.02 24.63, 163.49 48.39, 162.56 63.37 M164.74 62.39 C101.46 62.59, 41.94 64.98, 0.86 63.4 M163.73 63.89 C111.71 66.1, 59.01 65.21, -0.04 63.99 M-1.84 64.23 C-0.43 49.76, 1.91 31.53, 1.11 0.17 M0.02 63.24 C0.16 43.75, -0.63 21.42, -0.83 -0.26" stroke="#000000" stroke-width="1" fill="none"></path></g><g transform="translate(768.7382891729194 403.5) rotate(0 78.5 13)"><text x="78.5" y="18" font-family="Virgil, Segoe UI Emoji" font-size="20px" fill="#000000" text-anchor="middle" style="white-space: pre;" direction="ltr">Servo de 25KG</text></g><g stroke-linecap="round"><g transform="translate(686.6838249571249 410.577839379916) rotate(0 38.45416756421798 0.8157290827715542)"><path d="M-0.67 1.18 C12.27 1.23, 64.56 0.43, 77.58 0.23 M1.18 0.75 C14 0.95, 64.17 1.4, 76.77 1.4" stroke="#000000" stroke-width="1" fill="none"></path></g></g><g stroke-linecap="round"><g transform="translate(931.6838249571249 412.327839379916) rotate(0 32.42158062079909 -0.31255243221448836)"><path d="M-0.12 0.37 C10.8 -0.02, 55.63 -0.66, 66.49 -1.09 M-1.64 -0.49 C9.1 -0.16, 54.39 0.6, 65.91 0.44" stroke="#000000" stroke-width="1" fill="none"></path></g></g><g stroke-linecap="round" transform="translate(520.2742125525791 459.25) rotate(0 81.49999999999994 32)"><path d="M0 0 C0 0, 0 0, 0 0 M0 0 C0 0, 0 0, 0 0 M-0.74 7.13 C1.51 4.27, 3.51 2.46, 5.04 0.86 M-0.13 6.31 C1.88 4.15, 3.72 1.7, 4.93 0.54 M-0.56 11.16 C3.94 9.32, 5.33 3.68, 9.53 0.9 M-0.58 12.68 C4.25 8.41, 7.59 4.4, 10.37 0.16 M-1.58 18.68 C2.61 11.8, 9.26 9.31, 15.93 1.65 M0.26 17.6 C4.95 11.79, 11.2 5.96, 16.49 0.6 M0.15 22.38 C5.1 15.7, 13.56 12.19, 20.23 -0.62 M1.2 23.26 C5.57 17.98, 11.98 9.75, 20.56 0.09 M-0.8 31.52 C11.74 17.52, 20.27 7.68, 24.68 2.19 M0.2 31.06 C8.06 19.17, 18.6 9.05, 26.28 -0.27 M-0.65 36.89 C9.81 23.07, 21.19 14.31, 30.4 -0.35 M0.12 36.42 C6.78 27.85, 14.43 19.93, 31.37 0.37 M1.32 41.04 C13.75 28.11, 25.37 14.57, 37.67 1.21 M0.6 42.1 C14.31 26.75, 28.53 9.1, 36.26 -0.31 M-1.29 48.66 C12.2 33.17, 29.65 16.74, 41.14 -1.7 M0.2 49.41 C13.7 31.39, 28.17 15.56, 43.46 -0.94 M0.41 53.38 C15.96 38.69, 30.78 21.87, 46.36 -1.52 M1.04 53.88 C18.16 34.35, 35.46 14.01, 48.34 0.55 M-0.72 59.97 C20.55 38.48, 37.14 18.01, 52.99 -0.47 M-0.39 60.19 C12.96 45.16, 25.72 31.1, 52.47 -0.21 M0.57 64.94 C22.24 41.38, 46.52 15.6, 59.38 -0.41 M1.37 65.63 C14.22 50.37, 27.67 35.36, 58.38 0.98 M6.52 66.63 C21.47 52.11, 33.16 34.84, 65.71 -0.69 M7.61 65 C21.47 47.24, 37.91 30.83, 62.94 -0.23 M11.67 64.41 C31.27 41.13, 51.94 18.44, 70.59 -0.05 M12.86 64.63 C23.93 50.95, 36.29 37.62, 68.12 0.24 M17.9 64.78 C29.98 52.97, 39.78 37.04, 74.21 1.47 M18.2 65.25 C38.07 43.54, 56.83 19.13, 74.32 -0.2 M21.7 63.92 C34.54 48.31, 48.99 34.34, 78.99 0.75 M22.66 65.39 C39.96 44.62, 57.41 24.99, 79.21 0.18 M26.74 65.93 C43.68 47.49, 62.97 27.21, 84.62 1.61 M27.99 64.44 C46.89 44.28, 63.93 24.09, 84.98 0.3 M35.03 64.84 C46.75 48.58, 60.7 35.45, 88.8 1.02 M34 65.44 C52.93 45.44, 69.06 23.82, 89.21 -0.74 M39.52 66.85 C57.39 42.25, 76.21 22.89, 94.24 -0.83 M39.39 66.15 C52.8 48.22, 68.21 31.41, 96.16 -0.75 M43.22 64.34 C62.25 44.75, 80.01 26.6, 101.41 1.61 M45.02 65.88 C64.55 39.89, 85.59 16.51, 101.58 0.51 M47.86 66.12 C65.08 46.9, 83.34 28.7, 107.56 1.39 M48.76 64.54 C64.98 46.34, 83.38 26.09, 106.04 0.24 M52.34 64.18 C69.23 51.08, 84 31.52, 111.41 1.16 M54.1 66.2 C73.06 42.44, 93.57 19.86, 111.71 -0.42 M60.62 64.14 C70.68 50.85, 85.17 37.32, 115.6 0.08 M60.33 64.38 C73.35 49.41, 87.28 34.5, 117.04 1.22 M65.64 67.64 C76.14 52.1, 93.58 33.42, 122.58 0.14 M64.51 65.19 C83.53 44.95, 101.68 23.47, 122.86 0.68 M71.81 67.14 C83.06 50.14, 99.04 31.58, 126.55 0.6 M70.26 65.02 C89.45 43.7, 108.98 20.87, 126.45 -0.55 M75.59 64.11 C88.32 48.89, 101.21 35.06, 131.88 0.81 M76.45 65.51 C92.26 46.14, 109.24 28.65, 132.22 0.65 M80.64 67.12 C95.24 49.35, 106.42 37.57, 137.79 -1.62 M80.61 64.42 C97.93 45.08, 116.58 23.81, 138.5 0.05 M86.47 66 C107.19 42.21, 128.15 20.58, 141.44 -0.73 M85.67 64.65 C98.22 50.87, 110.71 36.79, 142.88 0.91 M91.52 65.93 C105.69 51.01, 116.83 34.25, 146.57 -0.08 M91.34 65.1 C110.56 42.08, 130.4 21.55, 148.99 0.99 M97.79 65.58 C117.02 42.71, 137.12 16.91, 154.61 1.41 M96.85 65.7 C111.43 49.55, 125.69 31.33, 153.84 -0.54 M102.01 63.22 C122.04 45.18, 136.79 21.22, 157.31 -0.47 M102.33 64.22 C117.54 48.03, 132.95 30.25, 158.62 -0.17 M108.22 66.88 C131.46 39.26, 152.26 13.86, 163.25 -0.3 M107.57 65.34 C123.28 46.81, 140.23 28.97, 163.34 -0.33 M114.91 64.45 C132.38 43.99, 150.86 19.81, 163.74 6.11 M113.35 65.49 C131.79 43.02, 150.25 22.49, 163.08 6.52 M119.64 65.79 C136.58 45.07, 153.13 24.8, 163.88 14.23 M118.29 65.86 C133.89 46.87, 150 28.21, 163.01 13.29 M122.16 64.89 C138.59 46.16, 155.03 27.14, 161.97 20.08 M124.1 65.25 C132.69 55.59, 139.28 46.27, 164.2 18.28 M129.08 65.97 C143.54 50.21, 155.66 34.11, 165.26 25.02 M128.42 65.12 C138.76 55.05, 148.11 43.31, 163.41 24.8 M132.92 65.63 C142.86 57.27, 147.12 49.79, 162.57 29.92 M134.15 64.41 C145.61 50.58, 157.61 37.83, 163.99 30.17 M140.8 66.93 C147.27 53.54, 155.81 44.77, 162.79 37.98 M140.23 64.58 C143.66 60.04, 149.29 54.46, 164.49 37.35 M145.52 65.57 C151.23 60.23, 155.53 50.95, 162.74 41.16 M145 64.48 C148.13 60.84, 153.54 56.77, 164.78 42.14 M150.22 63.97 C154.32 58.54, 158.67 53.72, 163.08 50.54 M148.94 65.32 C153.58 61.51, 157.14 56.24, 164.1 50.4 M155.5 65.26 C158.31 61.59, 161.17 59.98, 163.25 55.17 M155.87 65.36 C158.5 61.84, 161.93 57.32, 163.88 55.51 M160.37 65.05 C162.13 64.18, 162.65 62.57, 163.82 61.23 M160.55 65.49 C161.7 63.64, 163.19 62.21, 163.85 61.74" stroke="#7950f2" stroke-width="0.5" fill="none"></path><path d="M-0.62 0.63 C37.75 0.22, 76.75 -1.03, 161.94 -0.04 M0.84 0.39 C64.12 -2.4, 127.44 -1.09, 163.38 0.43 M163.31 1.99 C161.23 18.37, 164.64 36.06, 161.54 63.9 M162.17 0.82 C162.86 19.99, 161.89 41.39, 162.7 63.9 M161.44 65.25 C98.25 64.02, 34.62 63, -2 64.26 M163.2 64.52 C112.59 62.43, 61.73 62.26, -0.32 63.42 M-1.25 63.3 C2.14 37.95, 1.05 14.53, 0.85 1.57 M0.21 64.46 C-0.91 46.2, 0.33 29.78, 0.87 -0.91" stroke="#000000" stroke-width="1" fill="none"></path></g><g transform="translate(522.2742125525791 479.75) rotate(0 78.5 13)"><text x="78.5" y="18" font-family="Virgil, Segoe UI Emoji" font-size="20px" fill="#000000" text-anchor="middle" style="white-space: pre;" direction="ltr">Servo de 25KG</text></g><g stroke-linecap="round"><g transform="translate(438.48655751419244 488.557450167546) rotate(0 40.65962634890798 0.46292856227830725)"><path d="M0.38 -0.69 C13.9 -0.65, 68.69 -0.25, 82.2 -0.17 M-0.89 1.57 C12.47 1.79, 68.16 1.17, 81.78 1.04" stroke="#000000" stroke-width="1" fill="none"></path></g></g><g stroke-linecap="round" transform="translate(766.2742125525792 462.75) rotate(0 81.5 32)"><path d="M0 0 C0 0, 0 0, 0 0 M0 0 C0 0, 0 0, 0 0 M-0.1 6.19 C1.58 5.02, 2.71 4.25, 4.92 0.29 M-0.13 6.25 C1.55 4.33, 3.42 2.49, 5.37 0.23 M1.33 10.47 C2.42 7.8, 6.53 6.2, 9.04 0.34 M0.45 12.56 C2.47 9.16, 4.65 6.83, 10.99 -0.03 M-1.46 18.67 C4.93 14.77, 8.33 11.31, 15.17 -0.44 M-0.53 18.77 C5.43 13.25, 10.96 5.95, 15.8 1.21 M-1.39 26.05 C8.02 16.03, 12.27 9.7, 20.78 0.16 M1.12 23.68 C8.29 14.04, 17.15 6.17, 21.04 -0.4 M-1.2 30.08 C7.47 20.9, 15.38 15.65, 28.23 1.13 M-0.58 30.91 C8.14 21.09, 16.06 11.73, 25.79 -0.34 M-1.94 36.72 C10.64 25.15, 17.51 14.88, 32.01 1.58 M-0.5 36.8 C11.09 23.99, 22.07 12.23, 31.37 0.52 M-0.57 44.09 C12.89 27.82, 27.8 13.49, 37.2 0.71 M0.62 42.87 C12.02 27.22, 25.16 13.52, 37.03 0.13 M0.24 50.68 C10.33 36.03, 18.98 26.29, 40.9 1.64 M-0.78 48.15 C13.81 33.94, 27.18 16.77, 42.22 -0.81 M0.78 55.88 C15.46 36.5, 27.84 22.52, 47.05 -0.66 M0.37 53.96 C18.72 34.94, 36.6 14.24, 48.23 -0.71 M-0.78 59.95 C15.25 44.24, 28.02 27.23, 51.85 0.45 M-0.52 60.01 C14.8 44.72, 28.03 30.35, 52.37 -1.06 M2.29 66.3 C15.02 51.03, 28.55 32.69, 58.6 -0.79 M1.85 64.91 C16.56 48.42, 32.06 30.27, 57.69 -0.32 M8.13 65.44 C22.14 47.87, 39.07 26.12, 63.09 1.31 M6.27 66.27 C29.78 39.28, 51.55 15.07, 63.16 0.06 M11.81 63.85 C27.57 50.08, 42.37 29.09, 68.47 -0.26 M11.42 65.8 C31.47 41.65, 52.34 18.64, 69.33 -0.22 M18.71 63.83 C35.77 43.43, 56.74 23.02, 74.63 -1.29 M17.99 65.29 C38.62 39.36, 61.68 13.44, 74.54 -0.3 M21.93 63.84 C37.33 49.84, 50.61 35.09, 81.08 1.5 M22.96 65.23 C38.24 47.33, 53.09 30.03, 78.63 -0.04 M29.2 66.47 C41.61 49.7, 56.96 34.77, 84.31 -1.66 M27.32 64.85 C45.87 45.14, 63.68 24.64, 85.07 -0.05 M32.23 66.2 C54.98 39.6, 76.49 17.09, 88.68 -1.73 M34.16 64.17 C52.02 41.58, 70.81 20.69, 90.69 0.49 M37.59 65.38 C59.36 41.13, 77.09 18.9, 95.78 1.05 M38.47 66.1 C59.44 41.02, 80.98 15.68, 95.86 -0.22 M44.11 66.04 C60.24 49.34, 74.1 33.76, 99.32 1.01 M43.26 64.46 C64.46 41.78, 86.8 16.21, 100.18 -0.45 M49.7 65.78 C63.66 51.67, 77.17 35.04, 106.5 -1.09 M49.27 66.09 C63.21 48.95, 79.22 32.15, 106.66 -0.92 M56.13 66.42 C65.7 52.07, 79.43 39.37, 112.88 1.86 M54.47 65.62 C71.02 47.43, 86.46 27.19, 111.4 -0.75 M59.14 66.07 C79.22 43.05, 98.1 20.46, 115.09 -0.1 M59.1 65.8 C79.62 43.59, 100.46 19.71, 117.13 -0.61 M66.63 67.32 C82.59 44.53, 103.17 21.9, 121.02 -1.84 M64.55 65.82 C79.54 48.91, 96.35 29.91, 122.2 -0.43 M71.34 65.82 C89.03 41.48, 111.46 18.8, 127.95 0.96 M70.96 66.09 C85.77 46.62, 101.03 28.31, 127.5 0.92 M73.78 66.18 C92.59 44.72, 111.73 25.03, 131.26 0.43 M74.88 66.37 C98.92 39.11, 121.66 12.47, 132.04 0.42 M79.54 65.82 C96.76 47.06, 109.76 29.17, 139.32 0.44 M81.45 65.74 C95.18 50.21, 109.5 33.58, 136.62 1.01 M86.23 66.87 C105.74 42.8, 121.68 22.06, 142.88 0.38 M86.1 64.76 C101.88 48.75, 117.07 31.53, 144 -0.39 M92.81 64.02 C107.49 44.54, 123.72 28.32, 149.92 -0.85 M90.75 65.44 C107.32 49.2, 121.81 32.18, 148.61 1.19 M98.46 64.43 C116.84 43.25, 138.55 18.44, 155.02 -1.08 M97.45 65.38 C113.92 44.87, 131.86 24.57, 154.72 0.84 M104 63.56 C117.62 44.81, 134.11 27.26, 158.26 1.09 M102.62 65.78 C119.25 45.71, 135.93 27.68, 158.15 -0.14 M106.72 65.11 C126.04 42.35, 144.73 20.33, 161.94 -1.13 M106.73 65.52 C125.63 44.71, 142.71 25.13, 163.79 0.51 M113.8 64.79 C131.74 42.29, 152.24 20.4, 162.79 8.22 M112.45 65.24 C129.85 45.13, 146.15 26.79, 162.65 7.16 M117.12 66.33 C133.76 44.96, 154.6 25.87, 165.2 14.08 M118.38 65.39 C133.32 47.12, 148.75 31.49, 163.86 12.7 M122.7 65.23 C130.74 53.1, 142.85 42.44, 162.96 17.4 M123.2 64.25 C137.04 49.38, 150.5 33.8, 163.28 19.79 M129.54 64.72 C140.64 53.31, 151.73 38.33, 165.21 25.68 M129.4 66.07 C138.66 53.11, 148.68 41.79, 164.22 25.53 M135.01 63.58 C142.56 55.7, 146.75 50.87, 163.32 32.9 M133.43 65.09 C142.74 55.55, 150.58 46.22, 163.14 31.61 M137.7 64.07 C148.06 54.25, 157.86 42.51, 163.66 36.09 M139.4 65.6 C149.38 55.37, 158.69 43.39, 163.22 37.08 M146.84 63.75 C150.6 56.54, 155.48 48.59, 165.66 43.47 M145.28 66 C151.73 59.16, 155.84 52.38, 163.28 42.67 M149.13 63.39 C154.92 59.83, 159.75 55.02, 164.06 50.62 M150.57 64.89 C152.61 62.56, 156.45 58.41, 162.8 49.11 M154.62 66.17 C158.04 61.21, 160.59 60.07, 165.03 56.37 M156.16 65.05 C158.28 61.35, 161.85 58.31, 163.62 55.65 M160.67 65.21 C161.26 64.3, 161.99 63.7, 163.78 61.68 M160.31 65.44 C161.36 64.22, 162.73 62.81, 163.98 61.54" stroke="#7950f2" stroke-width="0.5" fill="none"></path><path d="M1.67 -1.04 C44.29 -0.13, 87.69 2.73, 164.28 1.94 M-0.82 0.34 C63.09 -0.55, 125.61 -1.11, 162.85 -0.14 M163.36 1.74 C163.67 18.74, 163.54 40.77, 161.88 62.15 M162.59 -0.76 C164.11 13.59, 163.43 28.77, 163.35 63.66 M163.56 65.65 C126.33 62.22, 90.84 64.42, -1.06 62.29 M162.83 63.87 C110.57 63.94, 58.25 65.21, -0.84 63.28 M-0.74 64.51 C1.36 49.64, 1.79 32.99, 1.46 -0.05 M-0.51 64.8 C0.06 44.31, -1.2 23.69, 0.32 0.92" stroke="#000000" stroke-width="1" fill="none"></path></g><g transform="translate(768.2742125525792 483.25) rotate(0 78.5 13)"><text x="78.5" y="18" font-family="Virgil, Segoe UI Emoji" font-size="20px" fill="#000000" text-anchor="middle" style="white-space: pre;" direction="ltr">Servo de 25KG</text></g><g stroke-linecap="round"><g transform="translate(686.2197483367846 490.327839379916) rotate(0 39.21533202702176 0.8740505089145927)"><path d="M-0.62 0.25 C12.27 0.23, 63.51 0.65, 76.68 0.89 M1.25 -0.66 C14.6 0.04, 66.23 2.34, 79.06 2.41" stroke="#000000" stroke-width="1" fill="none"></path></g></g><g stroke-linecap="round"><g transform="translate(931.2197483367845 492.077839379916) rotate(0 32.33400739818808 0.04677111661987965)"><path d="M0.25 -0.64 C11.04 -0.53, 54.7 -0.11, 65.74 0.01 M-1.08 1.64 C9.47 1.49, 53.57 -1, 64.78 -1.55" stroke="#000000" stroke-width="1" fill="none"></path></g></g><g stroke-linecap="round" transform="translate(593.7382891729194 649) rotate(0 116 97)"><path d="M0 0 C0 0, 0 0, 0 0 M0 0 C0 0, 0 0, 0 0 M-0.3 6.28 C1.94 4.14, 2.96 2.94, 5.69 0.01 M-0.17 6.56 C0.61 5.47, 2.01 3.57, 4.99 0.66 M1.09 11.67 C5.52 7.65, 7.4 2.51, 11.49 0.62 M-0.32 12.81 C2.75 9.05, 4.69 6.48, 10.11 0.7 M1.14 17.64 C2.91 13.89, 7.94 8.12, 17.06 -1.01 M-0.74 17.82 C4.99 10.63, 12.17 3.91, 16.6 0.25 M-0.86 25.83 C7.19 15.38, 12.86 10.92, 22.8 -0.07 M0.9 24.99 C6.47 18.14, 11.18 12.31, 21.31 0.75 M-1.04 31.21 C6.47 20.04, 18.48 12.16, 25.36 0.05 M-0.06 31.21 C9.21 20.27, 16.49 10.81, 26.67 -0.63 M-1.7 37.18 C9.37 25.86, 21.1 10.13, 32.75 0.51 M0.02 37.85 C11.76 23.43, 24.37 8.11, 32.7 -0.55 M0.79 41.88 C11.55 31.55, 21.17 17.43, 37.18 1.36 M1.08 42.13 C9.02 34.13, 16.93 25.21, 37.63 -0.41 M-0.08 48.57 C16.07 32.19, 32.61 13.06, 42.18 -0.37 M-0.5 48.31 C15.41 30.35, 29.68 13.54, 43.26 0.64 M1.49 56.5 C12.28 40.85, 24.75 26.02, 47.23 -0.55 M0.67 55.37 C16.59 35.59, 31.87 18.23, 47.77 0.61 M0.27 59.04 C13.68 44.38, 27.89 28.75, 54.88 -1.78 M-0.12 61.96 C20.12 38.06, 41.82 12.57, 53.01 -0.42 M-1.55 66.52 C16.75 46.38, 36.61 24.99, 59.4 0.66 M-1.07 68.06 C19.08 44.49, 41.54 20.22, 57.32 0.71 M1.53 72.66 C18.36 50.77, 39.07 28.28, 61.86 1.02 M0.24 72.2 C21.46 46.96, 44.06 22.68, 62.86 -0.91 M-1.76 80.92 C20.57 57.68, 37.32 36.65, 66.79 1.14 M-1.04 78.64 C20.07 56.77, 38.99 33.77, 68.4 0.78 M-0.99 83.34 C15.39 67.01, 29.43 52.3, 73.29 0.6 M-0.41 85.04 C27.34 55.26, 52.51 24.6, 74.64 -0.38 M0.62 90.75 C18.61 71.75, 34.21 53.88, 79.66 -1.16 M0.82 91.43 C22.93 64.75, 48.24 36.56, 79.02 0.3 M0.6 99.55 C33.27 61.2, 62.47 25.74, 86.53 1.31 M0.18 97.85 C31.4 60.35, 63.56 24.74, 85.07 -0.81 M1.21 102.14 C28.2 69.37, 61.81 33.76, 89.47 1.55 M0.11 103.58 C30.51 68.65, 63.44 31.7, 89.14 -0.65 M1.3 109.3 C30.4 73.26, 59.77 39.76, 94.14 -0.66 M0.11 110.32 C25.44 80.37, 51.79 50.43, 95.79 -0.58 M-1.19 117.02 C28.33 83.13, 58.99 50.21, 100.88 -1.15 M-0.66 115.85 C32.4 78.18, 63.72 42.57, 100.58 0.6 M-0.64 120.68 C21.96 93.65, 46.52 65.2, 107.86 -1.31 M-0.54 120.99 C34.91 81.23, 71.34 42.41, 105.36 -0.47 M-1.24 129.89 C29.6 90.42, 64.15 54.56, 111.71 -1.87 M-0.73 129.31 C30.44 94.22, 58.95 61.12, 111.1 -0.71 M-1.13 134.85 C45.29 79.65, 90.54 28.58, 117.96 -0.09 M0.84 134.25 C38.15 91.21, 75.27 49.44, 116.55 1.07 M-0.45 140.78 C35.99 96.89, 74.14 51.82, 120.99 0.62 M-0.46 140.4 C23.15 111.4, 49.57 83.73, 122.34 -0.7 M1.09 146.76 C52.97 86.9, 103.28 29.94, 127.88 1.11 M0.78 145.08 C34.49 106.73, 66.28 70.2, 127.05 0.94 M0.8 151.89 C51.53 92.77, 103.47 33.98, 132.89 1.19 M0.66 153.29 C40.62 103.96, 82.88 55.66, 131.94 -0.84 M-0.17 158.04 C41.56 111.63, 83.36 63.43, 138.17 -1.31 M-0.86 157.93 C30.56 122.61, 61.75 87.07, 137.46 -0.06 M-1.43 164.25 C42.47 114.07, 84.56 64.28, 144.69 0.95 M0.86 165.29 C48.55 111.37, 95.13 56.74, 143.16 -0.33 M0.05 169.66 C38.86 127.29, 75.14 83.66, 149.37 -0.6 M-0.59 171.06 C52.09 110.11, 105.27 48.29, 147.96 -0.38 M-1.12 175.17 C34.99 137.45, 66.68 100.62, 155.28 -1.21 M-0.54 177.07 C51.49 116.65, 102.13 58.26, 153.6 0.52 M1.63 182.57 C49.82 125.02, 98.68 68.89, 157.74 -1.21 M-0.68 182.52 C41.79 135.62, 82.66 89.11, 159.42 0.86 M-0.84 189.49 C48.49 131.41, 96.64 73.48, 164.57 -1.46 M-0.84 189.67 C62.34 115.91, 128.08 41.67, 164.38 0.22 M0.31 194.43 C36.96 152.47, 72.23 110.9, 169.06 -0.7 M1.31 194.42 C64.84 120.71, 127.72 46.76, 170.13 0.92 M4.25 195.98 C61.81 131.81, 115.43 69.38, 176.64 -1.36 M6.13 194.69 C58.97 135.26, 110.68 74.9, 174.81 -0.46 M11.21 194.76 C74.21 121.14, 139.86 44.48, 181.59 -0.23 M11.33 194.48 C50.41 148.73, 90.74 103.69, 179.26 0.19 M15.69 194.14 C55.43 148.59, 96.85 103.47, 186.71 -0.86 M16.61 193.99 C59.61 143.88, 104.47 94.37, 185.79 -0.41 M20.88 193.9 C82.66 125.36, 142.07 53.46, 189.93 -0.96 M22.12 195.23 C56.68 153.15, 91.67 113.44, 191.46 0.24 M28.49 195.84 C88.29 124.54, 150.22 53.27, 197.48 -1.61 M26.55 193.73 C89.25 123.12, 152.04 50.37, 196.51 0.38 M31.91 193.27 C85.56 132.58, 142.14 66.76, 200.86 -1.04 M31.65 194.46 C87.98 128.34, 145.12 62.2, 200.85 0.71 M38.36 194.72 C78.98 146.94, 120.6 101.59, 206.14 -0.63 M37.22 194.44 C94.82 128.53, 151.98 62.52, 207.69 -0.82 M42.65 194.79 C75 154.89, 109.51 115.63, 210.86 1.24 M42.32 194.33 C96.54 135.45, 147.49 76.12, 211.94 -0.69 M46.81 193.88 C83.15 154.05, 119.07 113.83, 217.27 0.08 M49 194.75 C82.66 154, 117.49 114.78, 218.37 0.16 M53.08 194.69 C116.94 120.26, 181.52 47.05, 222.17 1 M53.87 195.08 C101.08 140.9, 148.14 86.85, 221.93 -0.14 M57.89 193.07 C121.03 125.36, 181.07 58.25, 226.79 -0.01 M58.2 194.55 C124.69 119.31, 189.01 44.57, 227.53 -0.04 M64.12 193.81 C116.86 133.44, 172.84 70.2, 232.52 0.39 M64.36 194.25 C106.74 145.94, 150 95.73, 232.91 0.16 M68.58 195.1 C134.78 119.08, 200.37 43.31, 232.06 6.83 M69.86 195.04 C109.04 148.78, 148 103.8, 232.97 5.65 M74.42 194.51 C108.23 155.27, 146.27 112.9, 233.72 11.18 M75 194.65 C126.5 133.73, 178.13 73.85, 232.74 12.33 M81.75 192.87 C114.15 156.56, 148.09 118.13, 231.53 18.97 M80.12 193.77 C127.01 141.67, 173.4 87.37, 232.56 18.9 M83.51 194.1 C134.6 135.88, 186.35 78.05, 232.56 23.2 M85.29 194.77 C115.93 156.52, 149.22 119.81, 232.21 24.69 M89.48 195.7 C134.84 140.51, 178.43 89.01, 233.24 30.22 M90.67 194.65 C129.24 150.53, 167.05 107.1, 232.54 30.96 M95.45 194.72 C128.18 160.09, 159.19 123.71, 231.97 37.63 M96.35 195.21 C140.04 144.97, 183.95 94.31, 233.18 36.49 M100.05 195.9 C149.81 140.69, 195.84 89.34, 232.75 43.65 M100.67 194.49 C151.18 139.28, 199.1 83.21, 232.52 42.68 M104.78 192.98 C148.58 144.71, 191.83 97.46, 233.97 48.97 M105.63 195.41 C140.51 153.57, 175.17 113.19, 232.43 49.03 M110.88 195.88 C160.66 139.9, 205.3 82.75, 234.46 56.19 M111.83 194.96 C139.41 162.7, 166.04 133.7, 232.75 54.69 M118.46 194.89 C161.59 145.71, 203.62 92.28, 234.16 59.97 M118.07 195.06 C140.13 166.02, 164.88 138.4, 233.05 61.22 M122.4 193.85 C157.27 153.48, 191.74 115.75, 232.47 65.79 M123.2 193.46 C165.17 146.97, 206.65 98.65, 233.41 66.5 M128.73 196.45 C149.25 170.14, 171.98 142.76, 232.86 72.1 M126.77 194.7 C156.98 160.7, 188.34 126.08, 233.25 73.67 M133.83 192.36 C168.49 157.03, 197.89 118.43, 233.34 81.25 M132.43 195.04 C169.26 150.65, 206.3 108.4, 231.9 80.76 M137.03 195.41 C168.98 156.18, 200.5 121.03, 234.38 85.79 M138.66 195.42 C167.24 159.05, 198.72 123.49, 232.8 85.89 M143.07 194.36 C170.91 163.89, 198.26 133.32, 230.79 90.91 M143.5 195.09 C169.98 164.14, 195.77 134.57, 233.5 92.49 M150.02 195.36 C176.83 158.42, 207.29 126.45, 234.21 97.28 M148.58 194.87 C168.99 172.45, 188.29 150.87, 232.37 96.96 M153.17 196.32 C174 171.2, 194.76 149.15, 233.73 103.18 M153.27 194.3 C183.69 160.56, 212.44 125.85, 233.41 103.59 M159.52 193.72 C186.09 161.37, 214.04 130.16, 234.37 111.38 M159.28 195.33 C185.3 166.52, 209.49 137.75, 232.88 110.31 M164.4 192.8 C188.56 163.42, 217.34 133.33, 232.95 115.5 M165.53 195.25 C180.3 176.2, 195.32 160.04, 233.42 115.79 M170.57 193.67 C195.15 167.61, 219.2 139.14, 234.04 122.44 M169.41 193.64 C187.45 174.9, 203.42 156.3, 232.12 122.72 M176.88 193.43 C193.03 171.35, 213.05 152.91, 232.4 127.17 M175.64 195.33 C187.24 181.61, 198.21 166.79, 233.21 127.41 M181.37 196.26 C193.24 180.63, 208.2 162.14, 233.62 134.92 M181.53 195.26 C196.24 178.49, 210 161.13, 232.82 134.81 M185.91 195.63 C198.76 178.3, 211.92 166.63, 232.57 140.02 M185.85 195.53 C197.08 183.42, 206.87 170.49, 231.71 140.12 M191.32 192.32 C206.83 177.53, 223.27 158.07, 233.35 148.29 M192.1 194.23 C203.86 179.35, 216.39 165.93, 233.28 146.04 M197.99 196.65 C205.12 184.08, 210.58 177.59, 233.12 151.43 M197.34 194.45 C210.07 178.43, 225.26 163.74, 231.74 153.92 M201.01 194.5 C212.51 182.58, 225.36 166.03, 232.65 157.87 M201.5 195.18 C212.45 182.91, 221.65 173.07, 232.7 159.47 M206.79 193.54 C216.72 185.19, 225.52 174.21, 232.9 166.89 M206.19 194.27 C215.39 186.42, 224.2 176.45, 232.03 165.68 M212.2 193.25 C215.68 189.63, 222.22 181.71, 233.49 171.52 M212 193.35 C220.67 185.9, 225.94 177.39, 232.52 172.52 M217.17 195.16 C225.08 187.3, 228.62 179.63, 232.63 176.9 M217.36 194.77 C221.45 191.78, 224.44 186.89, 231.91 178.09 M223.72 193.26 C227.79 190.41, 229.64 184.9, 231.47 182.96 M223.67 194.44 C227.15 189.89, 229.97 186.44, 232.92 183.82 M228.67 194.43 C230.56 192.61, 231.11 191, 233.4 189.46 M228.51 194.82 C229.42 193.21, 230.31 192.13, 232.84 188.98" stroke="#868e96" stroke-width="0.5" fill="none"></path><path d="M0.3 1.25 C60.81 -2.31, 122.46 0.01, 230.72 1.52 M0.23 0.41 C61.39 -0.75, 122.29 0.06, 232.15 -0.26 M231.37 1.65 C234.53 70.7, 233 137.55, 232.25 192.87 M232.29 0.73 C234.01 60.72, 234.4 122.29, 231.42 194.93 M230.94 193.43 C166.34 193.86, 103.13 194.1, -1.53 195.1 M232.65 193.57 C176.8 194.96, 122.85 195.21, 0.21 193.18 M-1.63 193 C1.64 134.92, 1.81 76.95, -0.25 0.21 M0.28 194.18 C1.74 141.15, 0.5 88.96, -0.98 -0.94" stroke="#000000" stroke-width="1" fill="none"></path></g><g transform="translate(646.7382891729194 733) rotate(0 63 13)"><text x="63" y="18" font-family="Virgil, Segoe UI Emoji" font-size="20px" fill="#000000" text-anchor="middle" style="white-space: pre;" direction="ltr">Raspberry Pi</text></g><g stroke-linecap="round"><g transform="translate(438.8066813094541 577.1950338430702) rotate(0 72.80687877490186 0.4805136226908644)"><path d="M0.35 1.2 C24.39 0.99, 120.09 0.09, 144.32 -0.23 M-0.93 0.78 C23.48 0.64, 122.2 1.1, 146.55 0.98" stroke="#000000" stroke-width="1" fill="none"></path></g></g><g stroke-linecap="round" transform="translate(585.7382891729194 554) rotate(0 146.5 24)"><path d="M0 0 C0 0, 0 0, 0 0 M0 0 C0 0, 0 0, 0 0 M-0.37 6.46 C0.5 5.17, 3.17 3.17, 4.38 0.44 M-0.5 6.63 C0.57 4.84, 2 3.56, 4.85 0.03 M-0.74 12.71 C2.43 8.29, 7.73 1.62, 10.18 -1.5 M-0.65 11.66 C2.21 9.85, 4.07 6.42, 10.82 -0.54 M-1.14 20.29 C2.15 15.43, 7.66 9.21, 16.56 -1.04 M-0.49 18.12 C4.74 12.8, 8.3 6.82, 15.33 0.63 M1.14 23.92 C5.91 16.51, 11.32 12.83, 19.94 1.55 M0.8 24.32 C6.32 16.91, 13.67 9.33, 20.78 0.35 M-0.46 30.47 C11.34 20.52, 21.49 8.24, 25.54 1.14 M0.23 30.76 C7.92 21.09, 16.16 12.87, 27.12 0.82 M1.62 37.15 C6.99 29.51, 16.04 19.67, 30.11 -0.18 M0.29 36.63 C9.19 24.49, 20.18 14.26, 32.76 0.6 M0.78 42.04 C8.32 30.97, 19.18 20.06, 38.51 0.7 M0.84 42.89 C12.91 27.4, 25.32 12.43, 37.39 -0.48 M0.8 49.69 C16.88 28.57, 32.77 11.13, 42.78 -2.02 M-0.16 48.76 C14.46 32.85, 27.76 16.35, 43.34 -0.47 M4.29 47.75 C17.54 36.02, 26.56 23.98, 46.79 -0.9 M6.02 49.06 C13.76 38.73, 23.21 28.38, 48.39 -0.28 M12.77 46.9 C27.93 28.2, 42.7 11.57, 53.35 -1.15 M11.11 49.02 C27.26 28.11, 45.16 10.03, 53.01 -0.81 M15.72 48.18 C32.29 31.77, 45.44 15.45, 56.86 1.55 M17.11 48.41 C29.84 33.64, 43.56 18.02, 57.29 0.02 M20.43 47.09 C34.6 33.26, 47.14 18.66, 62.41 -0.9 M22.31 48.45 C35.36 33.09, 48.66 18.24, 64.13 0.2 M28.65 47.77 C41.57 33.16, 53.94 14.15, 70.41 1.13 M26.12 48.76 C35.59 39.27, 45.14 28.8, 68.16 0.58 M31.7 49.08 C44.32 36.39, 55.67 22.97, 75.72 1.17 M32.38 48.34 C48.79 27.66, 66.19 8.45, 74.98 -0.2 M39.11 46.74 C48.86 34.15, 57.43 24.42, 80.29 -1.3 M38.18 48.46 C45.55 38.28, 54.11 29.25, 80 -0.8 M41.71 47.47 C57 35.29, 67.95 18.55, 84.25 1.34 M43.17 47.61 C59.52 28.35, 75.76 8.74, 85.74 -0.19 M48.31 47.1 C58.9 36.2, 68.38 27.66, 90.57 -1.05 M48.37 48.46 C61.35 31.51, 74.43 15.55, 90.68 -0.75 M52.76 48.7 C64.66 36.04, 72.98 27.97, 96.15 -2.29 M53.46 48.75 C68.59 30.98, 84.5 12.12, 96.51 0.65 M58.64 48.7 C69.12 33.07, 81.34 20.91, 100.47 -1.65 M59.64 48.3 C69.81 36.89, 79.9 24.42, 101 -0.32 M61.67 47.77 C77.16 31.79, 92.18 19.75, 104.74 -1.83 M64.26 48.61 C78.83 32.17, 92.88 15.1, 107.27 -0.66 M69.68 49.18 C81.86 31.64, 97.16 17.56, 112.45 1.23 M68.88 48.11 C83.84 32.89, 97.14 16.25, 110.65 -0.95 M74.45 49.22 C92.21 28.43, 106.86 9.89, 115.9 1.18 M73.44 49.35 C87.47 32.49, 102.14 18.14, 115.29 0.23 M78.22 48 C96.54 31.12, 107.62 16.99, 120.09 -0.31 M80.85 48.63 C93.14 32.07, 107.86 14.65, 122.25 -0.48 M86.31 47.67 C98.24 34.57, 107.81 22.12, 126.64 0.77 M85.84 49.01 C95.28 37.16, 105.73 25.78, 127.67 0 M90.21 46.45 C99.53 34.99, 108.81 26.14, 132.23 1.67 M90.24 49.18 C105.75 32, 119.97 14.73, 133.31 0.83 M96.29 48.82 C113.31 27.94, 129.5 11.7, 137.22 -0.98 M95.84 48.46 C104.5 39.01, 113.35 28.46, 137.47 0.22 M100.8 47.6 C109.6 36.57, 119.45 29.72, 144.83 -1.08 M101.65 47.67 C111.24 36.52, 122.02 23.62, 142.24 0.32 M106.63 50.14 C118.48 33.04, 133.59 17.56, 149.71 -0.91 M106.74 48.16 C119.78 33.09, 130.61 19.59, 148.33 0.25 M110.33 48.36 C123.5 35.14, 137.63 17.69, 153.09 -1.02 M111.56 48.63 C121.57 35.52, 130.85 25.01, 154.37 -1.07 M118.78 48.95 C127.55 35.94, 137.28 21.65, 159.39 1.92 M116.73 48.17 C132.65 32.74, 146.92 15.47, 159.76 0.1 M124.31 47.44 C134.3 35.11, 146.79 18.1, 163.36 1.22 M122.38 47.15 C136.15 31.78, 151.84 15.24, 163.93 -0.82 M129.33 50.36 C134.43 38.45, 147.08 25.75, 170.71 -1.69 M126.93 48.15 C140.31 33.13, 155.06 17.53, 169.2 0.31 M133.45 49.35 C143.6 35.52, 153.1 25.59, 173.21 0.84 M132.42 48.93 C143.67 35.45, 154.35 23.52, 176.06 -0.81 M138.1 47.31 C151.86 32.09, 166.35 14.17, 181.33 0.84 M137.34 49.34 C154.54 28.57, 170.06 11.65, 180 0.08 M145.66 48.45 C157.33 31.74, 168.84 20.75, 187.37 0.81 M143.9 48.26 C155.88 33.13, 167.48 18.6, 184.8 0.68 M148.09 48.53 C156.98 37.75, 167.27 28.01, 190.08 -0.1 M148.88 48.57 C158.66 36.17, 168.99 24.78, 191.39 -0.85 M154.02 48.88 C165.71 33.1, 175.62 23.06, 197.77 -0.05 M154.93 48.04 C167.25 32.76, 181.34 17.72, 197.11 -1.05 M157.45 46.59 C176.37 29.07, 191.03 11.3, 200.98 -0.3 M159.38 48.29 C173.72 31.54, 187.55 14.72, 200.53 -0.12 M164.8 48.59 C176.64 33.9, 190.92 16.93, 207.53 0.87 M165.55 47.74 C180.71 29.53, 196.43 11.84, 206.82 -1.09 M171.57 49.84 C186.11 29.89, 203.96 8.99, 211.24 -1.72 M169.57 48.52 C183.53 31.55, 197.89 16.11, 212.49 -0.78 M177.46 47.38 C186.33 36.91, 193.54 28.21, 218.95 -2 M175.69 47.43 C191.64 28.85, 208.74 11.94, 216.72 -0.95 M179 46.48 C197.94 30.62, 210.83 10.07, 223.25 -0.53 M181.08 48.87 C196.28 29.78, 213.03 12.29, 222.21 0.72 M183.99 47.56 C200.6 31.04, 210.7 18.95, 229.53 1.6 M186.52 48.54 C200.97 31.01, 215.57 13.72, 228.47 -0.53 M191.47 48.5 C202.75 33.21, 216.79 19.21, 232.62 0.92 M190.46 48.57 C201.61 36.06, 209.96 25.11, 232.59 0.5 M195.55 47.05 C213.36 27.75, 229.5 9.27, 239.28 -1.54 M197.13 48.82 C210.6 32.82, 223.76 16.61, 237.98 0.59 M199.92 47.69 C211.35 39.01, 220.89 29.25, 244.1 -1.91 M201.17 48.43 C218.05 30.07, 235.4 10.63, 244.39 -0.7 M206.49 47.8 C223.08 32.23, 236.62 17.26, 249.38 0.94 M206.48 48.87 C223.85 29.53, 240.45 11.02, 248.05 0.19 M214.46 47.69 C221.96 33.77, 235.23 19.9, 255.65 0.25 M211.54 48.83 C227.34 32.78, 240.63 17.44, 254.29 0.44 M217.02 48.83 C233.55 31.71, 245.47 15.94, 258.24 -0.51 M218.16 49.15 C230.92 31.19, 245.4 14.68, 260.41 -0.11 M224.4 47.91 C239.96 29.08, 256.23 12.83, 266.43 -1.51 M222.85 47.78 C234.09 35.31, 244.67 24.59, 264.9 -0.15 M228.55 46.99 C241.23 36.83, 251.32 22.44, 268.09 -0.41 M227.62 48.71 C244.87 29.19, 261.78 11.18, 270.35 0.15 M234.23 47.61 C242.81 37.8, 249.64 27.05, 276.77 1.72 M233.27 48.88 C249.09 31.1, 264 14.45, 276.7 0.02 M239.65 48.93 C251.15 35.19, 260.24 22.82, 280.36 -1.45 M238.24 49.17 C247.64 37.64, 257.95 25.98, 280.08 1.04 M243.62 49.83 C254.09 36, 262.53 24.63, 288.19 0.63 M243.87 47.29 C259.69 29.54, 274.16 13.58, 286.1 0.07 M250.11 47.1 C267.11 29.19, 282.45 9.25, 291.67 1.5 M249.28 48.76 C265.65 29.2, 281.81 10.55, 290.69 0.21 M255.44 49.46 C268.97 31.4, 281.25 15.51, 293.43 2.03 M254.63 47.8 C269.45 29.23, 286.27 12.29, 295.44 1.96 M260.88 47.78 C267.66 41.59, 274.23 30.33, 295.26 8.89 M259.94 48.32 C270.94 36.08, 280.06 24.24, 295.65 8.45 M263.75 49.16 C277.88 32.99, 290.81 19.92, 293.83 15.8 M266.44 48.78 C273.22 39.5, 283.13 28.77, 294.37 13.53 M270.1 47.06 C278.09 38.59, 286.13 31.73, 296.09 19.23 M271.31 49.25 C279.58 38.21, 289.69 27.07, 295.84 20.32 M277.79 47.43 C280.99 44.29, 285.72 35.37, 295.01 24.27 M277.08 48.2 C280.62 42.54, 285.75 35.88, 295.55 25.85 M281.12 46.83 C285.91 44.27, 289.46 40.45, 293.58 31.01 M280.38 47.57 C284.09 46.01, 287.87 42.18, 294.32 32.24 M286.3 47.07 C289.48 44.57, 291.27 42.11, 295.3 37.67 M287.14 47.74 C288.94 45.36, 292.85 41.27, 295.14 38.33 M291.52 47.96 C292.23 47.22, 293.63 46.36, 295.48 44.77 M291.92 48.23 C293.07 47.18, 294.2 46.03, 295.16 44.68" stroke="#228be6" stroke-width="0.5" fill="none"></path><path d="M-0.52 0 C78.72 -0.95, 155.74 -1.87, 292.37 1.41 M0.64 0.62 C77.06 -1.8, 153.45 -1.5, 292.78 0.01 M294.93 -0.69 C292.83 13.34, 294.36 28.29, 293.67 47.24 M292.47 -0.01 C293.98 12.28, 292.93 22.06, 293.03 48.61 M291.89 48.56 C176.46 48.46, 60.93 48.14, -0.81 48.59 M292.37 48.27 C181.52 46.64, 69.38 46.35, -0.66 48.1 M-0.32 47.76 C1.84 36.6, 2 28.72, -1.03 -0.27 M-0.07 47.62 C0.24 28.56, 0.5 10.15, 0.29 -0.65" stroke="#000000" stroke-width="1" fill="none"></path></g><g transform="translate(593.7382891729194 564.5) rotate(0 139.46153846153857 14)"><text x="139.46153846153857" y="19.000000000000014" font-family="Virgil, Segoe UI Emoji" font-size="21.53846153846154px" fill="#000000" text-anchor="middle" style="white-space: pre;" direction="ltr">Convertisseur de 12V  5V</text></g><g stroke-linecap="round"><g transform="translate(881.7382891729194 577) rotate(0 60.4498383405944 1.3813026737001337)"><path d="M0.96 0.84 C21.02 0.99, 101.04 0.95, 120.9 0.91 M0 0.24 C19.9 0.6, 100.32 2.26, 120.18 2.52" stroke="#000000" stroke-width="1" fill="none"></path></g></g><g stroke-linecap="round"><g transform="translate(699.7382891729194 602) rotate(0 0.08813438868651247 24.445757604697747)"><path d="M0.62 0.42 C0.86 8.63, 0.42 40.26, 0.51 48.18 M-0.51 -0.4 C-0.31 8.03, -0.42 41.1, -0.17 49.29" stroke="#000000" stroke-width="1" fill="none"></path></g></g><g stroke-linecap="round"><g transform="translate(593.7382891729194 684) rotate(0 -117.31140339625068 1.68945271386292)"><path d="M-0.98 -0.65 C-40.24 -0.29, -195.75 2.02, -234.59 2.66 M0.7 1.63 C-38.77 2.11, -196.15 3.51, -235.33 4.03" stroke="#a61e4d" stroke-width="1" fill="none"></path></g></g><g stroke-linecap="round"><g transform="translate(359.7382891729194 686) rotate(0 1.9869073640695092 -161.49433332160106)"><path d="M0.31 0.92 C1.04 -52.99, 4.2 -270.04, 4.97 -323.91 M-0.99 0.36 C-0.46 -53.4, 3.15 -268.75, 4 -322.85" stroke="#a61e4d" stroke-width="1" fill="none"></path></g></g><g stroke-linecap="round"><g transform="translate(364.7382891729194 363) rotate(0 94.13543710279282 -4.739622159167197)"><path d="M0.96 -0.05 C31.88 -1.27, 154.93 -6.27, 186.06 -7.55 M0 -1.12 C31.25 -2.69, 157.05 -8.59, 188.27 -9.43" stroke="#a61e4d" stroke-width="1" fill="none"></path></g></g><g stroke-linecap="round"><g transform="translate(591.7382891729194 715) rotate(0 -131.14255776167846 -1.5584423832594894)"><path d="M-1.06 -0.44 C-44.76 -0.91, -218.52 -2.58, -261.94 -2.68 M0.58 -1.72 C-43.29 -2.06, -219.07 -1.31, -262.86 -1.49" stroke="#a61e4d" stroke-width="1" fill="none"></path></g></g><g stroke-linecap="round"><g transform="translate(328.7382891729194 712) rotate(0 0.9669523805333142 -218.20163927562066)"><path d="M-1.15 0.37 C-0.91 -71.96, 0.36 -362.23, 0.93 -435.11 M0.45 -0.49 C1.09 -73.04, 2.89 -364.16, 3.08 -436.77" stroke="#a61e4d" stroke-width="1" fill="none"></path></g></g><g stroke-linecap="round"><g transform="translate(329.7382891729194 277) rotate(0 112.4649290794041 2.979830587585525)"><path d="M0.49 1.18 C37.83 2.04, 186.2 4.57, 223.3 5.2 M-0.71 0.76 C37.08 1.23, 187.94 2.26, 225.64 3.19" stroke="#a61e4d" stroke-width="1" fill="none"></path></g></g><g stroke-linecap="round"><g transform="translate(592.7382891729194 745) rotate(0 -150.32585286900866 2.454384057153902)"><path d="M-0.76 -0.91 C-50.88 -0.21, -251.48 3.31, -301.7 4.18 M1.04 1.23 C-48.6 2.15, -249.22 5.06, -299.35 5.82" stroke="#a61e4d" stroke-width="1" fill="none"></path></g></g><g stroke-linecap="round"><g transform="translate(296.7382891729194 207) rotate(0 128.3284315057099 -0.1428408611100167)"><path d="M-0.85 -0.11 C41.95 -0.09, 214.67 -0.34, 257.51 -0.06 M0.9 -1.21 C43.53 -1.06, 213.87 0.79, 256.82 0.92" stroke="#a61e4d" stroke-width="1" fill="none"></path></g></g><g stroke-linecap="round"><g transform="translate(294.7382891729194 750) rotate(0 -0.9106942061762879 -271.639503722638)"><path d="M0.06 0.74 C-0.23 -89.8, -1.74 -453.2, -2.01 -544.02 M-1.37 0.09 C-1.28 -90.27, 0.38 -452.43, 0.18 -543.02" stroke="#a61e4d" stroke-width="1" fill="none"></path></g></g><g stroke-linecap="round"><g transform="translate(114.7382891729194 233) rotate(0 -49.516412430256594 -0.7444209165871598)"><path d="M0.75 -0.04 C-15.81 -0.4, -83.27 -1.33, -99.78 -1.45 M-0.32 -1.1 C-16.46 -1.36, -81.08 -0.45, -97.48 -0.15" stroke="#000000" stroke-width="1" fill="none"></path></g></g><g stroke-linecap="round"><g transform="translate(16.738289172919394 234) rotate(0 -2.8645518722245527 361.3424905311782)"><path d="M0.76 -0.42 C-0.23 120.12, -4.57 602.43, -6.04 723.24 M-0.3 -1.69 C-1.36 118.99, -5.58 603.71, -6.49 724.38" stroke="#000000" stroke-width="1" fill="none"></path></g></g><g stroke-linecap="round"><g transform="translate(9.738289172919394 955) rotate(0 547.1987187068444 -4.316726966663282)"><path d="M1.13 -0.15 C182.98 -1.27, 909.98 -5.57, 1091.97 -6.92 M0.26 -1.28 C182.41 -2.68, 912.12 -7.52, 1094.14 -8.48" stroke="#000000" stroke-width="1" fill="none"></path></g></g><g stroke-linecap="round"><g transform="translate(1103.7382891729194 948) rotate(0 -3.829433740289005 -360.0918874973338)"><path d="M0.24 -0.66 C-0.8 -120.63, -5.63 -599.98, -6.97 -719.78 M-1.1 1.61 C-2.23 -118.76, -7.2 -601.27, -7.9 -721.79" stroke="#000000" stroke-width="1" fill="none"></path></g></g><g stroke-linecap="round"><g transform="translate(1096.7382891729194 230) rotate(0 -47.87053118467804 0.22775211282544205)"><path d="M-0.01 -0.67 C-15.79 -0.79, -78.88 -1.09, -94.86 -1.14 M-1.47 1.59 C-17.38 1.7, -80.41 0.53, -95.73 0.33" stroke="#000000" stroke-width="1" fill="none"></path></g></g><g stroke-linecap="round"><g transform="translate(592.7382891729194 781) rotate(0 -162.43760712668302 2.7096594664313898)"><path d="M0.79 1.01 C-53.34 1.96, -271.38 4.41, -325.66 4.92 M-0.26 0.5 C-53.92 1.19, -269.07 2.46, -323.3 3.28" stroke="#a61e4d" stroke-width="1" fill="none"></path></g></g><g stroke-linecap="round"><g transform="translate(270.7382891729194 784) rotate(0 2.015619090865357 -320.23980564065266)"><path d="M1.16 0.16 C1.62 -106.5, 3.58 -533.99, 3.72 -640.64 M0.31 -0.8 C0.61 -107.22, 2.54 -532.44, 3.22 -639.27" stroke="#a61e4d" stroke-width="1" fill="none"></path></g></g><g stroke-linecap="round"><g transform="translate(277.36651854872696 140.98019960713555) rotate(0 138.63878082372247 -1.6646288620540872)"><path d="M0.06 0.67 C46.39 0, 232.14 -3.32, 278.65 -4 M-1.37 -0.02 C44.77 -0.58, 231.16 -2.62, 277.85 -3" stroke="#a61e4d" stroke-width="1" fill="none"></path></g></g><g stroke-linecap="round"><g transform="translate(592.7382891729194 666) rotate(0 -65.61030826867557 -0.2467855028808117)"><path d="M-0.64 0.53 C-22.82 0.39, -110.13 -0.82, -132.01 -1.02 M1.22 -0.24 C-21.13 -0.25, -110.21 -0.11, -132.44 -0.02" stroke="#a61e4d" stroke-width="1" fill="none"></path></g></g><g stroke-linecap="round"><g transform="translate(459.7382891729194 666) rotate(0 1.6486944566946136 -83.91855183318262)"><path d="M0.21 0.91 C0.61 -27.34, 1.83 -140.42, 2.16 -168.75 M-1.14 0.35 C-0.34 -27.84, 3.46 -139.49, 4.43 -167.61" stroke="#a61e4d" stroke-width="1" fill="none"></path></g></g><g stroke-linecap="round"><g transform="translate(462.7382891729194 499) rotate(0 28.340742701170996 0.8209282237012303)"><path d="M0.03 0.64 C9.39 0.81, 46.35 0.2, 55.94 0.45 M-1.41 -0.06 C8.32 0.31, 48.35 1.62, 58.09 1.7" stroke="#a61e4d" stroke-width="1" fill="none"></path></g></g><g stroke-linecap="round"><g transform="translate(590.7382891729194 674) rotate(0 -101.58715217998719 -0.6453932352363836)"><path d="M-0.04 1.08 C-33.81 0.48, -168.69 -2.01, -202.46 -2.37 M-1.53 0.59 C-35.41 0.68, -169.5 -0.44, -203.13 -1.02" stroke="#a61e4d" stroke-width="1" fill="none"></path></g></g><g stroke-linecap="round"><g transform="translate(390.7382891729194 671) rotate(0 3.039639064660264 -129.49092638797595)"><path d="M0.92 -0.45 C1.75 -43.41, 3.39 -213.89, 3.96 -256.95 M-0.05 -1.74 C1.22 -45.08, 5.57 -215.83, 6.13 -258.53" stroke="#a61e4d" stroke-width="1" fill="none"></path></g></g><g stroke-linecap="round"><g transform="translate(397.7382891729194 416) rotate(0 62.72290954068302 1.3897290765960406)"><path d="M-0.34 -0.05 C20.65 0.25, 104.78 2.11, 125.79 2.59 M1.68 -1.13 C22.51 -0.72, 104.22 3.05, 124.73 3.91" stroke="#a61e4d" stroke-width="1" fill="none"></path></g></g><g stroke-linecap="round"><g transform="translate(828.7382891729194 661) rotate(0 67.62276840268646 -0.516291528195211)"><path d="M-0.16 0.92 C22.14 0.77, 112.13 -1.41, 134.84 -1.95 M-1.7 0.36 C20.86 0.5, 114.09 -0.14, 136.95 -0.39" stroke="#a61e4d" stroke-width="1" fill="none"></path></g></g><g stroke-linecap="round"><g transform="translate(966.7382891729194 659) rotate(0 -1.1513048257538685 -75.72305545690472)"><path d="M0.25 -0.82 C-0.01 -26.11, -1.1 -125.76, -1.4 -151.14 M-1.07 1.37 C-1.54 -24.31, -2.3 -127.19, -2.55 -152.81" stroke="#a61e4d" stroke-width="1" fill="none"></path></g></g><g stroke-linecap="round"><g transform="translate(965.7382891729194 510) rotate(0 -18.983598191291094 0.4896421606080139)"><path d="M1.1 0.67 C-5.24 1.01, -32.62 1.49, -39.07 1.19 M0.22 -0.02 C-5.67 0.09, -30.53 -0.25, -36.91 -0.3" stroke="#a61e4d" stroke-width="1" fill="none"></path></g></g><g stroke-linecap="round"><g transform="translate(827.7382891729194 693) rotate(0 83.22016403153543 -0.13418581576547695)"><path d="M-0.76 -0.68 C27.09 -1.06, 139.05 -1.87, 167.2 -1.84 M1.05 1.57 C28.75 1.29, 138.53 -0.05, 166.35 -0.74" stroke="#a61e4d" stroke-width="1" fill="none"></path></g></g><g stroke-linecap="round"><g transform="translate(991.7382891729194 691) rotate(0 -0.05276698165118887 -130.9288584219571)"><path d="M-0.38 -0.45 C-0.75 -43.59, -1.74 -216.26, -1.72 -259.6 M1.61 -1.74 C1.59 -45.16, 0.94 -218.47, 0.54 -261.4" stroke="#a61e4d" stroke-width="1" fill="none"></path></g></g><g stroke-linecap="round"><g transform="translate(990.7382891729194 432) rotate(0 -29.723454228253104 1.130658907862312)"><path d="M0.57 0.7 C-9.47 0.88, -49.49 0.94, -59.39 0.81 M-0.58 0.01 C-10.81 0.41, -50.28 2.14, -60.02 2.25" stroke="#a61e4d" stroke-width="1" fill="none"></path></g></g></svg>