<svg version="1.1" xmlns="http://www.w3.org/2000/svg" viewBox="0 0 1961.25 1180" width="5883.75" height="3540">
  <!-- svg-source:excalidraw -->
  
  <defs>
    <style>
      @font-face {
        font-family: "Virgil";
        src: url("https://excalidraw.com/Virgil.woff2");
      }
      @font-face {
        font-family: "Cascadia";
        src: url("https://excalidraw.com/Cascadia.woff2");
      }
    </style>
  </defs>
  <rect x="0" y="0" width="1961.25" height="1180" fill="#ffffff"></rect><g stroke-linecap="round" transform="translate(668.75 96.25) rotate(0 351.24999999999994 494.9999999999998)"><path d="M0 0 C0 0, 0 0, 0 0 M0 0 C0 0, 0 0, 0 0 M-0.74 5.64 C1.62 5.06, 3.1 3.22, 5.35 1 M-0.05 6.76 C1.16 4.62, 3.1 2.58, 5.16 0.61 M-0.69 13.5 C1.89 8.15, 7.46 4.3, 10.78 0.57 M-0.35 12.39 C3.96 8.18, 7.51 3.69, 10.19 0.3 M-2.06 18.2 C6.17 11.89, 12.49 4.49, 14.89 -0.06 M0.55 18.13 C5.82 13.1, 10.05 6.2, 15.52 -0.04 M0.24 25.36 C5.91 18.99, 9.69 15.1, 22.79 0.42 M0.97 24.7 C8.1 15.25, 15.83 5.92, 20.35 0.93 M-1.2 32.42 C7.81 23.85, 13.26 15.83, 27.88 -0.79 M-0.6 29.8 C5.4 23.54, 13.2 15.88, 25.66 0.17 M-0.3 35.43 C8.53 26.58, 19.53 12.93, 30.42 -1.43 M-0.45 37.41 C7.76 25.86, 17.68 16.53, 31.78 0.67 M1.28 42.63 C11.04 27.16, 25.74 14.02, 37.3 -1.02 M-0.3 42.65 C7.78 33.02, 16.73 22.12, 36.55 0.08 M1.21 47.77 C12.36 31.23, 28.83 18.33, 44.36 0.14 M0.31 48.55 C12.73 32.08, 26.54 16.73, 42 -0.82 M2.05 55.79 C12.7 39.74, 26.62 26.84, 48.06 1.97 M0.05 55.26 C14.71 38.03, 26.75 22.79, 46.68 0.4 M-0.97 59.86 C18.93 39.4, 36.96 19.43, 51.79 1.59 M0.08 60.58 C12.37 49.08, 23.02 34.17, 52.36 0.29 M1.62 67.12 C14.05 52.49, 26.46 34.85, 57.57 -1.63 M0.14 67.21 C12.85 52.22, 25.62 37.19, 58.29 0.08 M0.57 71.9 C15.91 53.55, 35.63 31.66, 64.36 -1.12 M0.09 73.46 C16.55 53.16, 32.94 34.87, 63.96 0.1 M-1.05 81.06 C16.06 61.86, 28.05 44.86, 67.75 1.91 M-0.6 80.07 C18.05 59.67, 33.44 39.42, 69.34 0.33 M1.74 83.61 C28.35 55.45, 52.93 23.34, 74.24 -0.53 M-0.69 85.4 C16.05 65.6, 33.92 47.37, 73.65 -1.08 M-0.43 91.83 C27.53 61.42, 55.24 29.51, 81 1.79 M-0.98 91.94 C21.05 68.01, 39.79 45.4, 79.58 0.62 M-1.69 98.94 C19.75 74.92, 41.58 50.87, 86.1 -1.68 M-0.18 97.6 C21.32 71.43, 42.69 46.65, 84.05 -0.66 M2.12 104.4 C32.07 65.05, 66.53 26.79, 88.26 -1.27 M0.61 104.4 C25.57 73.24, 51.35 43.25, 90.48 0.63 M0.49 111.11 C32.71 72.1, 67.42 30.27, 97.1 -2.11 M-0.58 109.27 C34.84 69.26, 70.08 28.72, 95.51 0.19 M1.79 115.21 C37.5 72.9, 74.65 31.01, 100.91 0.93 M-0.48 115.27 C29.1 81.96, 58.48 49.87, 101.27 0.34 M1.05 123.07 C24.25 93.27, 53.01 59.88, 104.9 0.15 M-0.32 122.11 C40.42 77.97, 77.9 32.95, 106.13 0.56 M1.57 129 C24.64 98.81, 48.66 69.96, 110.9 0.11 M0.21 127.39 C41.66 79.75, 83.41 32.55, 110.94 -0.05 M1.91 132.54 C32.76 94.62, 66.99 56.31, 115.01 -0.69 M0.57 133.34 C34.93 94.46, 71.41 53.58, 117.12 0.53 M-1.06 139.71 C44.99 85.41, 92.38 34.48, 122.61 -0.53 M0.84 139.59 C38.87 96.76, 75.26 52.06, 122.21 -0.08 M1.46 144.73 C31.18 111.15, 60.73 76.38, 127.41 -1.19 M-0.17 146.41 C31.4 108.27, 63.78 72.9, 127.38 0.17 M1.72 151.2 C34.44 114.08, 69.7 72.16, 132.94 1.55 M-0.58 153.12 C36.94 110.54, 72.54 68.76, 131.66 -0.95 M-1.81 157.3 C54.49 100.35, 107.27 37.83, 136.71 -0.07 M0.23 159.67 C41.46 110.22, 82.67 63.57, 137.62 0.1 M-0.28 165.36 C39.97 122.26, 78.73 77.57, 143.38 0.95 M0.12 164.98 C38.56 121.02, 78.36 75.58, 143.22 -0.01 M0.15 172.15 C33.08 133.78, 65.45 94.08, 146.52 -1.26 M0.4 170.04 C57.63 107.2, 114.33 42.34, 148.85 0.32 M1.58 176.92 C57.74 112.76, 114.21 47.46, 152.14 -0.61 M1.09 176.29 C52.28 115.67, 104.74 55.81, 153.28 0.21 M-0.53 182.96 C31.01 147.03, 61.82 108.68, 160.23 1.76 M0.61 183.59 C36.24 142.35, 74.29 100.54, 158.33 -0.59 M-1.74 188.06 C52.53 128.79, 101.87 69.94, 164.6 1.21 M-0.12 188.93 C55.32 124.06, 112.1 60.66, 165.04 -0.65 M-0.07 195.91 C62.93 121, 124.05 51.1, 168.35 1.33 M-0.15 195.58 C38.4 151.87, 76.47 108.21, 169.93 -0.42 M-0.08 201.29 C40.14 155, 79.11 108.93, 176.39 0.35 M-0.78 201.02 C62.61 131.53, 124.36 59.84, 174.75 0.43 M-0.97 206.68 C59.63 137.2, 117.65 71.2, 178.54 -0.31 M0.14 206.7 C62.51 135.11, 125.22 61.59, 180.62 -0.2 M-1.24 214.4 C38.61 168.13, 77 125.31, 187.13 0.26 M-0.49 213.16 C52.65 153.35, 104.21 93.39, 185.09 0.17 M0.32 220.9 C53.8 159.09, 103.37 100.33, 191.84 1.44 M-0.62 220 C48.04 165.93, 94.33 111.88, 190.55 0.88 M0.69 224.42 C61.97 151.18, 125.11 78.02, 196.85 0.66 M-0.02 225.41 C53.01 164.08, 104.79 105.01, 196.71 0.34 M0.4 232.24 C69.76 150.81, 138.92 70.59, 200.83 1.49 M0.37 231.83 C68.24 153.73, 136.06 75.58, 201.16 0.8 M-0.17 236.97 C46.57 184.63, 93.48 130.21, 205.97 0.94 M-0.18 237.99 C55.72 177.29, 108.68 114.43, 207.15 -0.21 M0.49 242.52 C66.18 168.31, 130.57 92.12, 210.59 0.69 M-0.64 244.01 C65.82 169.59, 130.48 95.87, 212.1 -0.6 M-0.98 249.1 C71.93 164.2, 146.09 80.13, 217.89 0.23 M0.21 250.65 C55 186.79, 110.23 122.98, 218.25 -0.91 M-0.12 255.01 C55.16 192.52, 110.25 128.56, 223.16 -0.55 M0.24 256.32 C56.7 193.78, 111.3 131.23, 222.89 -0.63 M0.24 261.04 C61.38 193.9, 120.07 125.39, 228 0.09 M-0.07 262.5 C54.69 196.44, 110.91 132.33, 228.75 0.19 M0.82 267.05 C61.25 197.15, 123.86 126.41, 232.87 0.37 M-0.27 267.43 C65.53 192.33, 129.48 118.76, 232.99 0.63 M1.21 274.71 C85.42 175.62, 170.7 76.11, 237.05 -0.22 M-0.2 273.73 C63.53 198.19, 129.28 122.2, 238.07 0.63 M-0.02 281.71 C52.13 220.57, 104.17 158.74, 242.62 0.39 M0.39 280.83 C84.23 184.69, 168.49 87.81, 244.22 -0.47 M0.85 285.97 C98.82 175.75, 197.67 62.1, 247.87 1.03 M-0.27 286.41 C99.02 170.35, 197.94 56.05, 248.62 -0.06 M-0.96 292.08 C83.02 194.98, 168.14 99.72, 255.14 -0.97 M0.23 292.72 C54.99 228.37, 110.86 164.24, 254.46 0.23 M0.86 297.97 C73.27 216.69, 144.64 134.61, 259.02 0.12 M0.63 297.84 C79.1 209.86, 157.13 119.15, 259.38 -0.09 M0.2 305.37 C61.72 234.33, 120.37 164.51, 264 0.07 M0.15 304.38 C78.1 213.7, 157.47 121.69, 265.15 -0.39 M0.07 311.62 C82.42 213.64, 165.32 119.73, 270.15 -0.36 M0.26 311.02 C78.18 220.22, 156.69 130.4, 269.89 0.43 M-0.32 315.98 C80.74 223.98, 160.98 132.13, 274.86 -0.02 M0.28 316.32 C56.62 253.09, 113.57 187.47, 275.23 -0.52 M-0.35 323.18 C101.67 204.79, 205.18 87.96, 281.21 -0.61 M-0.45 323.32 C84.74 228.61, 167.96 132.11, 280.71 0.48 M0.69 329.2 C78.86 238.02, 156 147.8, 286.51 -0.34 M0.57 329.14 C107.15 205.77, 215.88 81.12, 286.73 -0.56 M-0.93 335.31 C82.66 238.11, 165.64 142.19, 290.42 0.92 M0.4 335.65 C81.67 240.35, 163.87 146.63, 291.16 0.37 M-0.32 342.13 C96.82 232.56, 191.95 122.47, 296.25 -0.41 M0.21 341.27 C85.8 240.53, 172.7 140.57, 297.32 0.24 M0.54 347.43 C94.54 240.82, 186.72 133.44, 302.25 -0.39 M0.03 347.37 C68.22 270.05, 136.17 191.8, 301.53 0.43 M-0.51 353.76 C104.14 235.37, 207.72 114.53, 307.65 -0.05 M0.28 354.01 C76.92 267.09, 151.87 180.71, 307.78 -0.15 M0.71 358.87 C66.92 280.08, 135.13 200.59, 313.37 0.42 M0.58 358.92 C107.06 238.5, 212.63 116.77, 312.8 0.19 M0.89 365.01 C66.81 288.66, 133.52 211.17, 318.56 -1.05 M-0.16 366.17 C113.13 236.39, 225.12 107.37, 318.58 -0.65 M-0.17 372.97 C127.53 225.55, 255.33 78.74, 323.02 0.38 M-0.39 372.38 C83.46 277.96, 164.96 183.38, 323.17 0.2 M0.37 377.45 C67.47 300.63, 134.24 222.64, 329.15 -0.19 M0.16 377.92 C120.6 240.31, 240.23 102.63, 329.21 -0.3 M0.13 383.78 C129.02 236.61, 258.32 88.71, 333.97 0.12 M0.08 384.21 C74.93 296.85, 151.22 209.2, 334.24 0.2 M-0.1 390.62 C117.14 253.06, 234.46 118.06, 339.71 0.36 M0.65 389.49 C83.66 293.14, 168.75 195.51, 339.15 -0.54 M0.37 395.75 C106.61 274.6, 213.86 150.27, 344.08 -0.09 M0.35 395.88 C121.02 258.78, 240.33 121.37, 344.19 0.09 M-0.87 403.2 C88.2 298.43, 177.93 196.73, 350.05 0.77 M0.08 402.69 C69.81 321.59, 141.3 239.09, 349.47 0.53 M0.24 409.05 C98.21 298.15, 193.76 188.04, 354.73 -0.17 M0.17 408.1 C113.75 279.46, 226.33 150.11, 355.11 -0.15 M-0.06 414.57 C113.04 287.64, 224.75 158.88, 360.55 0.32 M-0.17 414.8 C91.15 310.11, 179.86 207.29, 359.93 0.24 M-1.07 421.22 C123.33 277.54, 246.6 135.79, 365.88 -0.24 M-0.69 420.86 C100.47 307.63, 200.2 193.09, 365.79 -0.45 M0.84 426.17 C102.91 308.47, 204.82 191.08, 371.4 0.36 M0.06 427.04 C85.77 329.83, 170.05 232.73, 370.61 0.68 M-0.57 433.73 C134.01 276.43, 269.77 120, 376.1 -0.6 M-0.57 432.79 C139.79 272.7, 278.67 111.94, 376.53 0.18 M-0.4 438.48 C109.09 313.12, 219.3 186.71, 382.08 -0.33 M-0.16 438.41 C80.05 344.91, 161.78 250.65, 381.35 0.08 M-0.25 445.31 C138.68 284.08, 277.28 123.19, 387.36 -0.18 M0.12 444.87 C152.31 270.7, 304.21 95.18, 386.71 -0.37 M-0.07 450.94 C99.68 339.02, 199.16 225.36, 392.26 0.03 M-0.08 451.94 C117.56 315.41, 236.78 178.87, 391.89 -0.04 M0.34 456.97 C134.1 304.38, 268.73 149.83, 397.02 0.31 M-0.07 457.44 C139.04 295.36, 278.2 134.4, 398.03 -0.13 M-0.3 463.73 C103.71 345.44, 208.78 224.42, 403.39 -0.18 M-0.3 463.7 C85.49 363.88, 171.31 265.74, 402.68 0.38 M0.28 469.46 C106.06 343.49, 214.46 220.08, 409.05 -0.05 M0.49 469.32 C111.91 340.45, 225.12 210.71, 408.08 -0.21 M-0.17 475.89 C152.73 299.26, 304.15 125.59, 413.95 0.43 M-0.28 475.34 C119.71 337.09, 240.54 198.06, 413.26 -0.15 M-0.22 482.55 C122.34 341.39, 242.33 203.16, 419.6 -0.76 M-0.52 481.81 C97.13 373.69, 192.49 263.76, 419.15 -0.03 M0.47 487.09 C89.89 382.85, 179.83 279.35, 424.2 -0.15 M0.27 487.83 C131.67 336.54, 263.5 185.17, 423.88 0.21 M-0.39 493.5 C142.14 327.74, 283.92 164.07, 429.86 0.04 M-0.33 494.03 C125.04 350.9, 247.96 208.24, 429.44 -0.51 M0.4 500.03 C88.35 396.1, 176.9 293.67, 434.6 0.66 M-0.06 499.86 C114.47 366.65, 228.94 234.01, 434.66 0.19 M0.38 506.45 C128.84 355.32, 259.66 205.19, 439.58 -0.75 M0.14 505.87 C160.52 320.89, 320.66 136.63, 440.23 -0.06 M-0.47 513.14 C145.68 340.73, 294.09 170.99, 445.82 0.44 M-0.24 512.57 C167.35 322.74, 334.34 131.17, 444.86 0.23 M0.36 518.19 C110.47 387.67, 224.25 258.84, 450.32 -0.06 M-0.27 518.15 C177.78 313.63, 354.68 110.26, 451.13 -0.2 M-0.07 524.01 C160.77 340.36, 321.33 156.51, 455.54 -0.22 M-0.55 524.92 C129.7 374.63, 259.16 225.98, 456.02 0.06 M-0.38 530.09 C113.73 401.14, 227.36 270.27, 460.66 0.22 M0.39 530.22 C151.2 354.79, 302.21 180.94, 461.61 -0.74 M0.31 537.05 C93.14 426.57, 187.56 318.98, 466.4 0.66 M-0.17 536.66 C125.54 392.06, 249.46 249.71, 466.38 0.31 M-0.65 542.51 C141.01 377.78, 283.02 214.5, 471.91 0.31 M0.09 543.06 C168.38 350.54, 335.44 157.69, 471.22 0.14 M0.23 549.38 C187.26 337.37, 373.28 122.96, 476.48 0.06 M-0.09 548.47 C102.13 428.78, 205.28 310.44, 477.28 0.12 M-0.24 554.91 C105.23 435.32, 211.43 313.1, 482.74 -0.42 M-0.5 554.69 C136.12 399.06, 271.82 242.29, 482.17 0.53 M-0.53 561.05 C99.75 446.49, 200.27 332.63, 487.25 -0.42 M0.16 560.34 C124.62 416.94, 248.22 274.38, 487.57 0.31 M-0.77 567.24 C182.57 356.28, 364.5 147.52, 493.26 -0.51 M-0.4 567.1 C166.87 374.05, 335.8 179.65, 492.98 0.06 M-1.06 572.72 C151.39 396.83, 302.9 223.12, 498.76 0.6 M-0.46 573.09 C162.97 387.93, 325.28 200.3, 498.38 0.22 M0.24 578.47 C153.66 405.68, 305.48 230, 502.83 0.51 M0.34 579.23 C200.83 349.1, 399.86 120.39, 503.55 0.11 M0.1 585.77 C166.01 392.38, 332.64 202.2, 509.69 -0.51 M-0.37 585.4 C101.88 466.71, 205.37 347.2, 509.16 0.08 M0.65 590.59 C175.24 388.9, 349.69 186.65, 514.23 -0.28 M-0.06 590.9 C165.61 399.87, 330.8 210.02, 513.68 0.57 M-0.52 597.22 C143.58 428.89, 288.89 262.48, 518.9 0.44 M-0.01 597.51 C145.78 430.52, 291.99 262.41, 519.25 -0.57 M-0.53 604.55 C200.1 373.72, 401.15 143.12, 524.02 0.41 M-0.09 603.61 C120.99 465.97, 242.36 327.04, 524.64 -0.18 M0.83 609.56 C188.29 394.46, 374.77 180.3, 530.26 -0.55 M-0.1 609.81 C200.96 377.52, 402.95 145.92, 530.29 -0.5 M-0.52 615.61 C161.18 432.44, 320.73 249.24, 535.36 0.88 M-0.4 615.87 C137.49 459.88, 274.1 301.9, 535.25 0.34 M0.12 621.89 C162.79 434.42, 325.07 246.13, 541.42 0.29 M0.14 621.98 C188.07 408.51, 375.64 192.67, 540.63 0.02 M0.1 627.51 C187.34 414.8, 373.33 202.14, 545.22 0.79 M0.28 627.78 C195.55 405.31, 389.39 182.27, 545.78 -0.08 M-0.74 633.83 C144.89 463.99, 291.34 297.17, 551.87 0.14 M-0.03 634.54 C138.01 478.37, 276.1 319.5, 551.71 0.02 M-0.03 639.85 C184.84 429.32, 368.55 217.98, 557.17 -0.37 M-0.19 640.37 C171.55 440.84, 344.12 240.94, 556.44 0.43 M-0.87 645.76 C196.81 420.7, 394.32 191.89, 562.86 -0.8 M-0.32 646.69 C218.83 396.69, 435.72 147.24, 562.47 -0.56 M-0.42 652 C145.79 483.43, 295.23 312.7, 566.97 -0.1 M-0.07 652.37 C189.43 436.43, 377.67 218.63, 567.31 -0.14 M0.44 658.52 C142.26 494.23, 286.03 330.91, 572.66 -0.96 M-0.08 658.35 C160.56 474.95, 319.42 292.61, 572.55 -0.09 M-1.07 665.5 C178.18 456.24, 359.23 247.93, 576.98 0.66 M0.02 664.96 C145.88 497.41, 292.07 328.63, 577.58 0.3 M-0.04 670.4 C122.96 523.59, 250.32 377.98, 582.27 0.21 M0.26 670.4 C156.56 492.11, 312.13 313.08, 582.43 0.72 M0.19 676.23 C134.51 518.15, 270.92 361.19, 588.17 -0.78 M-0.27 677.18 C197.24 452.75, 393.02 228.23, 587.95 -0.07 M-0.56 682.68 C170.54 485.74, 343.47 286.66, 593.28 0.78 M0.2 682.24 C193.06 458.64, 387.19 234.91, 593.68 0.59 M0.59 688.53 C202.7 456.39, 405.58 223.87, 598.52 0.64 M-0.14 688.81 C151.96 518.54, 301.45 346.45, 599.02 0.22 M0.2 695.6 C170.43 502.77, 339.42 308.85, 603.9 0.88 M0.09 695.69 C153.02 519.28, 307.5 341.9, 604.18 0.61 M-0.23 700.98 C204.9 467.96, 406.77 235.11, 609.37 0.23 M0.14 701.37 C194.62 478.3, 387.38 257.06, 609.66 -0.43 M-0.68 706.93 C229.72 445.63, 458.97 183.48, 614.79 -0.29 M-0.28 707.24 C165.56 518.22, 331.01 328.13, 614.77 0.4 M0.82 713.57 C175.22 510.09, 353.05 306.24, 620.71 -0.55 M0.22 713.32 C163.8 526.33, 327.31 338.19, 620.28 -0.35 M0.11 719.72 C204.39 487.26, 408.06 252.33, 625.21 -0.55 M0.03 719.71 C132.02 565.21, 266.59 410.66, 625.39 0.51 M-0.07 725.23 C158.41 542.52, 316.27 362.29, 631.09 -0.4 M-0.22 725.52 C159.85 544.6, 318.02 361.75, 631.16 -0.16 M0.33 731.24 C177.17 526.35, 352.38 323.62, 636.24 0.48 M0.12 731.3 C230.78 463.99, 462.04 197.48, 635.88 -0.03 M0.29 737.24 C156.03 559.85, 312.2 379.86, 640.88 0.15 M-0.42 737.51 C169.09 544.79, 336.23 351.27, 641.7 -0.36 M-0.46 743.38 C216.61 490.5, 434.56 238.56, 645.93 -0.21 M0.57 743.47 C139.25 586, 277.14 428.08, 646.8 0.3 M0.1 749.74 C175.4 547.6, 349.15 346.67, 652.25 0.41 M-0.1 749.57 C196.58 521.96, 394.31 294.38, 652 -0.57 M0.07 756.99 C256.44 456.31, 516.33 159.67, 657.36 0.55 M-0.38 756.19 C183.2 543.23, 368.15 330.73, 656.97 -0.05 M0.04 761.91 C193.81 536.26, 387 313.18, 662.75 -0.57 M-0.01 762.14 C141.49 603.09, 280.53 443.83, 662.83 -0.33 M-0.03 768.83 C205.24 532.58, 407.17 299.37, 667.39 -0.63 M-0.23 768 C209.97 524.58, 420.38 282.51, 667.54 -0.15 M0.96 774.34 C183.74 564.83, 366.03 355.84, 673.37 -0.67 M0.58 774.15 C157.64 588.27, 317.69 404.42, 673.31 -0.63 M0.38 780.95 C205.51 545.84, 410.92 309.09, 677.88 0.61 M-0.13 780.66 C193.09 556.36, 385.97 335.04, 677.96 0.22 M0.08 786.57 C217.25 535.36, 435.77 283.57, 683.66 0.36 M0.07 786.98 C188.67 575.23, 375.48 360.85, 684.01 0 M0.04 792.82 C140 632.4, 280.56 470.88, 689.3 0.46 M0.1 792.84 C265.39 489.39, 530.81 183.72, 689.16 -0.2 M-0.03 798.87 C236.15 524.99, 475.08 250.03, 694.98 -0.57 M-0.49 799.07 C152.61 623.61, 305.85 447.65, 694.62 -0.06 M-0.47 803.74 C271.11 491.11, 544.51 177.53, 699.12 -0.28 M0.55 804.13 C166.52 612.75, 333.68 420.95, 699.6 -0.18 M-0.15 810.38 C148.95 641.57, 296.64 472.5, 704.4 1.13 M0.28 811.19 C150.8 634.13, 302.3 458.87, 704.24 0.79 M-1.05 816.74 C160.06 636.61, 317.23 454.29, 703.24 8.1 M-0.23 817.37 C205.84 581.09, 410.25 345.74, 703.44 7.57 M-0.23 822.49 C260.32 520.68, 520.08 221.45, 704.2 12.59 M0.33 822.68 C151.44 648.35, 303.94 472.9, 704.48 13.39 M0.59 829.2 C169.31 635.79, 338.6 440.73, 703.76 19.78 M-0.25 829.23 C150.35 656.02, 299.3 484.78, 703.95 19.86 M0.01 834.77 C175.1 633.45, 346.6 435.47, 703.28 26.69 M-0.1 835.37 C145.14 669.45, 290.09 502.51, 703.26 25.8 M0.15 842.16 C243.9 559.73, 490.38 275.59, 704.26 32.01 M-0.36 841.14 C206.71 601.89, 415.4 361.46, 704.03 31.28 M0.38 847.38 C162.9 657.49, 327.58 466.59, 703.52 38 M0.07 847.96 C278.7 529.94, 554.76 212.48, 703.58 37.7 M0.6 854.1 C168.75 657.89, 337.21 465.1, 704.62 43.18 M-0.08 853.1 C190.06 638.15, 377.3 421.96, 704.09 43.49 M-0.35 859.57 C222.06 609.18, 439.81 358.88, 703.43 49.57 M-0.2 860.15 C143.82 690.38, 290.53 520.97, 703.98 50.34 M0.3 864.9 C258.9 568.98, 516.02 274.17, 704.26 57.02 M0.19 865.17 C186.92 650.12, 375.79 433.57, 703.85 56.55 M-0.38 871.1 C153.4 691.47, 309.61 511.61, 703.96 61.87 M-0.02 871.65 C218.19 616.35, 437.98 363.35, 704.35 61.88 M0.37 878.21 C254.85 582.29, 512.55 285.31, 703.13 68.41 M0.08 878.31 C190.49 659.37, 381.82 439.11, 704.04 68.4 M-0.22 883.95 C207.67 646.48, 413.04 410.62, 704.7 73.6 M0.44 883.89 C274.9 570.63, 549.06 256.3, 703.69 73.82 M-0.73 890.4 C180.4 688.12, 358.42 483.19, 704.27 80.69 M-0.51 890.47 C192.17 668.78, 383.48 448.52, 704.15 80.12 M-0.22 896.7 C156.09 719.1, 308.12 544.37, 703.14 87.19 M0.13 895.99 C241.86 615.75, 483.89 337.49, 703.43 86.89 M0.13 903.11 C148.55 733.51, 295.38 564.86, 703.52 93.05 M0.27 902.01 C206.87 665.06, 411.48 429.66, 704.23 92.15 M0.43 908.49 C188.55 686.73, 380.07 467.57, 703.77 99.41 M-0.36 908.74 C222.54 657.7, 442.22 404.81, 703.68 98.86 M0.5 913.81 C280.41 590.61, 560.26 268.11, 703.36 104.46 M0.01 914.21 C263.41 610.29, 525.47 308.17, 704.21 104.22 M-0.09 920.79 C210.79 672.61, 425.15 427.5, 704.49 110.71 M-0.18 920.77 C175.86 715.53, 352.33 512.48, 704.07 110.68 M-0.24 926.21 C248.21 639.26, 497.6 352.88, 704.2 117.67 M0.19 926.03 C271.96 609.59, 546.19 294.71, 703.29 117.71 M-0.56 932.35 C236.79 663.59, 471.58 392.66, 704.07 123.76 M0.26 933.07 C242.25 655.64, 484.88 376.46, 703.99 122.62 M0.01 939.74 C272.59 629.47, 545.26 315.8, 703.81 129.75 M-0.04 938.94 C164.56 746.77, 330.88 554.83, 703.32 129.45 M-0.54 944.15 C259.63 652.18, 515.39 356.08, 704.68 134.66 M0.29 945.16 C140.7 780.04, 281.72 617.36, 704.33 135.07 M-0.87 951.36 C271.8 642.41, 541.3 333.63, 704.6 141.44 M-0.48 951.39 C163.9 759.61, 329.06 569.62, 704.08 141.83 M0.66 956.98 C253.94 659.18, 511.49 364.33, 703.22 148.05 M-0.03 956.69 C177.97 755.21, 355.45 550.79, 703.64 147.67 M-0.38 963.33 C144.83 799.68, 286.29 637.93, 703.45 154.13 M0.2 963.42 C231.64 695.64, 463.1 429.25, 704.32 153.38 M0.04 968.96 C199.07 738.64, 401.28 506.82, 703.57 159.69 M-0.63 969.73 C250.29 678.87, 501.61 390.1, 703.92 160.29 M0.06 975.32 C193.64 747.59, 389.89 522.79, 703.81 165.8 M-0.11 975.22 C205.77 738.25, 409.8 502.54, 704.28 165.94 M-0.02 982.18 C176.48 780.25, 351.61 578.12, 703.05 172.23 M-0.35 981.82 C278.86 656.52, 559.74 333.28, 703.49 171.96 M0.81 986.82 C158.05 803.65, 317.13 620.19, 703.89 178.18 M0.4 987.08 C223.16 729.5, 445.46 474.66, 703.44 178.18 M1.45 992.12 C248.06 707.86, 495.64 423.7, 704.62 184.15 M1.87 991.37 C204.05 759.85, 405.46 528.96, 703.66 184.27 M7.4 991.16 C164.99 809.86, 323.83 626.95, 704.08 190.56 M6.76 991.82 C165.56 811.11, 321.64 631.81, 703.96 190.64 M12.49 991.2 C199.75 778.41, 385.78 564.05, 703.44 195.33 M13.02 991.67 C256.96 712.36, 501.14 432.07, 704.02 195.71 M17.97 992.06 C188.94 796.01, 357.94 601.95, 704.57 202.67 M17.96 992.14 C198.78 787.41, 377.78 580.39, 703.53 202.2 M23.02 992.23 C192.23 799.56, 360.56 605.57, 703.83 209.42 M23.33 991.07 C267.4 714.15, 508.97 436.31, 703.4 208.8 M27.94 991.32 C174.3 821.34, 320.2 652.99, 703.25 214.9 M28.34 991.57 C230.18 760.51, 432.87 527.6, 703.59 214.29 M33.33 991.59 C240.83 754.76, 448.62 514.76, 704.25 221.19 M33.83 991.39 C220.11 775.93, 405.97 562.2, 704.11 220.73 M38.48 992.42 C204.44 804.68, 368.57 616.21, 704.57 225.83 M38.5 991.58 C195.51 815.25, 350.34 636.27, 703.87 226.85 M43.86 991.86 C213.54 797.21, 383.03 603.36, 704.63 232.28 M44.67 991.38 C262.13 740.29, 478.2 491.51, 703.98 232.63 M49.37 992.26 C194.49 822.14, 340.64 652.06, 702.94 239.4 M49.72 991.35 C298.12 704.78, 549.19 415.85, 703.37 239.06 M55.28 990.64 C222.02 797.56, 389.34 605.9, 704.12 244.97 M55.09 991.46 C276.13 736.46, 496.34 483.17, 703.81 244.98 M60.56 992.31 C195.25 836.46, 330.88 679.82, 702.94 250.69 M60.01 991.77 C251.55 770.69, 442.67 551.59, 703.74 251.15 M65.27 991.69 C232.68 798.32, 398.55 605.56, 703.7 256.55 M65.82 991.36 C303.02 719.82, 539.1 447.36, 704.28 256.77 M70.61 992.27 C225.8 816.2, 378.37 639.95, 704.18 263.23 M70.45 991.42 C285.3 742.84, 501.75 494.66, 703.77 263.31 M76.49 990.61 C325.72 709.03, 572.04 423.94, 703.86 269.65 M76.72 990.93 C265.87 770.42, 456.47 551.57, 703.74 269.43 M81.5 991.6 C283.83 758.7, 485.51 525.88, 703.93 274.81 M81.24 991.38 C279.79 763.87, 475.73 537.78, 704.39 275.06 M86.34 991.54 C301.03 743.63, 516.35 495.21, 704.1 281.26 M86.07 991.64 C238.19 817.37, 391.87 641.21, 703.99 281.44 M92.2 991.21 C242.67 818.79, 393.77 645.94, 704.44 287.81 M91.67 991.23 C239.01 821.24, 385.37 653.42, 704.06 287.65 M97.61 991.35 C218.62 849.51, 341.68 706.04, 703.71 293.6 M97.21 992.02 C299.66 755.37, 504.34 519.62, 703.96 293.63 M101.86 991.77 C325.4 733.83, 549.02 478.09, 704.34 300.38 M102.53 991.47 C315.2 745.48, 529.93 498.64, 703.65 299.95 M108.1 992.18 C226.7 852.53, 348.74 711.79, 704.47 306.38 M107.45 992.16 C301.04 767.5, 496.33 542.89, 703.94 306.2 M113.05 992.16 C248.69 833.83, 383.99 680.06, 704.4 312.98 M112.91 991.87 C315.36 760.7, 516.35 529.32, 703.52 312.69 M118.08 992.01 C338.31 740.43, 557.39 488.88, 703.54 317.46 M118.62 992.28 C239.92 854.52, 359.74 716.9, 704.14 317.81 M123.74 991.08 C314.18 771.61, 507.29 548.77, 703.62 324.96 M124.2 991.51 C291.19 798.14, 456.96 607.13, 703.56 324.17 M129.62 991.83 C306.35 785.76, 484.81 581.13, 704.03 330.09 M129.27 991.93 C345.58 744.6, 560.72 497.15, 703.98 330.41 M135.29 991.8 C345.67 751.33, 555.38 510.18, 703.48 336.3 M134.5 991.18 C311.11 785.82, 490.38 580.19, 704.21 336.01 M140.18 992.43 C357.87 743.65, 575.98 492.95, 703.22 343.44 M139.42 991.54 C290.29 815.36, 442.93 639.29, 703.97 342.97 M144.47 991.02 C368.04 733.92, 588.66 479.5, 704.04 348.39 M145 991.76 C352.39 754.08, 558.79 516.44, 704.21 348.34 M150.63 991.18 C343.02 767.17, 536.38 545.32, 704.61 355.55 M149.84 991.64 C347.96 765.56, 543.51 540.23, 704.14 354.43 M156.25 991.61 C292.48 831.58, 430.88 673.11, 703.3 361.56 M156 991.03 C276.52 851.61, 399.55 710.19, 703.95 361.35 M160.43 991.68 C336.39 790.03, 513.67 588.3, 704.58 366.72 M161.16 992.05 C323.62 804.16, 488.24 614.16, 704.29 367.07 M166.18 991.46 C354.31 775.96, 540.23 562.52, 703.06 373.69 M166.07 991.68 C314.74 822.26, 461.21 654.16, 704.08 373.07 M170.84 992.5 C285.02 861.89, 396.53 733.36, 704.49 378.61 M171.52 991.93 C291.69 850.03, 414.36 709.41, 704.11 379.28 M176.45 991.45 C317.51 831.83, 457.28 671.53, 703.31 384.72 M176.93 991.68 C355.89 788.18, 532.88 585.42, 703.99 385.49 M181.74 992.04 C325.93 826.17, 469.95 660.49, 703.64 391.87 M182.16 992.09 C321.59 833.67, 460.08 673.96, 703.34 391.89 M187.8 990.67 C376.8 771.94, 566.35 554.45, 703.32 396.83 M187.74 991.53 C322.61 837.06, 456.49 683.59, 703.62 397.53 M193.19 991.66 C381.97 770.67, 571.47 550.5, 703.52 403.08 M192.63 991.86 C383.12 773.56, 572.48 555.89, 703.57 403.57 M197.35 991.96 C396.22 764.18, 593.28 536.72, 704.16 408.81 M197.77 991.75 C357.28 807.08, 516.99 623.81, 704.41 409.02 M203.85 990.97 C367.09 806.69, 529.69 619.94, 703.83 415.68 M203.17 991.5 C366.15 803.04, 528.48 615.76, 703.56 416.17 M207.59 992.49 C330.23 854.04, 449.47 714.9, 703.23 421.59 M208.1 992.33 C402.86 764.66, 599.59 538.74, 703.85 422.27 M214.2 990.94 C374.01 810.2, 532.08 626.72, 703.55 427.34 M213.92 991.31 C381.46 799.61, 548.22 608.06, 704.18 427.66 M219.21 991.5 C321.36 873.6, 423.08 756.87, 703.32 433.66 M218.58 991.59 C326.99 865.86, 437.32 738.63, 703.69 434.18 M224.89 990.77 C391.11 798.62, 560.01 603.88, 703.43 440.35 M224.92 991.75 C344.83 854.24, 462.69 718.47, 703.83 440.13 M228.99 992.07 C397.09 797.84, 565.94 603.19, 703.83 445.54 M229.59 992.03 C394.41 801.43, 560.96 609.72, 703.63 446.46 M235.19 991.02 C401.55 804.3, 564.35 615.06, 703.79 452.76 M235.32 991.73 C377.33 828.93, 519.9 664.95, 703.35 452.52 M240.28 992.3 C388.13 822.78, 533.61 654.42, 703.44 458.43 M239.83 992.22 C397.01 809.82, 553.48 629.11, 703.89 458.52 M246.17 992.09 C358.5 862.01, 470.29 732.92, 703.9 464.93 M245.75 991.1 C427.66 784.93, 609.24 575.97, 703.83 464.79 M250.26 991.66 C385.84 839.43, 518.33 685.48, 704.2 470.11 M251.1 991.66 C427.69 792.75, 602.63 591.28, 703.83 470.71 M255.89 990.96 C406.29 821.53, 554.86 650.81, 704.47 476.12 M256.77 991.39 C358.16 872.82, 461.51 755.09, 703.53 476.9 M261.09 991.04 C386.15 847.74, 509.85 705.2, 702.92 483.72 M261.07 991.51 C401.96 833, 540.29 673.3, 703.62 483.4 M267.42 990.82 C392.78 848.94, 518.08 705.06, 703.87 489.39 M267.2 991.03 C413.85 822.56, 561.47 652.24, 704.43 488.91 M271.94 991.12 C375.74 871.68, 479.01 752.72, 703.39 495.13 M272.16 991.46 C431.08 808.71, 589.92 625.3, 703.73 494.83 M277.63 991.45 C427.77 817.72, 579.22 643.14, 703.87 501.23 M277.4 991.75 C396.15 854.63, 516.12 716.78, 704.41 501.02 M282.17 992.39 C410.76 845.87, 537.76 699.78, 704.41 507.08 M282.63 992.1 C374.88 886.27, 467.07 780.26, 704.14 507.18 M288.38 990.83 C439.54 817.5, 588.61 645.87, 704.17 513.49 M288.41 991.38 C386.84 876.96, 487.19 762.86, 703.82 513.45 M292.95 991.94 C446.35 815.7, 600.71 636.7, 704.05 519.76 M293.1 991.72 C440.9 818.84, 590.32 646.32, 703.8 519.59 M298.53 991.55 C421.87 851.68, 544.43 710.41, 703.46 525.54 M298.76 991.07 C389.92 887.75, 480.46 783.23, 704.07 525.89 M304.04 991.43 C446.28 829.41, 588.04 667.05, 703.77 531.55 M304.06 991.88 C431.49 844.03, 559.64 696.1, 703.93 531.28 M310.35 991.2 C447.7 832.29, 587.52 671.95, 703.43 537.22 M309.31 991.23 C413.45 868.88, 518.74 747.99, 703.68 537.97 M313.81 992.37 C429.44 862.95, 543.11 731.95, 702.98 544.59 M314.28 991.88 C407.42 884.28, 499.34 777.49, 703.44 543.95 M319.25 992.71 C420.92 876.1, 521.33 759.54, 703.47 549.01 M319.33 992.36 C407.52 893.11, 493.88 794.2, 704.16 549.48 M325.62 991.24 C409.36 892.83, 494.08 795.8, 703.27 555.36 M324.87 991.89 C431.79 867.14, 539.06 743.13, 703.87 556.32 M330.81 991.75 C461.44 842.24, 591.67 690.82, 704.72 561.19 M329.99 991.99 C474.71 828.28, 617.68 663.38, 704.48 561.89 M336.65 992.31 C471.9 836.65, 606.87 681.29, 704.44 568.79 M336.02 991.41 C428.59 884.15, 522.79 775.75, 703.91 567.87 M340.84 992.47 C455.25 859.21, 570.27 729.12, 703.11 574.62 M341.16 991.59 C432.44 888.48, 522.78 784.65, 703.7 574.34 M345.85 991.68 C453.22 868.43, 559.25 744.12, 703.95 580.86 M346.23 991.61 C480 838.26, 613.38 684.56, 704.41 579.84 M350.81 991.66 C432.77 897.03, 513.92 803.96, 703.11 586.05 M351.69 992 C477.48 847.52, 602.27 703.38, 703.5 586.22 M357.19 991.62 C491.07 837.26, 624.91 682.41, 704.27 592.17 M357.07 991.37 C456.38 877.32, 554.7 764.71, 704.5 591.96 M362.37 992.28 C481.76 856.55, 600.8 719.23, 704.22 599.13 M361.92 991.77 C449.69 887.93, 539 785.37, 703.54 598.44 M368.44 991.03 C487.23 851.17, 609.47 711.31, 704.22 605.46 M367.65 991.28 C452.91 890.97, 538.87 792.65, 703.37 604.82 M372.59 992.34 C466.14 883.21, 561.56 774.95, 703.63 610.15 M372.89 991.9 C487.62 858.17, 603.45 725.51, 704 610.51 M379.17 991.79 C488.55 864.76, 597.73 739.86, 703.15 617.8 M378.56 991.23 C504.04 847.12, 630.05 702.11, 703.68 616.84 M383.56 991.19 C462.53 903.61, 539.83 813.88, 703.45 623.21 M383.15 991.96 C455 907.51, 528.19 824.06, 704.17 622.8 M389.13 990.72 C514.15 847.47, 639.92 704.02, 703.48 629.96 M388.66 991.17 C513.32 848.38, 638.99 705.01, 703.59 628.79 M394.34 991.23 C516.99 851.79, 638.85 711.42, 703.92 634.81 M394.39 991.52 C497.75 874.63, 600.19 757.41, 703.36 635.77 M399.92 991.03 C461.53 921.09, 521.86 851.35, 703.7 641.65 M400.08 991.23 C470.5 909.69, 541.27 828.12, 704.35 640.83 M404.03 991.5 C492.41 892.6, 576.56 795.3, 703.97 647.38 M404.84 992.07 C498.82 881.67, 592.69 773.75, 703.64 647.63 M409.96 990.65 C525.33 860.33, 637.67 729.47, 704.09 652.25 M410.5 991.64 C486.44 901.49, 563.27 813.49, 704.46 653.25 M415.77 992.52 C485.57 911.94, 556 831.79, 704.2 660.36 M415.16 991.57 C492 902.66, 568.31 815.07, 704.17 659.93 M421.66 990.86 C524.28 873.18, 626.38 755.1, 704.65 665.68 M421.03 991.8 C499.88 900.67, 579.86 808.85, 703.33 666.27 M425.25 992.54 C524.15 877.42, 625.78 761.87, 704.32 671.8 M426.04 991.86 C505.96 900.79, 586.3 809.39, 703.55 671.66 M431.05 991.54 C516.75 894.96, 603.79 795.62, 703.36 677.52 M431.14 991.84 C517.8 891.65, 603.83 792.76, 703.32 677.86 M436.35 991.37 C520.83 894.15, 605.06 795.76, 704.27 683.5 M435.98 992.01 C522.98 893.17, 608.02 795.67, 704.33 683.97 M442.54 992.11 C494.76 927.86, 548.66 865.81, 704.95 689.21 M441.04 991.96 C493.62 928.77, 547.48 866.92, 703.76 690.56 M447.1 990.83 C539.31 885.41, 629.89 782.9, 703.61 695.82 M447.65 991.03 C526.73 898.76, 606.25 806.4, 704.18 696.79 M452.39 991.75 C545.41 884.55, 638.48 776.99, 704.32 701.3 M452.17 991.5 C510.35 927.49, 565.92 862.62, 704.5 701.91 M457.85 990.4 C531.79 907.37, 603.72 821.32, 704.22 708.88 M458.02 991.54 C518.72 918.68, 581.44 847.7, 703.44 709.02 M462.15 990.78 C540.45 901.93, 617.64 812.5, 703.1 714.14 M463.13 991.47 C527.06 916.26, 591.72 842.71, 703.93 714.09 M469.33 991.68 C552.35 897.47, 631.61 804.24, 703.88 719.96 M468.4 991.75 C550.48 898.25, 633.64 802.88, 703.97 720.75 M474.05 991.84 C553.16 901.14, 628.65 813.4, 702.93 725.95 M473.41 991.89 C532.6 924.34, 591.32 856.97, 703.22 726.74 M480.09 990.87 C540.92 922.57, 600.97 852.09, 703.73 732.57 M478.87 990.99 C531.25 929.1, 584.92 867.48, 704.61 732.73 M482.9 992.31 C549.26 918.33, 609.01 846.28, 702.78 740.05 M483.57 991.61 C556.87 908.37, 630.38 824.9, 704.33 738.52 M488.77 991.48 C534.95 934.7, 584.24 879.17, 705.46 744.99 M489.34 991.44 C570.98 898.22, 651.93 806.12, 703.8 744.62 M494.23 991.54 C578.08 896.39, 658.66 801.02, 705.18 751.21 M494.11 992.25 C551.71 924.97, 608.8 860.07, 704.37 750.6 M499.89 991.5 C565.06 913.8, 629.7 838.64, 705.01 758.46 M500.96 991.52 C547.97 933.48, 597.3 878.05, 703.21 756.94 M506.08 991.37 C561.59 929.37, 619.08 864.94, 705.45 763.78 M505.44 991.54 C556.61 931.4, 609.75 869.43, 703.47 763.61 M510.16 991.2 C564.55 930.93, 615.35 871.74, 703.05 768.69 M510.41 991.06 C578.21 913.47, 644.45 836.79, 703.67 769.62 M516.57 990.52 C579.99 921.77, 643.23 849.12, 703.93 777.14 M516.3 991.55 C579.54 917.58, 643.55 844.67, 703.96 776.21 M522.29 990.51 C585.09 919.3, 643.6 849.9, 704.8 782.08 M521.38 991.6 C561.14 943.63, 601.89 897.09, 703.79 782.15 M527.03 990.25 C581.11 929.45, 633.48 867.65, 703.49 787.8 M526.63 991.75 C586.27 922.35, 645.51 855.14, 704.15 787.8 M533.44 992.17 C595.23 918.37, 658.34 844.77, 704.61 791.98 M531.54 991.93 C571.29 946.05, 610.31 901.59, 704.13 793.28 M536.17 991.62 C591.01 929.17, 649.26 863.43, 702.47 800.31 M537.77 991.7 C590.89 930.06, 644.2 868.5, 704.57 800.38 M544.03 992.25 C606.83 918.52, 668.67 845.73, 702.36 807.61 M542.93 990.84 C599.33 926.01, 655.41 859.93, 702.78 805.85 M546.31 992.03 C601.49 931.62, 652.83 872.75, 703.45 811.92 M547.69 991.14 C580.7 953.73, 612.98 917.31, 704.7 812.25 M554.34 993.44 C584.8 956.38, 615.51 917.7, 703.86 819.62 M553.64 991.37 C612.41 923.88, 671.42 856.76, 702.86 819.23 M557.04 991.56 C614.51 928.99, 668.19 866.88, 702.88 822.49 M559.06 991.71 C600.4 942.9, 644.03 894.55, 703.75 823.41 M563.67 992.47 C617.47 930.08, 672.59 867.31, 703.4 830 M563.3 991.28 C619.65 929.56, 674.4 865.71, 703.77 830.14 M568.34 989.88 C613.66 938.38, 660.76 887.84, 703.67 835.78 M569.34 991.93 C614.02 939.24, 658.84 887.06, 703.49 836.62 M573.09 991.22 C607.1 951.73, 645.64 911.22, 702.86 843.38 M574.64 992.61 C600.55 960.4, 627.77 929.65, 703.5 843.33 M580.74 989.66 C610.95 956.5, 642.01 917.05, 704.31 849.56 M579.03 992.23 C618.9 947.71, 656.99 903.02, 704.12 849.22 M585.41 990.7 C633.14 936.12, 675.87 882.94, 705.38 852.87 M585.47 991.12 C622.1 948.88, 658.74 907.74, 703.39 854.81 M591.19 990.24 C626.17 948, 663.12 906.74, 705.08 859.2 M590.62 991.2 C613.13 963.07, 637.23 936.7, 703.33 860.79 M595.83 991.42 C619.97 962.06, 648.37 933.95, 701.65 867.39 M595.12 992.55 C618.44 963.17, 643 935.99, 704.02 867.23 M601.01 989.61 C637 948.64, 673.5 909.42, 703.65 874.51 M600.36 991.86 C627.85 963.7, 652.41 934.94, 703.19 872.36 M604.03 993.37 C632.95 959.2, 662.56 927.55, 704.9 881.12 M606.7 990.98 C632.39 961.5, 659.22 930.88, 703.68 879.3 M612.13 989.49 C636.26 963.57, 662.8 933.7, 702.18 884.97 M612.25 991.39 C636.77 961.46, 662.08 932.56, 703.58 885.28 M618.17 991.99 C650.69 952.42, 687.86 908.81, 702.89 890.05 M617.07 992.74 C635.18 970.04, 653.6 947.47, 704.45 892.22 M622.95 991.09 C641.44 971.24, 661.15 947.31, 702.69 896.3 M622 991.27 C651.58 956.48, 680.49 924.27, 703.43 897.89 M626.9 990.24 C656.14 958, 686.75 924.76, 704.53 904.87 M626.83 992.41 C645.62 969.48, 662.9 947.87, 704.79 902.71 M632.39 991.11 C658.88 963.93, 684.49 931.89, 705.65 911.43 M633.1 991.19 C662.43 959.5, 689.51 926.4, 703.42 910.5 M639.4 990.59 C653.6 975.38, 670.08 955.73, 703.23 915.81 M638.33 990.83 C660.65 966.24, 684.75 938.14, 704.96 915.72 M643.86 989.78 C662.91 969.55, 681.92 948.18, 702.07 923.09 M642.78 991.12 C663.14 969.34, 682.05 947.25, 704 921.96 M649.33 991.01 C669.05 969.02, 687.15 947.15, 704.25 929.31 M647.69 991.07 C669.34 968.34, 692.54 943.8, 704.26 929.21 M653.28 990.8 C672.69 968.92, 693.45 949.44, 704.12 934.74 M654.02 991.27 C666.46 976.28, 678.63 961.62, 704.02 934.59 M658.85 992.94 C668.32 977.56, 678.82 966.79, 703.33 941.1 M658.75 992.47 C677.34 971.55, 694.17 951.53, 703.74 941.13 M664.41 990.14 C679.31 974.42, 691.61 960.02, 704.45 945.33 M664.9 992.83 C680.53 974.25, 694.33 957.55, 704.09 944.98 M670.62 993.35 C679.29 984.09, 685.1 971.03, 702.71 952.62 M669.12 990.62 C679.11 980.82, 689.18 969.75, 704.23 951.94 M675.47 992.99 C681.97 982.1, 691.99 971.31, 703.57 958.1 M675.2 991.02 C684.27 982.61, 692.2 971.07, 703.9 958.71 M679.82 992.7 C685.34 983.95, 693.98 975.5, 705.81 964.1 M680.17 991.34 C687.02 981.93, 694.18 974.22, 704.95 963.6 M687.21 990.33 C693.67 985.27, 700.21 975.11, 704.47 969.47 M684.51 991.54 C689.73 986.04, 694.41 982.99, 702.87 971.36 M690.1 990.95 C696.65 986.73, 702.88 978.47, 704.54 975.24 M690.98 990.71 C694.95 986.89, 698.83 982.52, 704.89 976.32 M696.93 991.88 C697.89 989.68, 700.35 986.06, 704.33 982.15 M696.47 991.72 C697.7 990.42, 699.87 987.47, 704.06 982.94" stroke="#228be6" stroke-width="0.5" fill="none"></path><path d="M0.47 -0.49 C158.62 -2.64, 317.25 -3.03, 702.08 -0.32 M-0.33 -0.23 C233.57 -0.92, 467.67 -0.83, 702.42 -0.1 M701.9 0.01 C699.77 287.82, 699.29 575.96, 702.93 989.23 M702.24 -0.09 C699.2 202.65, 699.28 404.62, 702.26 989.91 M701.99 990.41 C492.44 991.28, 283.37 991.15, 0.13 989.33 M702.49 990.27 C476.57 992.2, 249.9 991.85, 0.02 989.9 M0.53 990.41 C-1.33 699.98, -1.73 409.14, -0.54 0.46 M-0.05 990.35 C-2.34 666.87, -2.71 343.26, 0 0.27" stroke="#495057" stroke-width="1" fill="none"></path></g><g stroke-linecap="round"><g transform="translate(1368.75 98.75) rotate(0 204.89319411658676 0.7332017623539286)"><path d="M0.07 0.14 C68.25 0.2, 340.65 0.83, 408.97 1.36 M-1.36 -0.83 C67.2 -0.15, 342.71 1.93, 411.14 2.29" stroke="#495057" stroke-width="1" fill="none"></path></g></g><g stroke-linecap="round"><g transform="translate(1366.25 1083.7499999999995) rotate(0 193.3448297888459 2.7274132146592365)"><path d="M-0.22 0.62 C64.43 1.23, 323.99 3.61, 388.48 4.35 M-1.79 -0.09 C62.73 0.59, 322.88 4.45, 388.05 5.55" stroke="#495057" stroke-width="1" fill="none"></path></g></g><g stroke-linecap="round"><g transform="translate(666.25 96.25) rotate(0 -236.9443659744319 -0.3921444911929939)"><path d="M-0.39 -0.21 C-79.52 0.09, -395.49 0.42, -474.7 0.58 M1.6 -1.37 C-77.66 -1.32, -395.77 -1.27, -475.49 -1.23" stroke="#495057" stroke-width="1" fill="none"></path></g></g><g stroke-linecap="round"><g transform="translate(666.25 1083.7499999999995) rotate(0 -242.8027973473072 -1.1644955806107191)"><path d="M0.21 0.68 C-80.83 0.45, -404.78 -0.87, -485.82 -1.44 M-1.14 -0.01 C-81.84 -0.54, -403.11 -2.75, -483.54 -3.01" stroke="#495057" stroke-width="1" fill="none"></path></g></g><g stroke-linecap="round" transform="translate(1783.75 21.25) rotate(0 83.75 81.25)"><path d="M25.31 22 C25.31 22, 25.31 22, 25.31 22 M25.31 22 C25.31 22, 25.31 22, 25.31 22 M10.44 45.07 C19.88 36.79, 24.07 28.99, 35.44 17.35 M12.31 42.56 C19.92 33.85, 29.69 23.06, 36.11 15.98 M7.95 54.27 C19.62 41.36, 30.36 26.67, 44.94 12.45 M8.22 52.88 C20.57 39.57, 34.05 24.85, 45.02 11.1 M5.51 61.45 C17.04 49.71, 27.63 39.09, 54.47 7.47 M6.54 61.5 C18.22 47.67, 29.84 35.22, 54.64 6.14 M7.72 67.04 C20.78 54.37, 33.5 38.46, 61.27 5.89 M5.45 69.61 C21.23 52.06, 35.39 35.29, 60.1 7.78 M2.34 75.23 C18.49 60.19, 30.67 46.07, 65.3 6.11 M4.68 76.48 C18.71 59.09, 32.69 42.48, 67.09 4.48 M1.38 85.76 C28.46 57.35, 52.02 30.19, 75.2 2.65 M2.14 85.75 C18.57 66.47, 35.35 44.78, 75.46 0.09 M1.3 88.32 C31.04 54.71, 64.23 22.46, 78.56 -0.65 M3.6 90.35 C18.72 70.08, 35.88 51, 80.93 1.65 M3.6 96.75 C36.5 57.93, 67.82 19.99, 83.41 1.73 M4.8 95.19 C32.51 62.45, 60.61 29.12, 84.05 2.2 M7.57 97.61 C36.79 64.19, 65.56 28.03, 89.99 2.9 M5.71 98.21 C36.6 61.69, 69.97 25.38, 89.53 3.18 M8.11 105.75 C26.53 82.51, 44.5 62.62, 93.83 4.48 M7.8 104.48 C33.67 70.39, 63.75 37.62, 94.77 3.9 M7.28 108.05 C32.6 81.46, 57.17 52.64, 98.64 3.4 M7.14 108.44 C36.81 77.57, 63.05 44.38, 98.31 4.78 M11.37 114.67 C46.08 68.73, 83.97 29.3, 105.36 2.58 M8.96 113.6 C30.21 89.48, 51.8 64.11, 104.28 4.57 M11.28 119.06 C37.51 89.28, 62.77 60.69, 110.48 5.26 M9.49 119.14 C44.94 79.16, 80.41 37.23, 108.35 5.16 M14 121.16 C52.45 75.77, 87.88 34.26, 113.71 6.69 M13.03 121.52 C43.07 87.31, 72.49 51.85, 112.79 5.8 M16.56 123.51 C41.23 94.94, 69.12 63.03, 117.65 6.91 M15.26 125.14 C42.55 92.47, 72.54 60.98, 115.68 8.33 M16.12 127.39 C46.25 95.71, 70.18 63.6, 121.44 8.73 M16.99 128.97 C57.47 85.16, 94.06 41.56, 120.09 9.71 M21.07 130.35 C46.51 99.51, 75.76 64.03, 125.77 13 M20.62 130.58 C59.39 87.33, 96.8 40.95, 124.53 11.75 M24.04 133.52 C57.04 95.48, 92.64 55.4, 128.56 14.85 M22.77 133.93 C48.13 106.94, 71.81 77.71, 128.2 13.89 M24.85 138 C58.43 103.47, 90.1 65.67, 131.29 17.45 M24.62 138.31 C60.13 98.24, 95.53 56.79, 130.74 17.41 M27.55 140.22 C61.02 104.82, 92.17 67, 132.64 17.97 M28.54 140.14 C56.03 108.39, 84.56 74.4, 133.43 17.96 M29.43 143.11 C71.27 96.18, 111.3 47.88, 139.51 21.16 M30.54 142.68 C51.98 118.49, 74.94 91.93, 137.7 19.53 M32.62 147.91 C70.39 103.87, 106 67.08, 141.35 20.5 M33.39 146.32 C58.26 120.51, 81.02 92.9, 142.94 22.25 M39.17 147.6 C78.12 100.83, 113.85 58.84, 144.55 24.56 M37.22 148.55 C63.3 118.11, 87.49 88.57, 144.42 25.1 M42.68 151.23 C80.18 103.13, 116.95 59.2, 146.65 29.63 M40.62 150.7 C62.55 124.83, 83.75 100.16, 146.96 29.16 M44.62 151.37 C81.97 114.22, 114.37 72.45, 147.42 33.32 M44.48 152.01 C69.97 124.61, 94.07 96.3, 149.53 31.61 M48.71 153.87 C70.26 129.75, 95.14 103.13, 149.85 37.75 M47.84 153.78 C81.48 114.06, 116.09 76.45, 151.77 35.51 M52.51 154.1 C74.02 131.15, 93.44 107.32, 153.85 39.59 M53.03 154.18 C89.77 110.55, 129.45 65.71, 153.13 40.27 M55.85 156.98 C90.13 118.72, 122.06 83.43, 153.85 44.53 M57.54 156.76 C82.17 125.9, 110.36 95.39, 156.03 42.66 M59.73 157.46 C89.29 123.1, 120.69 91.32, 156.5 45.29 M60.5 159.42 C84.73 131.53, 106.89 105.84, 157 47.31 M62.73 160.5 C92.43 129.62, 120.21 95.15, 159.67 51.12 M64.49 160.9 C88.24 130.84, 113.83 101.87, 159.25 50.72 M68.64 161.35 C85.83 138, 103.83 117.26, 162.14 53.82 M66.76 161.58 C99.03 124.76, 133.22 87.2, 161.78 53.72 M70.78 161.05 C93.74 138.23, 114.06 117.19, 164.56 58.95 M72.99 163.41 C102.92 127.4, 133.48 92.61, 163.92 59.3 M79.74 163.17 C100.49 136.17, 124.07 107.81, 164.44 62.37 M78.55 161.24 C96.61 141.37, 115.33 119.28, 163.76 63.5 M83.63 161.32 C98.85 141.44, 118.56 122.9, 166.56 68.45 M84.28 162.77 C108.51 134.12, 132.02 106.6, 164.09 68.25 M89.8 161.11 C112.06 135.42, 136.01 107.59, 165.85 74.59 M87.63 163.05 C113.34 133.37, 139.64 104.74, 164.76 74.35 M93.77 163.47 C121.71 131.2, 145.69 104.93, 166.51 76.75 M93.21 162.22 C115 138.46, 137.85 112.3, 167.34 79.43 M100.34 163.83 C124.11 134.12, 151 102.84, 166.96 84.14 M99.29 163.33 C121.35 134.88, 145.81 108.66, 167.51 85.26 M102.49 164.67 C119.23 149.18, 132.02 130.3, 169.47 89.27 M104.23 163.25 C123.82 138.85, 143.08 116.19, 168.22 88.19 M114.36 158.21 C128.03 140.24, 147.45 120.02, 165.95 95.45 M112.99 157.94 C129.84 139.28, 145.67 119.29, 167.02 97.22 M120.45 155.28 C138.68 136.75, 151.97 120.16, 166.75 105.98 M121.84 153.77 C133.97 142.21, 143.93 129.18, 164.3 105.67 M133.69 144.4 C141.25 140.22, 144.26 134.87, 162.47 115.7 M133.84 147.19 C140.91 138.23, 147.08 132.18, 162.61 113.22" stroke="#ced4da" stroke-width="0.5" fill="none"></path><path d="M74.87 0.12 C85.85 -2.11, 99.46 1.39, 110.65 4.96 C121.83 8.53, 133.62 13.75, 141.97 21.56 C150.33 29.36, 156.73 41.07, 160.8 51.79 C164.87 62.52, 166.77 74.71, 166.4 85.92 C166.02 97.14, 163.91 109.07, 158.56 119.06 C153.22 129.04, 143.73 138.83, 134.32 145.83 C124.91 152.83, 113.58 158.67, 102.09 161.06 C90.61 163.46, 77.04 162.83, 65.4 160.2 C53.75 157.57, 41.41 152.23, 32.23 145.27 C23.06 138.31, 15.62 128.49, 10.35 118.43 C5.08 108.38, 1.22 96.05, 0.63 84.94 C0.03 73.82, 2.62 62.25, 6.76 51.74 C10.9 41.22, 17.06 29.7, 25.45 21.84 C33.83 13.98, 48.58 8.22, 57.07 4.6 C65.57 0.97, 72.9 0.7, 76.41 0.08 C79.92 -0.54, 78.16 -0.42, 78.13 0.89 M45.28 11.12 C54.84 4.86, 68.73 1.7, 80.2 0.83 C91.67 -0.03, 103.28 1.87, 114.1 5.94 C124.91 10, 137.16 17.22, 145.08 25.21 C153.01 33.21, 158.01 42.92, 161.65 53.9 C165.29 64.88, 168.11 79.49, 166.94 91.09 C165.77 102.69, 160.4 113.95, 154.65 123.52 C148.89 133.09, 142.08 142.29, 132.41 148.5 C122.75 154.71, 108.56 158.84, 96.67 160.81 C84.78 162.77, 72.09 163.08, 61.07 160.3 C50.06 157.51, 39.34 151.43, 30.57 144.12 C21.79 136.8, 13.46 126.67, 8.44 116.39 C3.42 106.1, 0.63 93.73, 0.45 82.39 C0.28 71.06, 2.46 59.09, 7.37 48.39 C12.28 37.68, 23.62 24.84, 29.91 18.17 C36.2 11.49, 42.48 9.75, 45.13 8.36 C47.78 6.96, 45.27 8.48, 45.8 9.78" stroke="#495057" stroke-width="1" fill="none"></path></g><g stroke-linecap="round" transform="translate(1755 1007.5) rotate(0 83.75 81.25)"><path d="M10.98 41.34 C10.98 41.34, 10.98 41.34, 10.98 41.34 M10.98 41.34 C10.98 41.34, 10.98 41.34, 10.98 41.34 M8.79 50.25 C16.19 40.67, 24.55 34.57, 35.43 18.5 M8.38 50.7 C17.79 40.4, 27.67 28.64, 36.33 18.4 M5.05 59.4 C15.71 45.95, 30.02 31.61, 51.29 6.23 M5.03 60.76 C13.5 51.07, 23.01 40.51, 49.81 8.52 M2.1 72.14 C21.58 44.61, 42.85 21.04, 58.39 6.09 M0.68 69.35 C16.44 55.37, 27.92 39.3, 55.93 7.67 M1.12 75.57 C25.55 48.32, 50.06 22.21, 65.05 5.9 M2.15 75.76 C17.76 56.58, 33.17 38.82, 63.61 6.12 M3.35 82.08 C25.4 54.06, 47.64 27.03, 70.63 3.98 M3.16 80.97 C22.63 56.83, 44.44 33.34, 70.14 4.6 M1.59 84.74 C28.84 58.42, 50.14 34.14, 73.15 4.62 M4.3 86.57 C31.46 54.57, 58 22.86, 75.28 5.22 M2.57 90.84 C31.23 60.37, 56.84 31.79, 80.86 2.07 M3.94 91.81 C20.3 73.43, 37.42 53.68, 81.36 2.98 M7.34 98.14 C32.7 64.35, 60.01 34.47, 89.34 0.08 M5.05 95.31 C33.43 63.2, 62.33 29.26, 86.87 2.77 M6.19 103.63 C33.17 71.94, 58.24 42.79, 91.1 2.1 M6.74 101.34 C23.72 81.23, 41.67 61.11, 92.56 3.14 M5.71 108.24 C27.19 81.66, 49.49 57.26, 97.92 4.28 M7.68 106.05 C34.4 74.52, 64.07 41.33, 96.26 4.75 M9.78 112.4 C38.84 75.7, 67.38 41.66, 100.51 4.51 M7.7 112.5 C43.76 71.02, 80.02 28.74, 101.08 4.91 M8.51 114.49 C33.03 92.18, 51.56 65.42, 104.92 6.15 M11.19 114.62 C40.35 80.23, 71.78 45.89, 106.28 4.84 M14.05 119.87 C41.24 85.86, 69.92 51.48, 109.42 8.51 M11.37 119.75 C38.84 87.31, 67.21 57.44, 110.69 7.62 M16.08 124.35 C41.05 89.45, 70.91 58.76, 115.58 8.15 M14.36 123.61 C50.79 81.92, 87.53 39.35, 114.25 7 M17.61 127.24 C45.27 92.27, 75.83 60.06, 119.28 8.06 M17.41 126.81 C40.79 99.48, 63.63 73.25, 119.55 8.1 M18.58 131.3 C55.78 87.56, 90.06 50.15, 123.66 8.24 M19.05 130.34 C53.18 90.77, 87.11 50.76, 123.25 9.45 M20.22 134.49 C54.07 93.32, 86.38 55.14, 128.16 13.14 M21.9 132.87 C64.42 84.12, 106.95 37.12, 125.64 11.95 M22.03 137.03 C58.87 95.85, 92.6 56.26, 130.12 13.42 M24.21 135.16 C55.33 101.47, 84.57 65.39, 128.78 14.14 M26.14 141.09 C48.22 113.47, 73.36 88.96, 133.86 17.45 M26.66 139.41 C66.44 92.36, 109.09 43.24, 131.99 17.23 M30.24 141.27 C65.75 97.07, 103.44 56.77, 136.98 20.85 M29.84 141.15 C65.21 97.99, 102.81 56.44, 134.71 20.04 M32.71 144.7 C70.62 100.67, 110.82 56.21, 140.02 20.69 M33.86 144.85 C57.77 115.57, 82.31 87.48, 138.65 20.78 M36.19 146.45 C65.93 111.55, 97.18 76.96, 140.82 25.51 M36.38 146.86 C63.73 116.25, 88.9 85.94, 142.66 24.57 M37.93 147.58 C72.45 113.29, 106.61 73.52, 143.49 25.83 M39.54 148.93 C77.4 105.33, 116.67 61.11, 146.17 27.42 M41.42 151.07 C81.51 107.16, 117.31 67.32, 148.75 28.11 M44.04 149.66 C81.31 107.91, 116.2 66.87, 148.06 29.72 M45.5 153.42 C89.57 105.21, 130.95 55.07, 152.25 32.32 M46.75 151.59 C73.95 123.45, 99.3 91.85, 151.48 31.24 M51.25 153.32 C70.06 130.13, 92.41 105.03, 153.66 35.37 M50.1 155.38 C73.85 127.63, 97.21 101.88, 153.39 36.18 M53.03 156.44 C87.73 116.3, 120.98 78.04, 153.52 41.14 M53.64 156.06 C92.38 111.31, 132.91 65.63, 155.98 40.6 M55.5 158.92 C82.39 133.44, 105.37 104.8, 156.33 42.24 M57.56 158.09 C87.53 126.81, 117 93.16, 158.23 43.68 M61.91 158.6 C82.74 134.19, 105.77 111.21, 158.91 47.74 M61.44 160.03 C91.24 123.73, 121.77 88.94, 158.73 47.04 M65.15 160.31 C84.78 137.26, 105.75 115.02, 159.98 48.93 M65.83 159.36 C102.66 119.46, 138.4 78.89, 161.85 49.9 M72.71 158.84 C98.18 127.22, 124.53 95.58, 163.92 56.33 M71.76 160.94 C102.93 124.86, 135.43 87.54, 163.92 55.66 M76.38 161.21 C103.37 134.1, 124.84 104.91, 166.36 57.41 M76.82 160.78 C106.03 127.52, 135.98 91.19, 165.35 59.07 M79.21 163.4 C99.86 141, 119.76 121.17, 169.22 61.87 M80.71 162.27 C105.11 132.82, 129.3 104.98, 168.16 63.03 M84.53 161.85 C115.41 129.41, 145.97 95.13, 165.74 69.14 M86.77 163.2 C108.07 136.81, 129.54 113.16, 167.54 69.63 M91.64 161.48 C117.75 130.12, 146.37 96.5, 168.03 75.35 M90.1 163.23 C114.36 135.98, 136.59 108.58, 167.86 74.52 M98.73 160.41 C123.55 129.03, 149.61 103.02, 169.53 80.34 M99.02 160.17 C116.51 139.91, 136.02 118.92, 167.66 79.55 M107.36 158.76 C129.42 130.98, 149.67 107.48, 166.62 85.44 M106.07 158.24 C119.74 142.54, 135.07 125.9, 167.73 85.93 M113.32 154.36 C134.1 132.58, 152.46 108.72, 170.3 93.95 M113.35 155.28 C128.08 139.59, 141.23 122.96, 169.33 92.28 M119.02 154.99 C135.12 133.09, 152.42 114.75, 169.83 99.12 M119.38 154.54 C134.49 136.51, 151.61 118.8, 168.3 98.1 M127.16 152.67 C141.8 135.85, 153.19 119.86, 163.87 110.47 M127.31 152.39 C135.63 142.53, 142.15 134.22, 162.71 109.57" stroke="#ced4da" stroke-width="0.5" fill="none"></path><path d="M48.97 6.77 C58.8 1.46, 73.76 0.58, 85.71 0.7 C97.66 0.81, 110.07 2.64, 120.67 7.46 C131.27 12.28, 141.88 20.77, 149.3 29.62 C156.73 38.48, 162.32 49.55, 165.2 60.58 C168.08 71.62, 168.73 84.51, 166.57 95.84 C164.42 107.17, 159.15 119.32, 152.29 128.55 C145.44 137.79, 135.77 145.77, 125.45 151.25 C115.13 156.73, 102.08 160.49, 90.37 161.42 C78.65 162.35, 66.21 160.67, 55.18 156.83 C44.16 152.98, 32.38 146.1, 24.2 138.36 C16.02 130.62, 10.06 121.01, 6.12 110.39 C2.17 99.77, -0.24 86.09, 0.53 74.63 C1.3 63.17, 4.97 51.39, 10.72 41.64 C16.47 31.89, 28.11 21.99, 35.02 16.11 C41.93 10.23, 48.47 8.19, 52.17 6.36 C55.87 4.52, 56.69 3.91, 57.24 5.1 M109.03 4.24 C120.45 6.51, 133.28 15.34, 141.92 23.1 C150.56 30.86, 156.67 40.28, 160.88 50.79 C165.08 61.29, 167.81 74.72, 167.17 86.12 C166.52 97.51, 162.45 109.07, 157 119.18 C151.56 129.29, 143.48 139.84, 134.49 146.78 C125.51 153.72, 114.58 158.54, 103.09 160.83 C91.6 163.12, 77.3 162.97, 65.54 160.52 C53.78 158.06, 41.75 152.66, 32.53 146.1 C23.3 139.54, 15.65 131.27, 10.19 121.13 C4.72 110.98, 0.36 97.01, -0.28 85.23 C-0.91 73.45, 2.19 61.09, 6.36 50.44 C10.54 39.78, 16.66 28.88, 24.75 21.3 C32.85 13.72, 43.76 8.44, 54.91 4.94 C66.06 1.44, 82.54 0.4, 91.64 0.32 C100.74 0.24, 106.73 3.39, 109.52 4.47 C112.3 5.55, 108.97 5.8, 108.37 6.81" stroke="#495057" stroke-width="1" fill="none"></path></g><g stroke-linecap="round" transform="translate(10 997.5) rotate(0 83.75 81.25)"><path d="M8.87 43.49 C8.87 43.49, 8.87 43.49, 8.87 43.49 M8.87 43.49 C8.87 43.49, 8.87 43.49, 8.87 43.49 M7.6 51.81 C11.75 47.03, 17.99 40.61, 34.17 19.78 M6.86 53.04 C17.08 38.71, 28.22 26.35, 36.32 18.51 M2.43 58.82 C17.4 48.5, 24.48 34.62, 47.33 10.92 M3.94 60.6 C21.58 40.62, 39.33 21.25, 50.01 9.54 M3.03 68.26 C15.97 51.22, 28.76 36.45, 56.39 8.98 M2.96 69.32 C20.66 47.44, 38.6 26.09, 55.95 8 M0.7 77.55 C17.71 54.73, 38.73 33.77, 63.15 7.09 M-0.35 76.49 C21.66 53.99, 40.64 32.27, 60.69 7.37 M4.56 80.86 C29.12 52.35, 51.9 23.77, 68.45 7.97 M1.98 80.47 C25.25 54.54, 47.27 29.65, 67.69 5.52 M2.12 87.2 C16.84 70.38, 33.41 51.21, 74.32 4.63 M4.23 87.32 C27.28 59, 51.01 32.47, 75.08 3.95 M3.3 89.31 C31.28 59.79, 59.48 25.97, 81.65 2.34 M4.51 92.13 C28.98 63.84, 52.18 36.99, 82.72 0.23 M6.94 94.97 C23.08 76.1, 40.53 57.06, 88.7 1.96 M4.8 96.88 C24.62 73.3, 44.6 50.94, 88.3 1.88 M7.12 100.26 C31.46 71.11, 61.23 38.74, 91.77 4.07 M6.7 102.16 C33.8 69.35, 60.59 37.92, 91.43 2.93 M6.11 108.28 C41.61 67.54, 76.88 25.81, 96.43 4.03 M5.93 106.4 C27.76 84.21, 46.47 59.95, 96.45 3.55 M8.1 112.16 C35.39 77.61, 68.17 43.53, 102.49 2.77 M7.59 113.43 C34.92 80.75, 62.55 48.28, 100.87 5.29 M7.41 117.53 C35 84.02, 64.27 55.9, 106.98 7.23 M9.78 117.36 C35.01 85.47, 62.56 55.62, 105.79 6.05 M11.02 121.86 C47.16 80.95, 83.46 38.6, 108.46 6.38 M11.73 120.49 C38.98 87.95, 67.43 56.7, 109.81 6.56 M14.76 124.87 C37.82 97.23, 60.24 71.52, 115.38 6.71 M13.4 124.21 C48.77 83.28, 82.14 45.91, 114.82 6.46 M15.68 128.57 C48.65 89.32, 81.86 49.16, 117.79 9.04 M15.4 127.5 C48.1 88.8, 80.01 51.6, 119.23 9.46 M19.02 130.24 C60.52 81.51, 103 36.5, 119.57 11.41 M17.49 130.45 C52.43 91.56, 85.57 53.04, 121.72 10.91 M21.27 131.45 C52.2 100.07, 80.21 62.96, 123.47 12.43 M21.05 133.79 C43.26 107.44, 66.66 82.74, 125.75 13.49 M25.12 135.05 C62.68 90.13, 105.02 41.3, 126.87 15.98 M23.63 136.33 C59.66 93.23, 96.52 52.35, 128.83 16.5 M27.16 137.41 C61.45 94.7, 99.37 54.48, 129.95 18.21 M26.04 139.73 C64.1 95.81, 102.86 52.12, 132.18 17.35 M30.2 144.46 C52.97 114.26, 77.21 86.65, 133.5 18.58 M28.31 143.05 C58.21 108.55, 88.54 74.34, 134.09 21.08 M31.57 146.62 C60.06 115.7, 84.17 85.26, 139.16 22.79 M31.34 144.17 C65.41 108.21, 98.79 69.59, 137.59 21.79 M35.53 147.37 C72.73 103.78, 113.08 59.27, 143.17 25.87 M34.93 146.85 C73.81 103.52, 110.55 61.93, 141.73 24.25 M40.21 147.73 C78.24 105.82, 112.02 65.14, 144.59 27.08 M38.15 149.72 C80.93 101.06, 122.9 51.51, 145.32 27.28 M41.93 149.72 C69.97 122.79, 94.67 89.49, 147.09 29.01 M43.19 150.23 C63.77 125.17, 86.21 99.67, 148.19 29.37 M46.28 153.91 C69.95 125.02, 93.62 100.03, 149.87 34.01 M45.92 152.72 C81.1 111.52, 115.83 71.56, 149.63 33.56 M49.69 153.41 C88.1 109, 129.57 63.19, 153.34 38.7 M48.99 154.89 C75.39 128.25, 99.25 99.7, 151.56 36.56 M53.84 155.59 C83.99 125.29, 114.23 91, 155.46 41.49 M53.7 156.05 C75.4 130.22, 98.38 105.55, 154.36 40.62 M56.62 159.11 C87.26 121.2, 118.58 85.81, 155.42 43.32 M56.5 158.59 C77.23 134.86, 98.75 111.05, 156.07 42.91 M58.46 159.67 C98.06 118.66, 135.33 76.87, 158.65 46.42 M60.81 160.3 C88.68 126.31, 117.56 92.42, 158.9 48.67 M65.31 162.47 C97.59 124.99, 131.78 85.8, 161.73 53.04 M65.47 161.29 C93.7 131.17, 118.77 100.09, 161.63 50.52 M71.76 160.29 C101.46 127.12, 132.7 87.41, 163.54 54.97 M69.37 162.57 C90.73 139.31, 111.29 117.19, 164.24 54.44 M74.56 162.92 C100.44 131.54, 125.24 102.98, 166.14 60.28 M74.53 161.97 C107.79 124.8, 141.09 86.93, 164.34 59.01 M81.69 164.4 C103.95 134.84, 127.18 110.22, 167.79 64.06 M80.58 161.96 C111.59 125.43, 144.01 87.78, 167.65 62.67 M82.7 164.86 C110.27 134.84, 133.41 104.55, 168.03 68.2 M84.64 163.87 C115.19 127.84, 146.06 94.31, 168.59 67.99 M90.31 164.42 C109.1 142.08, 132.61 117.93, 167.23 72.61 M90.47 164.36 C118.77 131.15, 145.84 99.91, 167.34 73.36 M96.15 163.97 C110.99 146.14, 129.45 126.9, 166.98 79.73 M95.61 162.72 C122.72 132.63, 148.2 101.96, 169.7 80.06 M104.4 159.21 C122.05 141.48, 136.77 121.54, 171.1 85.28 M102.6 161.33 C124.63 133.89, 147.34 108.54, 169.66 85.47 M110.16 158.87 C126.8 137.99, 147.76 117.84, 166.02 94.29 M110.8 158.46 C132.64 133.38, 152.94 108.59, 167.21 93.59 M119.72 155.71 C129.86 143.24, 136.63 133.82, 161.65 103.28 M118.21 155.73 C127.98 144.27, 138.81 131.41, 162.74 103.77 M129.56 151.51 C135.89 144.29, 143.21 133.7, 160.44 115.56 M127.91 151.6 C135.67 141.75, 143.9 132.26, 157.63 114.46" stroke="#ced4da" stroke-width="0.5" fill="none"></path><path d="M46.34 7.41 C55.74 1.64, 70.82 0.62, 82.56 0.64 C94.31 0.65, 106.18 2.98, 116.8 7.51 C127.43 12.04, 138.31 19.21, 146.33 27.83 C154.35 36.45, 161.58 48.3, 164.93 59.23 C168.27 70.16, 168.27 82.18, 166.39 93.42 C164.5 104.66, 160.15 117.15, 153.63 126.69 C147.11 136.23, 137.25 144.63, 127.26 150.64 C117.26 156.66, 105.1 161.41, 93.64 162.79 C82.19 164.16, 69.74 162.54, 58.53 158.89 C47.31 155.24, 35.19 148.66, 26.37 140.87 C17.55 133.09, 9.99 122.55, 5.61 112.19 C1.24 101.84, -0.44 90.22, 0.11 78.75 C0.67 67.29, 3.51 53.82, 8.94 43.41 C14.36 33, 24.39 23.09, 32.64 16.3 C40.88 9.51, 52.08 4.92, 58.4 2.68 C64.72 0.43, 70.12 1.39, 70.57 2.83 M84.12 -1.06 C94.97 -2.31, 106.7 2.07, 116.95 7.08 C127.2 12.09, 137.9 20.55, 145.61 29.02 C153.33 37.49, 159.77 47.23, 163.26 57.9 C166.75 68.57, 168.34 81.56, 166.54 93.04 C164.74 104.53, 159.1 117.4, 152.46 126.81 C145.82 136.22, 136.53 143.43, 126.68 149.52 C116.83 155.6, 105.06 161.6, 93.35 163.31 C81.65 165.01, 67.53 163.3, 56.46 159.74 C45.39 156.17, 35.39 149.68, 26.91 141.92 C18.43 134.15, 10.14 123.95, 5.56 113.14 C0.97 102.32, -1.04 88.66, -0.62 77.02 C-0.21 65.38, 2.61 53.07, 8.04 43.27 C13.46 33.48, 22.31 25.21, 31.92 18.27 C41.52 11.34, 57.18 4.8, 65.68 1.64 C74.19 -1.51, 80 -0.91, 82.96 -0.68 C85.91 -0.45, 83.63 1.46, 83.43 3.05" stroke="#495057" stroke-width="1" fill="none"></path></g><g stroke-linecap="round" transform="translate(19.999999999999886 10) rotate(0 83.75 81.25)"><path d="M10.86 38.59 C10.86 38.59, 10.86 38.59, 10.86 38.59 M10.86 38.59 C10.86 38.59, 10.86 38.59, 10.86 38.59 M9.51 47.9 C16.03 39, 20.92 28.85, 35.71 15.65 M7.04 48.19 C15.34 41.09, 21.66 33.98, 37.55 14.74 M5.62 59.35 C20.5 42.44, 34.6 22.37, 44.53 12.21 M4.87 56.91 C16.02 43.17, 28.16 29.4, 45.51 10.41 M1.65 67.33 C20.8 44.96, 37.32 27.3, 55.21 6.58 M2.41 66.66 C16.65 51.83, 31.07 34.21, 52.39 8.13 M-0.21 75.61 C20.39 50.59, 40.94 29.79, 62.67 6.11 M0.87 73.5 C17.94 54.17, 36.71 33.99, 60.39 5.99 M2.91 79.76 C17.87 57.55, 38.15 36.45, 70.66 0.36 M2.51 79.68 C20.26 59.34, 38.21 38.52, 68.48 1.19 M2.7 85.64 C26.81 56.65, 50.81 30.81, 74.27 4.02 M2.36 84.5 C18.58 68.49, 32.03 50.36, 74.37 3.3 M2.76 90.89 C24.62 63.3, 50.44 34.72, 78.62 3.69 M2.79 90.41 C34.07 54.87, 63.62 21.86, 78.76 1.69 M4.89 94.16 C20.18 74.75, 39.43 58.31, 85.51 1.84 M3.27 96.68 C28.69 67.37, 54.02 37.36, 85.4 1.91 M6.1 102.39 C20.82 79.5, 38.75 61.11, 92.92 -0.06 M4.91 101.2 C22.51 80.88, 39.54 59.62, 92.17 1.32 M3.64 106.06 C39.85 63.88, 75.69 24.28, 96.76 1.49 M4.99 106.25 C25.67 80.73, 48.81 56.14, 96.32 2.69 M7.28 110.17 C36.1 74.67, 66.22 42.36, 101.11 4.8 M6.72 109.91 C29.22 83.49, 51.47 57.95, 100.15 3.34 M8.38 114.01 C43.84 75.36, 77.14 35.4, 105.26 4.4 M9.82 114.43 C33.05 88.23, 54.03 63.78, 103.63 5.24 M9.5 117.14 C32.59 91.21, 52.03 65.28, 108.75 6.4 M11.65 116.63 C31.93 93.96, 53.41 71.34, 106.88 6.71 M12.1 119.67 C50.9 75.83, 91.37 33.33, 113 6.44 M14.38 120.72 C41.37 89.16, 67.68 57.78, 111.32 6.91 M14.83 123.97 C51.09 84.24, 85.19 46.9, 115.64 7.42 M16.79 124.49 C36.91 101.44, 57.2 78.13, 115.52 8.14 M15.94 128.46 C41.11 100.71, 64 76.08, 120.88 9.3 M18.18 127.6 C52.33 86.57, 88.73 46.25, 121.03 10.06 M18.84 129.58 C50.97 94.91, 82.5 60.33, 125.09 11.03 M19.44 132.08 C46.63 100.29, 75.22 67.77, 125.5 12.14 M23.19 135.31 C64.3 85.12, 105.44 37.92, 127.27 12.88 M21.62 134.31 C64.38 86.59, 105.56 38.21, 128.62 12.53 M25.88 139.89 C61.88 96.52, 96.48 52.17, 131.91 16.89 M24.45 138.27 C51.92 106.63, 78.5 76.79, 130.5 16.94 M27.3 141.11 C59.05 109.28, 85.88 73.28, 135.4 20.62 M28.04 141.31 C62.95 99.19, 99.61 57, 133.58 18.95 M29.8 143.04 C69.75 98.53, 113.47 53.38, 135.7 19.66 M30.91 143.39 C69.03 98.27, 108.13 54.9, 137.76 21.01 M33.89 146.53 C62.36 114.87, 89.55 82.33, 139.97 23.91 M33.66 146.08 C66.65 110.29, 95.7 74.72, 139.59 23.16 M38.68 149.71 C67.89 109.75, 99.34 73.52, 143.6 26.51 M36.9 147.56 C78.2 100.65, 117.72 55.51, 142.77 26.58 M42.12 150.99 C77.61 105.67, 119.57 60.73, 145.18 28.91 M41.01 150.12 C72.15 113.38, 104.07 76.07, 146.61 29.02 M42.73 152.06 C67.82 124.25, 93.05 93.08, 149.55 29.84 M43.38 151.65 C74.29 119.58, 101.53 85.61, 148.6 32.37 M47.93 152.9 C73.41 126.01, 100.41 94.57, 150.09 35.05 M48.18 155.15 C73.16 128.32, 95.69 100.06, 152.19 34.88 M52.32 158.01 C88.38 111.75, 126.21 70.7, 153.05 40.84 M52.22 155.49 C91 112.14, 128.92 69.48, 152.62 39.14 M54.79 159.19 C92.23 113.38, 132.52 68.03, 157.24 42.25 M55.49 158.66 C84.41 123.76, 115.58 87.6, 156.12 42.85 M60.66 160.72 C85.85 131.59, 110.16 100.97, 157.04 46.65 M58.86 159.45 C96.99 113.87, 136.14 71.54, 158.39 46.85 M64.28 162.23 C89.65 132.34, 112.81 104.14, 158.01 49.41 M64.14 160.85 C94.48 126.92, 124.08 91.4, 159.77 51.29 M68.46 161.85 C99.51 127.42, 126.48 95.1, 161.96 53.19 M69.03 161.64 C87.82 137.2, 108.4 116.02, 161.72 53.47 M72.25 160.98 C108.62 120, 141.66 82.74, 163.93 59.19 M72.36 161.73 C94.52 136.61, 115.33 113.35, 163.41 57.54 M75.94 163.57 C111.85 122.7, 145.51 87.3, 163.13 63.63 M78.66 163.9 C103.24 133.32, 130.16 104.91, 164.06 63.51 M84.65 163.84 C111.37 131.58, 139.97 98.81, 168.69 64.25 M83.21 164.02 C101.36 141.85, 119.38 121.16, 168.24 64.21 M87.45 163.79 C113.54 135.37, 135.29 107.94, 168.01 72.88 M88.63 163.09 C110.33 136.61, 133.53 112.7, 167.73 72.42 M94.23 159.95 C111.89 141.7, 129.19 121.31, 167.61 76.55 M95.32 160.44 C122.57 128.12, 150.82 98.43, 167.83 78.45 M104.17 159.4 C125.63 130.09, 151.73 103.55, 168.93 83.37 M101.37 158.29 C127.2 130.44, 151.38 101.7, 166.69 84.48 M107.32 157.74 C129.82 135.95, 146.04 112.45, 167.3 90.96 M107.64 158.23 C121.65 141.48, 135.7 125.95, 167.77 89.56 M116.89 154.6 C129.14 138.46, 146.9 121.43, 168.3 94.49 M115.63 155.15 C135.53 133.23, 153.55 112.14, 167.7 96.12 M124.38 155.14 C130.94 143.18, 141.17 131.81, 167.33 102.4 M122 153.37 C133.21 141.38, 144.11 130.51, 167.38 102.16 M141.6 137.7 C148.12 132.26, 152.35 128.92, 161.5 114.21 M142.16 138.67 C145.05 132.16, 149.37 127.9, 161.3 115.62" stroke="#ced4da" stroke-width="0.5" fill="none"></path><path d="M88.99 -0.66 C100.34 -1.32, 113.21 4.5, 123.26 9.82 C133.32 15.13, 142.23 22.28, 149.32 31.23 C156.4 40.19, 163.18 52.19, 165.79 63.56 C168.41 74.94, 167.64 88.25, 164.98 99.47 C162.32 110.7, 156.92 121.86, 149.82 130.92 C142.73 139.98, 132.72 148.53, 122.43 153.84 C112.13 159.14, 99.68 162.22, 88.05 162.74 C76.42 163.27, 63.62 161.35, 52.64 157 C41.67 152.64, 30.31 144.85, 22.2 136.62 C14.08 128.4, 7.67 118.26, 3.98 107.63 C0.28 97.01, -1.14 84.39, 0.04 72.84 C1.22 61.3, 4.95 48.18, 11.08 38.34 C17.21 28.5, 26.84 20.05, 36.79 13.81 C46.74 7.57, 61.21 2.94, 70.78 0.88 C80.35 -1.17, 89.26 0.9, 94.22 1.47 C99.18 2.04, 100.78 3.01, 100.55 4.29 M116.56 7.7 C127.07 10.61, 137.42 17.13, 145.24 25.15 C153.06 33.18, 159.67 44.85, 163.47 55.83 C167.27 66.8, 169.65 79.78, 168.03 91 C166.4 102.23, 160.43 113.68, 153.75 123.17 C147.06 132.66, 137.86 141.31, 127.92 147.94 C117.97 154.58, 105.49 161.38, 94.07 162.98 C82.65 164.59, 70.61 161.27, 59.4 157.57 C48.2 153.86, 35.39 147.84, 26.84 140.76 C18.28 133.68, 12.42 125.27, 8.07 115.1 C3.71 104.92, 0.75 91.37, 0.71 79.72 C0.67 68.06, 2.79 55.46, 7.85 45.17 C12.9 34.89, 21.69 24.98, 31.02 17.99 C40.34 11.01, 52.16 6.02, 63.77 3.27 C75.39 0.52, 92.06 1.03, 100.7 1.47 C109.34 1.91, 112.93 4.83, 115.62 5.92 C118.31 7.01, 117.34 6.76, 116.85 8" stroke="#495057" stroke-width="1" fill="none"></path></g></svg>