<svg version="1.1" xmlns="http://www.w3.org/2000/svg" viewBox="0 0 970.1581913913974 363.60415600996475" width="2910.474574174192" height="1090.8124680298943">
  <!-- svg-source:excalidraw -->
  
  <defs>
    <style>
      @font-face {
        font-family: "Virgil";
        src: url("https://excalidraw.com/Virgil.woff2");
      }
      @font-face {
        font-family: "Cascadia";
        src: url("https://excalidraw.com/Cascadia.woff2");
      }
    </style>
  </defs>
  <rect x="0" y="0" width="970.1581913913974" height="363.60415600996475" fill="#ffffff"></rect><g stroke-linecap="round" transform="translate(412.4123770087399 28.910173201933503) rotate(0 85 60.5)"><path d="M0 0 C0 0, 0 0, 0 0 M0 0 C0 0, 0 0, 0 0 M-0.68 6.21 C2.01 3.98, 2.88 2.72, 4.41 0.74 M-0.16 6.24 C0.62 5.47, 1.8 3.97, 4.97 0.04 M-1.18 13.04 C2.53 6.43, 8.3 2.4, 11.54 0.3 M-0.31 12.75 C4.25 7.32, 7.39 3.64, 10.22 0.33 M1.46 20.05 C5.54 13.33, 11.86 6.14, 17.6 -0.87 M-0.13 18.82 C4.39 12.52, 10.09 5.29, 15.42 0.69 M1.96 22.77 C4.98 17.59, 8.49 12.56, 23.07 -0.67 M-0.12 25.08 C6.85 15.74, 15.07 6.27, 21.43 0.02 M-0.32 32.21 C4.35 23.85, 9.69 19.52, 27.4 0.02 M-0.2 30.99 C8.73 22.18, 16.51 11.22, 26.47 -0.09 M-1.41 36.65 C6.81 26.73, 17.32 17.18, 32.72 -1.95 M-1.08 37.67 C7.82 28.01, 14.57 19.41, 32.09 -0.08 M1.42 42.67 C12.8 25.25, 27.62 8.05, 37.26 -1.31 M-0.13 42.58 C7.03 34.62, 16.05 25.22, 37.16 0.93 M-1.84 50 C7.74 37.65, 20.35 26.21, 41.01 0.1 M0.01 48.98 C7.13 40.04, 16.57 30.37, 43.34 -0.7 M-0.94 52.82 C11.52 40.67, 20.71 29.87, 46.9 0 M0.25 54.85 C18.01 35.93, 35.04 16.67, 47.15 0.14 M-0.16 62.32 C15.98 41.43, 34.27 22.98, 54.54 0.15 M-0.91 60.21 C12.83 44.49, 27.35 27.97, 53.48 -0.5 M-1.31 67.99 C18.78 45.38, 36.11 26.01, 57.36 0.97 M-0.48 67.97 C11.6 53.62, 23.25 39.74, 57.65 -0.4 M0.79 72.48 C20.63 51.95, 37.22 28.1, 64.29 -1.95 M0.3 73.49 C17.76 53.82, 34.6 33.64, 62.89 -0.95 M0.72 80.38 C17.61 62, 32.28 45.26, 69 0.77 M0.31 79.01 C14 62.2, 27.75 47.74, 68.45 0.07 M1.52 85.54 C26.69 52.01, 56.89 18.37, 75.54 0.8 M0.38 85.62 C20.57 62.06, 39.83 39.29, 75.04 0.67 M1.9 91.64 C28.37 57.14, 60.11 21.78, 79.56 -1.27 M0.37 91.5 C27.1 61.01, 52.43 30.43, 78.93 -0.06 M-0.77 99.46 C21.89 73.21, 42.73 49.46, 85.96 0.56 M-1 97.84 C28.82 63.69, 58.09 31.62, 85.45 0.2 M0.03 103.78 C31.46 68.6, 61.33 34.87, 90.11 0.34 M0.18 103.36 C34.66 63.19, 68.85 24.22, 89.05 0.29 M0.42 108.09 C36.61 70.27, 75.11 26.37, 95.52 0.64 M0.34 109.76 C34.57 70.13, 69.66 30.39, 94.76 -0.29 M-0.8 113.99 C34.89 74.24, 66.57 35.32, 99.06 -0.77 M-0.72 114.7 C26.25 86.14, 52.89 54.83, 100.33 -0.11 M-0.37 122.94 C40.13 75.61, 80.82 27.34, 104.58 1.51 M0.88 120.22 C27.25 90.92, 53.39 61.97, 105.66 0.4 M5.13 122.59 C47.01 71.99, 88.79 22.89, 112.17 -0.8 M6.57 120.76 C36.17 86.03, 65.58 52.19, 110.89 0.16 M11.93 123.13 C38.24 89.49, 64.71 56.62, 115.14 -0.45 M10.86 120.13 C40.98 85.79, 73.29 48.93, 117.25 0.41 M16.64 123.07 C53.83 77.1, 88.91 34.56, 120.54 0.21 M16.75 120.99 C49.62 82.07, 82.54 44.17, 122.41 0.19 M22.7 121.79 C58.47 77.16, 97.16 37.2, 127.55 2.03 M21.05 121.98 C50.34 87.16, 80.72 52.93, 126.72 0.79 M27.6 120.13 C50.13 96.6, 72.25 68.63, 130.61 0.36 M27.36 122.05 C47.64 97.29, 67.9 71.58, 133.16 -0.25 M34.51 122.92 C70.29 77.08, 108.88 32.89, 138.52 1.64 M32.66 121.59 C66.61 83.45, 101.88 42.31, 138.33 1.04 M39.52 119.58 C63.76 91.89, 87.67 59.51, 142.18 -2.07 M38.27 120.72 C72.15 82.25, 107.47 43.97, 142.98 0.29 M42.63 123.4 C76.66 83.38, 113.85 40.51, 149.75 -0.51 M41.81 121.22 C66.37 94.42, 91.1 65.08, 149.08 1.04 M46.24 120.39 C80.19 87.69, 107.92 53.66, 154.37 1.33 M47.43 120.99 C77.52 87.68, 106.33 54.67, 154.3 -0.08 M51.61 120.04 C84.9 84.95, 119.54 46.46, 157.31 -0.19 M53.18 121.55 C93.81 76.65, 133.03 32.51, 159.08 0.88 M59.92 120.68 C100.09 73.11, 141.16 25.63, 163.67 -0.85 M57.86 120.97 C96.7 76.06, 137.37 30.14, 165.12 0.42 M65.41 120.03 C89.31 94.3, 112.39 66.13, 169.58 0.02 M63.05 121.16 C103.68 76.24, 143.61 32.17, 168.47 -0.2 M69.1 119.74 C90.85 94.73, 116.18 68.65, 171.92 0.37 M68.66 121.99 C104.83 80.81, 140.99 39.82, 174.04 2.51 M75.97 119.99 C97.38 89.81, 124.88 60.95, 174.1 8.98 M74.94 122.59 C95.96 95.13, 120.42 67.54, 173.28 7.51 M80.64 120.01 C106.23 91.02, 129.81 60.77, 173.06 16.2 M80.02 121.52 C102.46 97.75, 123.61 73.93, 172 14.63 M84.58 120.68 C106.56 94.67, 132.4 68.42, 173.88 19.88 M85.93 122.02 C105.46 98.63, 126.33 76.31, 172.78 20.09 M89.75 121.07 C105.66 101.81, 123.64 82.7, 173.46 28.37 M90.18 122.21 C115.86 92.73, 140.81 63.72, 173.59 26.25 M95.86 121.02 C119.57 93.61, 145.18 66.91, 173.64 33.83 M95.71 122.31 C125.24 86.82, 154.49 53.39, 172.65 32.52 M101.99 121.68 C123.29 95.15, 148.76 67.83, 174.3 38.82 M100.48 120.88 C124.86 94.6, 147.78 66.8, 172.46 38.6 M107.8 120.1 C129.45 90.83, 158.56 61.04, 174.49 45.6 M105.51 122.01 C119.47 105.47, 134.15 90.14, 172.69 45.48 M111.25 121.76 C128.9 98.49, 148.71 76.04, 172.78 50.93 M112.35 121.54 C130.38 98.16, 150.96 75.18, 173.49 50.83 M117.72 123.15 C132.86 103.34, 147.29 85.8, 173.86 58.89 M117.17 122.31 C138.2 98.81, 157.06 74.7, 171.78 57.57 M121.78 120.35 C136.84 103.9, 153.48 88.36, 171.44 64.2 M122.27 120.34 C142.59 97.47, 161.55 75.69, 173.16 63.75 M128.28 119.56 C139.47 109, 151.36 92.12, 171.55 68.78 M128.1 122.1 C144.85 101.48, 163.56 80.43, 172.9 68.83 M134.15 121.67 C147.51 106.66, 160.74 88.5, 171.5 77.06 M132.82 120.64 C143.11 108.09, 155.39 96.56, 171.86 75.61 M137.49 120.87 C146.99 111.92, 157.93 97.9, 174.38 80.78 M138.28 120.92 C152.08 105.05, 166.19 88.75, 172.76 80.71 M143.31 121.12 C150.19 113.84, 157.05 105.96, 173.5 89.83 M143.63 121.94 C149.48 114.95, 156.79 106.75, 173.53 88.05 M148.69 122.79 C158.96 112.08, 163.66 104.31, 173.48 93.55 M149.27 122 C156.63 111.97, 165.52 101.16, 172.15 93.81 M152.52 119.21 C159.71 116.38, 163.9 109.63, 171.36 99.26 M154.44 120.92 C159.39 115.09, 165.06 108.68, 172.71 99.66 M160.59 123.19 C163.89 120.1, 163.89 113.89, 173.69 105.64 M159.22 121.24 C164.58 115.38, 170.2 110.58, 172.27 105.7 M163.34 120.87 C166.58 119.51, 171.39 115.39, 172.99 112.95 M165.07 121.39 C166.34 118.72, 168.28 117.24, 172.46 111.95" stroke="#fa5252" stroke-width="0.5" fill="none"></path><path d="M-1.37 -0.62 C62.68 -0.24, 127.21 -0.92, 169.71 0.23 M-0.95 -0.14 C56.7 -1.51, 111.64 -1.71, 170.51 -1 M171.53 -1.72 C169.69 47.44, 170.84 92.63, 168.16 119.48 M171 -0.31 C170.71 32.21, 170.6 64.82, 170.7 120.53 M169.95 122.78 C114.32 118.53, 62.73 117.97, 1.5 120.48 M170.23 120.92 C118.16 122.23, 66.67 123.24, 0.69 121.16 M-1.95 119.4 C0.06 75.28, -0.82 31.19, -0.17 -0.35 M-0.43 121.29 C0.32 83.7, 0.46 47.05, -0.76 0.04" stroke="#000000" stroke-width="1" fill="none"></path></g><g stroke-linecap="round"><g transform="translate(492.4123770087399 156.9101732019335) rotate(0 -0.5004296028055251 -2.737357025500387)"><path d="M-1.1 -0.91 C-1.17 -1.63, -0.45 -4.24, -0.38 -4.72 M0.52 1.22 C0.27 0.15, -1.13 -5.57, -1.52 -6.7" stroke="#000000" stroke-width="1" fill="none"></path></g></g><g stroke-linecap="round" transform="translate(467.4123770087399 179.9101732019335) rotate(0 28 36.5)"><path d="M28.98 0.02 C28.98 0.02, 28.98 0.02, 28.98 0.02 M28.98 0.02 C28.98 0.02, 28.98 0.02, 28.98 0.02 M2.62 39.35 C7.47 28.58, 17.11 17.89, 33.11 2.15 M1.04 38.29 C8.67 30.33, 14.91 20.84, 32.27 3.67 M3.22 41.83 C9.55 34.08, 16.42 27.96, 34.29 5.08 M3.01 40.92 C13.64 29.29, 24.69 15.49, 33.18 7.03 M8.14 45.57 C14.62 35.65, 24.01 24.21, 36.68 9.31 M6.25 45.01 C12.08 36.3, 19.13 28.8, 36.86 9.51 M10.39 47.24 C20.08 38.78, 26.27 25.04, 38.65 13.78 M8.17 47 C16.32 38.98, 23.24 31.71, 37.89 12.54 M11.76 52.53 C20.65 39.87, 28.58 30.63, 39.36 17.78 M11.02 51.44 C19.57 41.79, 28.41 30.82, 41.23 16.83 M12.67 53.71 C18.24 47.96, 25.78 40.45, 45.81 20.73 M13.5 54.2 C21.85 45.11, 28.85 35.95, 44.17 18.93 M15.9 56.68 C23.52 46.45, 31.62 38.11, 46.7 23.73 M17.37 56.19 C26.47 45.64, 35.5 33.86, 45.95 22.37 M20.39 58.54 C29.62 47.8, 36.02 37.36, 46.78 25.66 M19.14 60.58 C29.63 48.54, 39.34 35.87, 49.03 26.43 M19.67 63.64 C33.51 51.24, 41.58 42.01, 52.64 28.71 M21.25 63.52 C31.61 52.14, 43.22 38.98, 50.7 29.31 M24.26 64.41 C33.87 57.2, 43.96 47.03, 51.87 34.22 M24.38 66.61 C34.96 53.48, 46.45 40.64, 53.04 32.66 M26.19 68.17 C35.59 57.44, 45.75 46.2, 57.42 37.2 M26.81 70.37 C34.76 60.74, 42.73 51.64, 55.21 35.73" stroke="#fab005" stroke-width="0.5" fill="none"></path><path d="M28.79 1.59 C38.08 10.12, 44.96 25.21, 57.47 37.47 M28.65 -0.62 C36.31 8.26, 42.74 17.17, 56.39 37.87 M57.73 36.73 C47.42 48.57, 36.62 61.34, 30.53 71.04 M55.05 37.6 C49.5 45.22, 44.66 53.14, 29.25 72.41 M28 72.16 C22.34 63.28, 15.36 55.89, 1.17 36.26 M29.33 73.99 C17.35 60.44, 6.12 46.22, 0.82 36.21 M0.3 36.2 C6.78 25.7, 18.01 13, 30.47 -0.09 M-0.83 36.99 C10.48 23.57, 22.26 9.05, 29.99 0.34" stroke="#000000" stroke-width="1" fill="none"></path></g><g stroke-linecap="round"><g transform="translate(492.4123770087399 148.9101732019335) rotate(0 1.4443575596250753 17.940916741266847)"><path d="M0.58 -1.16 C1.01 5.16, 3.01 30.93, 3.47 37.04 M-0.58 0.85 C-0.34 6.93, 2.22 29.51, 2.77 35.47" stroke="#000000" stroke-width="1" fill="none"></path></g></g><g stroke-linecap="round" transform="translate(646.4123770087399 177.9101732019335) rotate(0 31 40)"><path d="M32 0 C32 0, 32 0, 32 0 M32 0 C32 0, 32 0, 32 0 M1.54 43.01 C13.78 26.55, 29.15 10.48, 35.15 1.46 M1.52 42.03 C11.97 28.95, 23.01 15.66, 33.78 3.41 M2.75 46.6 C15.47 31.2, 24.77 20.52, 34.99 6.28 M3.76 45.12 C13.44 33.66, 22.75 22.97, 35.99 6.01 M7.28 49.37 C13.61 40.38, 21.68 31.97, 39.71 8.23 M5.9 48.25 C16.83 34.57, 30.06 21.08, 39.01 11.02 M9.15 49.61 C21.26 36.21, 33.44 22.97, 42.5 12.95 M9.23 51.22 C17.89 39.74, 27.48 30.74, 42.36 14.21 M11.21 52.96 C18.31 46.33, 24.29 37.12, 42.43 17.56 M11.07 55.04 C19.98 43.3, 28.95 33.09, 43.63 16.38 M15.66 59.07 C26.75 44.1, 40.15 28.87, 47.68 20.41 M14.03 56.48 C21.85 46.85, 32.08 38.47, 47.32 19.82 M16.69 62.31 C25.44 51.01, 35.86 37.73, 49.45 24.52 M16.27 61.6 C28.09 47.57, 40.65 31.75, 49.41 23.68 M16.97 63.69 C27.95 57.16, 33.31 46.42, 52.52 27.44 M18.65 63.54 C25.62 55.6, 32.81 45.89, 51.58 26.69 M20.25 67.55 C31.96 52.01, 43.89 39.05, 53.1 28.79 M20.95 66 C29.9 58.59, 35.72 49.53, 53.77 30.46 M25.92 68.27 C32.52 60.67, 37.69 52.01, 58.14 31.88 M23.2 69.85 C30.24 62.62, 37.44 53.94, 57.03 34.02 M27.57 72.17 C33.99 62.27, 41.73 55.02, 57.83 36.16 M25.74 73.85 C36.6 60.53, 48.19 48.56, 58.79 36.07 M31.52 76.22 C42 60.28, 53.75 45.99, 60.19 39.67 M28.53 75.21 C40.29 64.72, 49.44 53.02, 61.05 40.31 M33.47 80.73 C43.13 64.52, 55.58 49.85, 64.26 42.72 M31.38 79.11 C40.3 68.29, 49.66 59.25, 64.24 42.92" stroke="#fab005" stroke-width="0.5" fill="none"></path><path d="M31.77 -1.39 C43.14 16.43, 55.33 32.83, 60.16 39.67 M32.8 0.92 C43.71 16.49, 55.5 32.59, 62.03 41.91 M62.15 39.41 C50.75 52.87, 40.23 67.24, 30.43 78.07 M62.06 40.19 C55.48 51.28, 47.29 60.47, 32.67 79.21 M33.09 78.58 C20.99 68.62, 9.82 52.45, 0.24 39.04 M32.06 79.04 C20.87 65.14, 8.98 51.33, -0.57 40.27 M-1.74 41.56 C8.43 27.45, 19.94 15.1, 31.78 1.12 M0.29 41.62 C8.51 31.78, 16.46 20.53, 31.92 0.07" stroke="#000000" stroke-width="1" fill="none"></path></g><g stroke-linecap="round" transform="translate(641.4123770087399 58.9101732019335) rotate(0 42 37)"><path d="M5.11 17.69 C5.11 17.69, 5.11 17.69, 5.11 17.69 M5.11 17.69 C5.11 17.69, 5.11 17.69, 5.11 17.69 M3.02 24.92 C9.19 20.69, 13.69 14.32, 20.64 8.92 M3.32 24.6 C7.46 20.25, 11.33 17.27, 19.16 8.17 M1.14 31.26 C5.85 26.35, 13.65 21.99, 28.39 5.08 M2.93 31.8 C10.97 23.58, 18.97 13.79, 27.27 3.97 M0.87 42.43 C11.9 28.92, 20.86 19.51, 30.9 4.17 M1.57 40.38 C10.06 29.67, 19.45 20.17, 32.5 4.36 M5.22 45.44 C9.08 36.69, 19.58 27.42, 36.51 4 M2.71 44.37 C15.13 30.23, 27.35 17.3, 38.59 3.75 M5.4 46.39 C16.5 38.29, 22.95 29.08, 46.29 2.98 M6.19 47.87 C19.61 29.94, 33.7 14.04, 43.7 1.99 M8.43 52.15 C16.24 40.02, 25.14 30.69, 53.11 -0.13 M7.6 52.36 C25.61 32.52, 42.22 11.68, 52.4 0.87 M10.25 56.5 C25.89 33.48, 45.45 13.04, 54.79 4.19 M10.31 55.51 C27.23 33.81, 46.33 13.64, 54.63 2.09 M11.58 59.9 C28.58 43.72, 41.86 22.46, 59.7 3.91 M11.13 58.63 C21.04 48.4, 30.85 35.34, 58.14 5.64 M12.93 64.82 C27.75 46.74, 43.93 29.11, 60.72 8.08 M14.18 62.62 C24.06 50.57, 36.78 36, 62.29 6.12 M18.41 67.04 C32.64 46.96, 49.39 28.46, 64.91 7.65 M16.52 64.94 C28.59 52.46, 40.22 38.81, 66.59 8.16 M20.88 66.25 C34.4 51.5, 45.38 40.83, 70.01 10.02 M20.19 66.88 C32.95 53.88, 43.9 39.25, 69 10.67 M24.34 69.84 C44.26 49.73, 60.82 28.9, 74.82 11.58 M24.39 68.96 C37.03 55.18, 50.59 39.02, 73.19 12.02 M28.36 71.7 C37.13 57.05, 51.1 45.2, 75.66 12.33 M28.8 70.45 C43.72 53.18, 57.99 35.59, 76.87 14.29 M32.53 70.77 C48.98 50.47, 69.63 28.64, 78.86 18.62 M31.83 71.56 C46.39 57.47, 59.83 42.24, 79.02 18.74 M34.91 75.67 C43.13 64.91, 56.38 54.37, 79.06 23 M35.97 74.67 C46.3 60.42, 57.96 48.68, 80.16 23.23 M42.41 72.91 C58.32 58.04, 73.49 37.19, 83.13 28.29 M39.95 74.26 C51.93 60.69, 64.81 47.33, 81.02 27 M47.34 74.31 C60.63 57.77, 71.73 46.06, 83.18 32.89 M46.19 72.98 C61.87 56.05, 74.41 40.1, 83.43 31.59 M53.11 73.5 C60.27 63.16, 69.72 49.78, 87.03 35.8 M52.3 73.76 C63.12 60.38, 72.89 48.15, 85.66 34.62 M58.61 72.22 C65.02 63.46, 72.18 52.81, 81.41 44.79 M58.32 72.82 C66.4 61.79, 75.14 53.05, 83.4 43.46" stroke="#4c6ef5" stroke-width="0.5" fill="none"></path><path d="M24.99 3.39 C31.79 0.31, 42.64 -0.78, 50.92 0.68 C59.19 2.15, 69.28 6.65, 74.64 12.18 C80 17.72, 82.68 26.46, 83.08 33.89 C83.49 41.32, 81.26 50.56, 77.07 56.77 C72.88 62.98, 65.31 68.56, 57.94 71.13 C50.58 73.69, 40.67 73.77, 32.89 72.15 C25.12 70.53, 16.58 66.51, 11.29 61.4 C6.01 56.28, 2.2 48.75, 1.17 41.46 C0.15 34.17, 1.16 24.01, 5.14 17.65 C9.13 11.29, 20.33 6.28, 25.09 3.3 C29.85 0.31, 30.66 0.3, 33.71 -0.25 C36.76 -0.79, 43.24 -0.74, 43.38 0.02 M34.88 -1.08 C42.52 -2.67, 53.6 0.92, 61.19 4.54 C68.77 8.16, 76.47 14.18, 80.39 20.63 C84.32 27.09, 86.25 36.24, 84.73 43.29 C83.2 50.35, 77.21 58.11, 71.24 62.97 C65.26 67.83, 56.78 71.27, 48.88 72.44 C40.98 73.6, 31.03 73.11, 23.85 69.96 C16.66 66.8, 9.74 59.74, 5.77 53.49 C1.81 47.25, -0.93 39.36, 0.07 32.48 C1.07 25.61, 5.96 17.66, 11.79 12.24 C17.61 6.83, 30.92 1.98, 35.01 -0.01 C39.1 -2, 36.44 0.29, 36.35 0.3 C36.25 0.3, 34.66 -0.49, 34.44 0.02" stroke="#000000" stroke-width="1" fill="none"></path></g><g stroke-linecap="round"><g transform="translate(677.4123770087399 132.9101732019335) rotate(0 0.13873345218598843 23.7921781194583)"><path d="M-0.87 0.13 C-0.84 8.12, 1.01 39.24, 1.15 47.27 M0.87 -0.85 C0.67 7.35, 0.04 40.59, 0.28 48.43" stroke="#000000" stroke-width="1" fill="none"></path></g></g><g stroke-linecap="round" transform="translate(564.4123770087399 182.9101732019335) rotate(0 30 38)"><path d="M6.64 15.05 C6.64 15.05, 6.64 15.05, 6.64 15.05 M6.64 15.05 C6.64 15.05, 6.64 15.05, 6.64 15.05 M5.01 24.97 C9.32 15.79, 18.11 6.78, 23.92 3.63 M3.87 25.05 C8.95 18.52, 13.22 12.98, 23.41 3.49 M3.42 33.33 C10.28 21.2, 22.84 7.91, 29.24 0.05 M1.89 33.19 C11.2 22.38, 19.24 11.68, 28.62 1.25 M0.09 41.91 C10.25 30.87, 18.04 22.12, 34.33 3.39 M-0.15 40.28 C11.32 26.6, 22.48 15.36, 33.83 3.03 M1.54 45.47 C15.24 30.5, 27.34 17.21, 37.83 3.91 M1.69 45.05 C16.1 28.93, 29.78 13.55, 36.76 3.87 M3.9 47.52 C18.02 34.1, 34.91 15.06, 41.93 5.73 M3.82 49.19 C17.11 32.79, 31.72 16.59, 41.17 4.8 M3.99 51.91 C19.65 36.22, 30.92 20.79, 44.15 5.82 M4.08 52.61 C15.22 42.08, 26.5 28.43, 45.42 6.49 M5.74 59.35 C21.67 40.07, 38.37 19.41, 47.7 10.37 M6.99 56.63 C17.41 45.08, 28.28 33.7, 48.78 9.26 M7.96 62.77 C24.72 40.92, 41.66 20.4, 52.67 11.08 M9.4 60.94 C21.27 46.98, 32.76 33.75, 51.39 12.04 M11.48 67.08 C21.92 52.04, 31.81 38.24, 52.36 15.2 M10.4 64.09 C22.43 50.93, 36.4 35.16, 54.48 16.06 M14.21 69.29 C29.37 49.96, 41.82 33.46, 53.82 20.39 M14.33 67.21 C26.74 52.17, 39.36 37.62, 55.69 20.37 M17.66 71.03 C30.13 52.24, 46.24 38.25, 58.21 25.23 M16 71.22 C27.72 57.32, 40.24 43.65, 57.38 23.99 M20.59 71.63 C28.55 63.95, 36.66 52.1, 57.33 28.09 M20.35 73.55 C27.73 64.29, 34.6 53.98, 59.88 27.48 M25.53 76.68 C35.32 60.42, 48.68 45.25, 60 35.41 M23.67 75.36 C34.8 62.73, 47.44 47.61, 59.8 34.8 M28.57 75.61 C35.48 69.4, 41.26 57.86, 57.09 39.24 M27.32 76.76 C36.49 65.61, 47.77 54.99, 57.9 41.6 M32.99 77.92 C40.84 68.4, 51.06 56.57, 59.42 46.84 M32.17 75.74 C38.6 70.02, 44.34 62.53, 58.75 48.39 M37.25 74.15 C46.42 69.55, 50.07 63.21, 58.13 55.47 M38.45 74.76 C44.82 68.57, 49.41 63.41, 58.06 54.06" stroke="#4c6ef5" stroke-width="0.5" fill="none"></path><path d="M28.51 0.46 C34.29 -0.49, 42.79 2.03, 47.74 6.51 C52.69 10.99, 56.68 19.58, 58.23 27.32 C59.77 35.06, 59.54 45.5, 57.01 52.93 C54.48 60.37, 48.54 68.17, 43.05 71.93 C37.56 75.69, 29.88 76.94, 24.09 75.52 C18.29 74.09, 12.35 69.34, 8.26 63.38 C4.16 57.41, -0.2 47.74, -0.51 39.73 C-0.81 31.72, 2.65 21.56, 6.44 15.29 C10.22 9.03, 17.65 4.58, 22.19 2.15 C26.72 -0.27, 31.02 0.62, 33.65 0.74 C36.27 0.85, 38.03 2.33, 37.93 2.85 M38.9 0.95 C44.5 2.69, 50.66 9.19, 54.17 15.95 C57.68 22.71, 60.24 33.41, 59.95 41.51 C59.67 49.6, 56.8 58.68, 52.45 64.53 C48.11 70.39, 39.96 75.77, 33.87 76.63 C27.78 77.5, 21.23 73.84, 15.89 69.74 C10.56 65.63, 4.49 59.27, 1.86 52.01 C-0.77 44.75, -1.75 33.91, 0.09 26.18 C1.94 18.45, 7.5 9.86, 12.93 5.64 C18.37 1.42, 28.37 1.33, 32.69 0.86 C37.01 0.39, 38.05 2.35, 38.87 2.8 C39.68 3.25, 37.92 3.33, 37.58 3.58" stroke="#000000" stroke-width="1" fill="none"></path></g><g stroke-linecap="round"><g transform="translate(523.4123770087399 217.9101732019335) rotate(0 19.010102332010888 -0.8769057313260191)"><path d="M-1.14 0.59 C5.36 0.44, 32.55 -0.3, 39.16 -0.49 M0.46 -0.15 C6.81 -0.69, 32.12 -1.92, 38.3 -2.34" stroke="#000000" stroke-width="1" fill="none"></path></g></g><g stroke-linecap="round"><g transform="translate(626.4123770087399 219.9101732019335) rotate(0 10.82010628543793 -0.5181970335700044)"><path d="M-1.11 0.41 C2.69 0.44, 18.76 0.46, 22.75 0.09 M0.51 -0.42 C4.21 -0.69, 18.53 -1.37, 22.2 -1.46" stroke="#000000" stroke-width="1" fill="none"></path></g></g><g stroke-linecap="round"><g transform="translate(707.4123770087399 220.9101732019335) rotate(0 27.449208885058738 -0.5379093285649788)"><path d="M-0.83 0.4 C8.62 0.14, 46.19 -1.26, 55.73 -1.48 M0.93 -0.43 C10.28 -0.54, 45.48 -0.33, 54.64 -0.19" stroke="#000000" stroke-width="1" fill="none"></path></g></g><g stroke-linecap="round" transform="translate(762.4123770087399 176.9101732019335) rotate(0 42 44)"><path d="M-0.02 45.03 C-0.02 45.03, -0.02 45.03, -0.02 45.03 M-0.02 45.03 C-0.02 45.03, -0.02 45.03, -0.02 45.03 M1.06 47.23 C17.86 31.81, 29.8 13.03, 44 1.56 M3.39 48.22 C15.23 33.07, 29.35 16.86, 44.59 0.41 M3.93 50.2 C17.45 36.69, 28.41 25.04, 46.46 1.63 M5.99 51.18 C14.09 42.37, 22.2 32.66, 45.76 2.86 M6.48 55.25 C25.11 38.36, 36.34 20.26, 48.05 7.14 M8.13 52.9 C22.36 37.74, 36.06 21.76, 49.76 5.91 M13.26 57.96 C28.45 36.92, 43.41 22.09, 51.67 7.88 M10.61 55.84 C22.75 43.79, 31.59 32.56, 52.53 10.39 M16.12 57.6 C25.56 47.48, 36.54 34.46, 56.16 12.14 M15.34 57.96 C29.05 41.14, 45.06 24.47, 54.41 12.36 M15.33 63.21 C30.41 43.05, 50.29 26.03, 58.04 15.29 M17.27 61.45 C29.03 46.62, 43.76 30.79, 57.58 15.32 M18.66 65.13 C32.2 47.08, 46.35 33.34, 60.62 18.33 M19.33 63.94 C28.93 54.03, 38.54 43.15, 60.14 19.46 M23.86 68.09 C36.75 51.41, 49.66 36.22, 63.77 20.46 M23.79 68.25 C32.49 54.83, 43.5 44.03, 63.66 21.82 M25.75 70.79 C41.67 52.09, 55.65 38.04, 65.05 25.63 M25.11 69.56 C37.24 55.38, 49.61 41.33, 65.14 25.58 M29.31 71.9 C36.21 62.87, 43.7 54.18, 69.43 27.12 M27.97 74.17 C37.44 62.96, 47.54 52.12, 68.61 28.21 M32.76 77.7 C48.31 56.5, 60.62 38.55, 71.1 29.36 M32.14 76.7 C46.13 60.62, 59.48 43.73, 71.79 29.99 M34.07 79.09 C48.8 61.99, 62.19 47.08, 71.91 32.2 M33.82 77.81 C46.64 64.61, 60.25 49.61, 74.35 33.97 M37.36 83.91 C45.93 70.17, 54.73 60.55, 77.76 37.26 M35.93 82.17 C51.43 66.93, 64.06 50.7, 77.13 36.91 M41.29 83.27 C49.93 72.23, 60.57 59.31, 78.45 39.74 M39.3 85.43 C52.05 70.47, 66.26 54.37, 79.87 38.78 M43.58 86.59 C58.38 69.2, 73.51 51.82, 83.36 42.98 M43.06 86.95 C55.21 73, 68.25 56.56, 81.71 41.96" stroke="#fab005" stroke-width="0.5" fill="none"></path><path d="M44.07 1.98 C50.5 7.71, 61.08 17.84, 82.28 44.74 M42.31 0.6 C50.84 9.25, 60.22 20.89, 84.18 44.3 M82.45 46.4 C71.94 58.6, 60.29 69.79, 41.71 87.52 M83.08 45.28 C75.84 53.02, 66.7 62.68, 43.36 88.05 M42.23 88.57 C32.02 79.36, 21.2 67.35, -1.54 43.52 M43.26 88.24 C29.29 72.39, 14.06 58.07, -0.5 45.8 M1.95 43.52 C11.74 35.45, 22.49 21.44, 41.76 -1.07 M0.33 45.15 C10.2 33.08, 20.31 23.46, 43.62 -0.99" stroke="#000000" stroke-width="1" fill="none"></path></g><g stroke-linecap="round"><g transform="translate(831.4123770087399 198.9101732019335) rotate(0 63.88757653795187 -69.89293652735648)"><path d="M-0.97 0.41 C20.58 -22.76, 107.05 -116.97, 128.75 -140.19 M0.72 -0.42 C22.22 -23.39, 106.8 -116.42, 128.19 -139.28" stroke="#000000" stroke-width="1" fill="none"></path></g></g><g stroke-linecap="round"><g transform="translate(825.4123770087399 239.9101732019335) rotate(0 59.648851001635194 54.186699932441115)"><path d="M-0.9 -1.05 C19.06 17.12, 99.98 90.91, 120.2 109.42 M0.83 1.02 C20.61 18.78, 99.52 89.65, 119.35 107.52" stroke="#000000" stroke-width="1" fill="none"></path></g></g><g stroke-linecap="round" transform="translate(368.4123770087399 178.9101732019335) rotate(0 30 38)"><path d="M15.04 5.12 C15.04 5.12, 15.04 5.12, 15.04 5.12 M15.04 5.12 C15.04 5.12, 15.04 5.12, 15.04 5.12 M1.29 25 C7.87 20.69, 9.77 14.42, 22.83 2.77 M2 26.79 C10.04 18.2, 17.74 9.7, 21.61 3.99 M0.14 30.76 C11.83 20.05, 23.37 9.65, 27.67 3.17 M1.39 32.98 C11.98 20.93, 21.39 9.15, 28.73 1.24 M2.19 38.07 C10.34 25.66, 22.86 16.41, 33.17 0.11 M2.57 38.58 C9.2 31.41, 14.52 23.07, 34.24 1.3 M0.78 44.89 C17.67 29.23, 31.67 11.09, 37.48 0.7 M1.87 44.35 C13.38 32.23, 23.74 18.31, 38.01 2.88 M1.2 49.59 C11.24 39.9, 21.49 30.8, 42.56 3.27 M2.98 50.1 C18.31 32.04, 32.9 15.32, 42.74 4.38 M4.31 53.69 C16.15 42.91, 25.86 31.21, 46.64 8.14 M4.49 53.13 C14.32 41.74, 24.48 29.99, 45.27 7.49 M5.11 59.03 C21.58 41.8, 37.57 23.16, 48.6 11.7 M7.26 58.02 C19.12 43.54, 31.05 29.2, 48.86 10.81 M7.12 59.97 C24.52 43.56, 39.25 28.39, 48.47 13.73 M8.65 60.5 C22.56 46.31, 34.57 31.95, 50.5 13.88 M8.82 64.05 C19.74 51.91, 31.07 41.35, 53.85 17.21 M9.79 64.75 C23.37 49.46, 37 34.8, 53.13 16.61 M14.03 68.22 C28.37 50.23, 45.03 33.84, 57.01 18.88 M13.88 69.31 C27.51 50.76, 42.42 33.25, 55.65 18.52 M14.47 71.96 C32.59 55.1, 46.08 36.11, 58.01 24.82 M15.47 70.83 C25.7 59.61, 37.71 47.39, 55.87 23.99 M18.74 74.55 C28.48 60.32, 39.19 48.55, 59.05 30.46 M19.38 73.05 C28.92 62.06, 37.38 51.58, 57.66 28.86 M23.56 75.93 C31.83 63.18, 40.11 55.22, 57.03 36.19 M22.74 74.23 C36.07 61.84, 46.18 47.85, 57.44 35.81 M26.72 77.48 C34.64 67.17, 42.97 59.51, 60.59 40.41 M27.8 75.66 C40.03 61.67, 51.52 47.64, 57.93 39.94 M32.3 76.59 C40.49 67.26, 49.48 59.93, 58.54 42.6 M32 76.84 C39.58 68.18, 46.2 61.69, 60.57 43.59 M44.98 70.42 C46.75 65.95, 53.28 59.06, 57.11 53.91 M42.11 70.96 C47.31 64.25, 51.66 59.58, 55.54 55.55" stroke="#4c6ef5" stroke-width="0.5" fill="none"></path><path d="M39.83 1.73 C45.48 3.96, 52.26 12.33, 55.42 19.28 C58.59 26.22, 59.66 35.59, 58.84 43.38 C58.01 51.18, 54.84 60.65, 50.47 66.07 C46.1 71.5, 38.88 75.32, 32.6 75.93 C26.32 76.54, 18.13 74.27, 12.8 69.74 C7.47 65.2, 2.57 56.22, 0.65 48.74 C-1.27 41.25, -1.15 32.1, 1.26 24.82 C3.67 17.53, 9.77 9.14, 15.12 5.03 C20.48 0.92, 28.32 0.23, 33.41 0.15 C38.49 0.07, 43.3 3.09, 45.64 4.56 C47.98 6.03, 47.85 8.25, 47.44 8.98 M20.19 3.24 C25.76 0.2, 35 0.28, 40.91 2.78 C46.81 5.28, 52.56 11.63, 55.64 18.24 C58.71 24.86, 60.14 34.65, 59.34 42.48 C58.55 50.32, 55.29 59.82, 50.89 65.26 C46.49 70.7, 39.11 74.09, 32.93 75.13 C26.75 76.17, 18.76 75.36, 13.81 71.51 C8.87 67.66, 5.54 59.75, 3.26 52.04 C0.98 44.34, -1.51 32.75, 0.14 25.31 C1.79 17.86, 9.68 11.11, 13.15 7.35 C16.63 3.6, 19.69 3.35, 21 2.77 C22.31 2.19, 21.2 3.35, 20.99 3.85" stroke="#000000" stroke-width="1" fill="none"></path></g><g stroke-linecap="round"><g transform="translate(430.9123770087399 220.4101732019335) rotate(0 19.18019010180609 -0.37258829262111703)"><path d="M0.15 -0.2 C6.62 -0.19, 33.1 -0.71, 39.59 -0.95 M-1.23 -1.35 C5.07 -1.04, 32.36 0.5, 38.96 0.61" stroke="#000000" stroke-width="1" fill="none"></path></g></g><g stroke-linecap="round" transform="translate(269.4123770087399 168.9101732019335) rotate(0 31 40)"><path d="M32 0 C32 0, 32 0, 32 0 M32 0 C32 0, 32 0, 32 0 M2.05 43 C10.51 31.44, 16.59 21.05, 34.38 5.12 M1.42 42.65 C12.14 28.43, 22.71 16.69, 33.61 2.9 M2.74 45.48 C14.03 35.56, 22.98 22.26, 38.02 5.7 M4.16 44.52 C17.24 29.3, 29.74 15.2, 36.32 6.84 M7.65 48.71 C15.7 38.99, 25.73 28.35, 38.17 10.16 M6 47.7 C17.91 34.16, 30.83 20.42, 39.68 10.46 M8.93 52.72 C21.02 38.65, 30.79 28.36, 41.35 11.81 M8.53 51.22 C16.79 40.65, 26.8 31.83, 41.93 14.25 M12.54 53.55 C20.7 46.48, 24.36 38.12, 43.88 15.27 M11.65 54.7 C22.53 41.9, 33.84 29.41, 43.21 16.53 M12.69 56.03 C24.99 44.93, 36.46 33.88, 46.92 20.29 M13.89 56.82 C25.92 44.49, 36.18 32.67, 47.47 19.9 M16.37 60.68 C29.84 47.79, 42.47 31.52, 50.32 23.34 M15.74 60.84 C27.53 46.27, 40.76 31.08, 50.15 22.48 M19.65 65.69 C25.8 55.32, 37.9 44.23, 50.99 25.63 M17.83 64.26 C26.02 56.72, 32.93 46.74, 51.35 26.62 M20.2 65.75 C27.19 58.21, 36.87 52, 52.68 30.7 M22.27 66.29 C33.53 52.68, 45.52 39.02, 53.55 30.12 M23.73 68.88 C33.59 58.91, 44.69 46.26, 57.12 32.21 M24.95 70.38 C31.82 60.58, 40.55 51.78, 55.5 32.67 M26.4 72.51 C36.78 62.45, 46.03 53.21, 60.43 36.55 M26.78 72.86 C34.16 63.61, 41.57 54.89, 58.52 36.14 M29.24 76.21 C39.9 66.97, 46.85 52.17, 59.57 39.34 M29.99 75.46 C42.77 61.99, 54.39 46.92, 61.79 39.72 M30.67 80.62 C43.71 65.83, 56.16 50.69, 65.42 43.28 M31.41 78.78 C42.72 66.35, 54.58 52.99, 63.24 41.43" stroke="#fab005" stroke-width="0.5" fill="none"></path><path d="M32.94 -1.04 C39.4 10.34, 49.64 23.9, 63.43 39.1 M32.82 0.33 C40.39 11.07, 46.89 21.22, 62.31 41.81 M61.86 41.75 C55.89 49.38, 50.74 56.54, 30.8 78.51 M61.94 41.7 C53.49 49.95, 46.33 60.48, 31.18 79.83 M33.22 79.62 C23.94 69.54, 18.88 62.16, 1.27 39.44 M32.39 80.71 C21.3 66.4, 8.22 52.41, 0.77 41.77 M-0.13 40.23 C8.55 32.91, 12.91 25.42, 33.08 1.02 M0.56 40.87 C13.24 23.77, 25.09 8.6, 32.15 0.28" stroke="#000000" stroke-width="1" fill="none"></path></g><g stroke-linecap="round"><g transform="translate(334.4123770087399 211.4101732019335) rotate(0 14.651367423497106 -1.1825898944410937)"><path d="M-0.46 -0.42 C4.4 -0.4, 24.73 -0.13, 29.77 -0.54 M1.49 -1.68 C6.23 -1.92, 24.63 -1.97, 29.28 -2.05" stroke="#000000" stroke-width="1" fill="none"></path></g></g><g stroke-linecap="round" transform="translate(254.4123770087399 43.9101732019335) rotate(0 42 37)"><path d="M14.72 7.5 C14.72 7.5, 14.72 7.5, 14.72 7.5 M14.72 7.5 C14.72 7.5, 14.72 7.5, 14.72 7.5 M2.9 27.61 C6.91 19.33, 14.85 14.95, 22.43 4.96 M1.81 27.81 C6.97 22.02, 13.12 13.8, 21.59 4.9 M3.14 35.34 C10.03 24.48, 18.94 15.34, 31.21 3.73 M3.27 33.22 C10.73 24.79, 18.67 14.65, 29 2.95 M3.32 40.8 C13.6 29.43, 20.39 17.8, 37.66 1.43 M2.33 39.49 C10.09 31.87, 17.24 24.07, 36.48 0.26 M3.98 45.79 C17.73 30.57, 31.67 10.23, 40.57 2.61 M2.14 45.57 C17.24 30.98, 30.62 14.96, 40.5 0.45 M5.48 51.06 C12.12 39.07, 24.85 24.6, 46.43 1.77 M3.68 50.94 C14.61 38.51, 25.02 24.69, 45.85 1.56 M5.74 54.12 C17.94 42.89, 28.72 29.52, 50.61 1.77 M6.45 54.03 C17.99 41.02, 31.07 26.66, 50.7 4.1 M10.1 58.31 C23.74 40.87, 37.07 26.2, 56.42 5.58 M8.02 57 C27.41 35.03, 46.61 14.48, 54.48 3.5 M10.31 60.6 C28.34 41.99, 40.6 24.52, 57.61 5.16 M12.03 60.16 C22.18 46.92, 32.18 36.76, 58.24 4.58 M13.04 62.16 C35.61 41.86, 51.44 20.47, 64.73 5.42 M14.39 62.22 C30.32 43.88, 45.22 27.17, 63.82 6.26 M16.27 66.67 C34.94 45.74, 54.29 23.5, 66.28 6.65 M16.63 65.22 C29.32 51.15, 41.23 36, 66.92 7.55 M21.77 67.37 C41.46 46.38, 60.35 24.52, 69.14 10.75 M20.16 67.3 C33.65 51.66, 48.34 35.55, 70.26 10.47 M25.49 71.14 C38.32 49.61, 53.99 33.42, 74.33 12.55 M25.51 69.36 C42.22 48.39, 60.26 29.07, 73.28 15.07 M29.4 70.33 C44.12 52.65, 58.31 39.18, 76.76 14.91 M28.07 70.59 C44.78 52.22, 60.66 32.61, 74.7 17.12 M31.87 70.76 C46.72 55.07, 61.51 39.32, 77.74 19.77 M33.22 71.16 C44.87 56.25, 58.35 43.18, 78.87 20.86 M38.8 71.86 C56.36 52.33, 72.49 33.86, 80.02 23.44 M37.38 71.92 C49.91 58.87, 60.83 43.5, 79.65 22.91 M42.68 74.42 C56.56 54.66, 73.81 39.25, 82.23 25.41 M41.88 72.88 C50.95 63.17, 60.26 53.04, 82.71 26.81 M47.8 74.94 C57.73 61.98, 67.42 48.98, 85.41 33.49 M46.02 75.23 C56.64 62.79, 68.76 48.65, 82.89 32.7 M54.49 70.9 C65.15 57.82, 75.93 46.45, 83.92 38.24 M54.16 71.19 C62.06 60.76, 72.39 51.62, 84.95 37.53 M63.15 70.14 C68.24 60.47, 75.91 55.31, 84.75 42.41 M61.6 69.12 C68.88 61.98, 75.42 54.78, 85.74 43.04" stroke="#4c6ef5" stroke-width="0.5" fill="none"></path><path d="M39.48 -0.71 C47.02 -1.48, 57.63 1.49, 64.48 5.56 C71.33 9.64, 77.44 17.08, 80.57 23.75 C83.71 30.42, 85.35 38.75, 83.27 45.61 C81.2 52.47, 74.49 60.34, 68.1 64.92 C61.72 69.51, 53.1 72.71, 44.95 73.12 C36.8 73.53, 26.29 71.21, 19.2 67.38 C12.11 63.55, 5.3 56.77, 2.42 50.14 C-0.46 43.52, -0.1 34.71, 1.92 27.64 C3.94 20.57, 8.26 12.35, 14.53 7.72 C20.81 3.09, 34.13 1.24, 39.56 -0.14 C44.98 -1.52, 44.8 -0.87, 47.07 -0.57 C49.33 -0.28, 53.17 0.81, 53.14 1.62 M55.96 3.45 C63.43 5.44, 73.57 11.96, 78.03 17.53 C82.49 23.1, 83.37 29.85, 82.71 36.86 C82.04 43.87, 78.95 53.51, 74.03 59.61 C69.11 65.71, 60.81 71.58, 53.18 73.46 C45.56 75.34, 35.68 73.34, 28.28 70.9 C20.88 68.45, 13.37 64.34, 8.78 58.77 C4.2 53.21, 0.98 44.67, 0.78 37.49 C0.57 30.31, 2.59 21.72, 7.57 15.7 C12.55 9.68, 22.5 3.92, 30.63 1.4 C38.75 -1.13, 52.06 0.44, 56.32 0.57 C60.59 0.7, 56.18 1.7, 56.2 2.17 C56.23 2.64, 56.83 2.76, 56.48 3.41" stroke="#000000" stroke-width="1" fill="none"></path></g><g stroke-linecap="round"><g transform="translate(297.9123770087399 118.9101732019335) rotate(0 1.2558460051380393 23.653000072622717)"><path d="M0.89 -0.87 C0.92 7, 0.37 39.06, 0.28 47.11 M-0.11 1.29 C0.31 9.3, 2.73 40.32, 2.62 48.17" stroke="#000000" stroke-width="1" fill="none"></path></g></g><g stroke-linecap="round" transform="translate(127.4123770087399 167.9101732019335) rotate(0 42 44)"><path d="M-0.02 45.03 C-0.02 45.03, -0.02 45.03, -0.02 45.03 M-0.02 45.03 C-0.02 45.03, -0.02 45.03, -0.02 45.03 M2.66 46.74 C16.38 33.41, 29.89 18.99, 44.33 1.33 M3.73 48.38 C11.64 37.46, 21.68 26.66, 42.82 0.53 M5.31 50.26 C19.31 35.69, 36.72 17.71, 48.17 2.01 M4.82 51.98 C14.19 40.01, 22.78 31.2, 45.88 3.92 M8.52 53.87 C19.5 41.39, 31.14 27.54, 48.34 7.44 M7.77 53.56 C16.89 44.58, 25.91 34.79, 49.44 7.22 M10.54 57.31 C19.62 46.15, 29.77 38.19, 52.84 11.1 M11.42 56.85 C26.31 40.67, 39.49 24.32, 52.29 10.26 M14.84 57.04 C29.56 41.51, 42.87 26.06, 53.61 12.07 M15.26 58.07 C25.01 48.09, 34.43 35.28, 54.11 12.07 M17.28 62.39 C30.96 47.98, 39.94 33.89, 58.15 13.54 M16.33 61.63 C26.16 51.92, 36.9 38.73, 57.97 16.09 M19.11 65.02 C28.93 53.7, 38.63 39.98, 60.74 19.44 M19.23 64.36 C32.35 50.66, 44.32 37.29, 59.41 18.4 M23.55 66.08 C31.75 56.43, 42.01 44.59, 62.11 20.9 M22.37 68.23 C31.97 57.18, 42.21 45.72, 62.91 20.95 M24.77 69.72 C36.27 54.99, 48.86 42.44, 64.65 24.92 M25.93 70.55 C37.6 56.8, 46.55 44.46, 64.97 25.74 M27.09 75.15 C37.2 63.57, 43.98 54.33, 68.07 28.86 M28.81 73.72 C44.18 55.92, 59.37 37.77, 68.65 28.07 M29.99 74.22 C40.03 65.5, 48.11 55.41, 69.27 28.29 M30.54 75.41 C44.48 60.06, 58.22 44.72, 71.19 30 M32.63 78.49 C45 63.89, 54.81 52.64, 74.72 35.29 M33.62 79.33 C48.32 62.79, 62.86 45.44, 73.35 33.34 M38.24 81.52 C47.41 69, 61.78 52.92, 74.9 34.75 M36.79 82.16 C46.78 69.99, 55.58 59.66, 77.56 35.56 M40.57 83.18 C50.52 72.26, 61.17 62.13, 78.1 38.21 M39.24 85.51 C54.36 68.21, 68.79 50.71, 78.72 40.33 M42.34 86.74 C58.89 68.65, 74.41 53.4, 80.16 40.39 M42 87.67 C57.42 69.42, 72.68 51.39, 81.62 41.69" stroke="#fab005" stroke-width="0.5" fill="none"></path><path d="M44.41 1.88 C55.29 11.15, 66.97 25.54, 85.54 43.31 M42.62 0.63 C51.31 8.6, 60.37 18.98, 84.51 45.91 M83.73 45.89 C72.8 54.85, 64.95 65.67, 43.57 86.72 M83.35 45.24 C71.43 57.69, 57.24 71.18, 42.94 88.24 M43.94 86.85 C26.3 71.37, 11.29 57.56, -0.49 44.04 M43.57 88.45 C32.68 77.64, 22.44 68.49, 0.87 45.38 M1.57 44.63 C10.68 30.88, 24.74 19.11, 42.05 -0.18 M0.12 45.38 C10.74 34.71, 19.62 24.98, 42.47 0.96" stroke="#000000" stroke-width="1" fill="none"></path></g><g stroke-linecap="round"><g transform="translate(210.4123770087399 210.4101732019335) rotate(0 28.03616997472011 -0.680487974341986)"><path d="M-0.85 -0.49 C8.24 -0.8, 45.31 -1.14, 54.83 -1.07 M0.9 -1.79 C10.31 -1.98, 47.8 0.45, 56.93 0.43" stroke="#000000" stroke-width="1" fill="none"></path></g></g><g stroke-linecap="round"><g transform="translate(149.4123770087399 190.9101732019335) rotate(0 -68.99129170740025 -89.98180007672875)"><path d="M-0.51 -1.09 C-23.83 -31.21, -115.65 -151.07, -138.99 -180.91 M1.43 0.95 C-22.04 -29.02, -115.57 -149.89, -139.41 -179.85" stroke="#000000" stroke-width="1" fill="none"></path></g></g><g stroke-linecap="round"><g transform="translate(144.4123770087399 229.9101732019335) rotate(0 -62.699162612166276 62.09363842729488)"><path d="M0.76 1.01 C-20.23 21.36, -104.36 101.97, -125.49 122.45 M-0.29 0.49 C-21.45 20.98, -105.09 103.45, -126.16 123.69" stroke="#000000" stroke-width="1" fill="none"></path></g></g></svg>